<svg xmlns="http://www.w3.org/2000/svg" class="main-svg" width="950" height="350" style="" viewBox="0 0 950 350"><defs id="defs-754e11"><g class="clips"><clipPath id="clip754e11xyplot" class="plotclip"><rect width="840" height="240" /></clipPath><clipPath class="axesclip" id="clip754e11x"><rect x="80" y="0" width="840" height="350" /></clipPath><clipPath class="axesclip" id="clip754e11y"><rect x="0" y="50" width="950" height="240" /></clipPath><clipPath class="axesclip" id="clip754e11xy"><rect x="80" y="50" width="840" height="240" /></clipPath></g><g class="gradients" /><g class="patterns" /><clipPath id="rounded-canvas-clip"><rect x="0" y="0" width="950" height="350" rx="24" ry="24" /></clipPath></defs><g clip-path="url(#rounded-canvas-clip)"><rect x="0" y="0" width="950" height="350" style="fill: rgb(255, 255, 255); fill-opacity: 1;" fill="rgb(255, 255, 255)" fill-opacity="1" rx="24" ry="24" /><g class="bglayer" /><g class="layer-below"><g class="imagelayer" /><g class="shapelayer" /></g><g class="cartesianlayer"><g class="subplot xy"><g class="layer-subplot"><g class="shapelayer" /><g class="imagelayer" /></g><g class="minor-gridlayer"><g class="x" /><g class="y" /></g><g class="gridlayer"><g class="x"><path class="xgrid crisp" transform="translate(93.15,0)" d="M0,50v240" style="stroke: rgb(226, 232, 240); stroke-opacity: 1; stroke-width: 1px;" /><path class="xgrid crisp" transform="translate(212.77,0)" d="M0,50v240" style="stroke: rgb(226, 232, 240); stroke-opacity: 1; stroke-width: 1px;" /><path class="xgrid crisp" transform="translate(332.39,0)" d="M0,50v240" style="stroke: rgb(226, 232, 240); stroke-opacity: 1; stroke-width: 1px;" /><path class="xgrid crisp" transform="translate(453.33,0)" d="M0,50v240" style="stroke: rgb(226, 232, 240); stroke-opacity: 1; stroke-width: 1px;" /><path class="xgrid crisp" transform="translate(574.27,0)" d="M0,50v240" style="stroke: rgb(226, 232, 240); stroke-opacity: 1; stroke-width: 1px;" /><path class="xgrid crisp" transform="translate(692.58,0)" d="M0,50v240" style="stroke: rgb(226, 232, 240); stroke-opacity: 1; stroke-width: 1px;" /><path class="xgrid crisp" transform="translate(812.21,0)" d="M0,50v240" style="stroke: rgb(226, 232, 240); stroke-opacity: 1; stroke-width: 1px;" /></g><g class="y"><path class="ygrid crisp" transform="translate(0,281.35)" d="M80,0h840" style="stroke: rgb(226, 232, 240); stroke-opacity: 1; stroke-width: 1px;" /><path class="ygrid crisp" transform="translate(0,242.27)" d="M80,0h840" style="stroke: rgb(226, 232, 240); stroke-opacity: 1; stroke-width: 1px;" /><path class="ygrid crisp" transform="translate(0,203.19)" d="M80,0h840" style="stroke: rgb(226, 232, 240); stroke-opacity: 1; stroke-width: 1px;" /><path class="ygrid crisp" transform="translate(0,164.11)" d="M80,0h840" style="stroke: rgb(226, 232, 240); stroke-opacity: 1; stroke-width: 1px;" /><path class="ygrid crisp" transform="translate(0,125.03)" d="M80,0h840" style="stroke: rgb(226, 232, 240); stroke-opacity: 1; stroke-width: 1px;" /><path class="ygrid crisp" transform="translate(0,85.95)" d="M80,0h840" style="stroke: rgb(226, 232, 240); stroke-opacity: 1; stroke-width: 1px;" /></g></g><g class="zerolinelayer" /><g class="layer-between"><g class="shapelayer" /><g class="imagelayer" /></g><path class="xlines-below" /><path class="ylines-below" /><g class="overlines-below" /><g class="xaxislayer-below" /><g class="yaxislayer-below" /><g class="overaxes-below" /><g class="overplot"><g class="xy" transform="translate(80,50)" clip-path="url(#clip754e11xyplot)"><g class="scatterlayer mlayer"><g class="trace scatter tracef5fbeb" style="stroke-miterlimit: 2;"><g class="fills"><g><path class="js-fill" d="M813.71,778.45L13.15,778.45L13.15,183.92L53.9,175.74L92.02,210.69L132.77,192.11L172.21,183.29L212.96,151.49L252.39,168.18L293.15,171.96L333.9,122.83L373.33,133.23L414.08,84.1L453.52,120.63L494.27,51.35L535.02,100.16L571.83,119.06L612.58,120.94L652.02,64.58L692.77,120.94L732.21,76.86L772.96,58.91L813.71,29.31" style="fill: rgb(37, 99, 235); fill-opacity: 0.12; stroke-width: 0;" /></g></g><g class="errorbars" /><g class="lines"><path class="js-line" d="M13.15,183.92L53.9,175.74L92.02,210.69L132.77,192.11L172.21,183.29L212.96,151.49L252.39,168.18L293.15,171.96L333.9,122.83L373.33,133.23L414.08,84.1L453.52,120.63L494.27,51.35L535.02,100.16L571.83,119.06L612.58,120.94L652.02,64.58L692.77,120.94L732.21,76.86L772.96,58.91L813.71,29.31" style="vector-effect: none; fill: none; stroke: rgb(37, 99, 235); stroke-opacity: 1; stroke-width: 3px; opacity: 1;" /></g><g class="points" /><g class="text" /></g><g class="trace scatter traced2eef0" style="stroke-miterlimit: 2; opacity: 1;"><g class="fills" /><g class="errorbars" /><g class="lines"><path class="js-line" d="M13.15,183.92L53.9,179.83L92.02,190.12L172.21,195.37L212.96,175.63L252.39,167.65L293.15,163.88L333.9,154.32L373.33,142.67L414.08,113.39L453.52,112.65L494.27,85.36L535.02,90.71L571.83,90.19L612.58,113.39L652.02,101.53L692.77,102.16L732.21,87.46L772.96,85.57L813.71,55.03" style="vector-effect: none; fill: none; stroke: rgb(71, 85, 105); stroke-opacity: 1; stroke-dasharray: 9px, 9px; stroke-width: 2px; opacity: 1;" /></g><g class="points" /><g class="text" /></g><g class="trace scatter trace90de74" style="stroke-miterlimit: 2; opacity: 1;"><g class="fills" /><g class="errorbars" /><g class="lines" /><g class="points"><path class="point" transform="translate(92.02,210.69)" d="M5,0A5,5 0 1,1 0,-5A5,5 0 0,1 5,0Z" style="opacity: 1; stroke-width: 1px; fill: rgb(220, 38, 38); fill-opacity: 1; stroke: rgb(255, 255, 255); stroke-opacity: 1;" /></g><g class="text"><g class="textpoint" transform="translate(0,-11)"><text x="92.02" y="210.69" text-anchor="middle" style="font-family: Arial; font-size: 15px; fill: rgb(51, 65, 85); fill-opacity: 1; white-space: pre;">min</text></g></g></g><g class="trace scatter trace8c3cbd" style="stroke-miterlimit: 2; opacity: 1;"><g class="fills" /><g class="errorbars" /><g class="lines" /><g class="points"><path class="point" transform="translate(813.71,29.31)" d="M5,0A5,5 0 1,1 0,-5A5,5 0 0,1 5,0Z" style="opacity: 1; stroke-width: 1px; fill: rgb(5, 150, 105); fill-opacity: 1; stroke: rgb(255, 255, 255); stroke-opacity: 1;" /></g><g class="text"><g class="textpoint" transform="translate(0,-11)"><text x="813.71" y="29.31" text-anchor="middle" style="font-family: Arial; font-size: 15px; fill: rgb(51, 65, 85); fill-opacity: 1; white-space: pre;">max</text></g></g></g></g></g></g><g class="zerolinelayer-above" /><path class="xlines-above crisp" d="M0,0" style="fill: none;" /><path class="ylines-above crisp" d="M0,0" style="fill: none;" /><g class="overlines-above" /><g class="xaxislayer-above"><g class="xtick"><text text-anchor="middle" x="0" y="306" transform="translate(93.15,0)" style="font-family: Arial; font-size: 15px; fill: rgb(51, 65, 85); fill-opacity: 1; white-space: pre;">Jan 2024</text></g><g class="xtick"><text text-anchor="middle" x="0" y="306" style="font-family: Arial; font-size: 15px; fill: rgb(51, 65, 85); fill-opacity: 1; white-space: pre;" transform="translate(212.77,0)">Apr 2024</text></g><g class="xtick"><text text-anchor="middle" x="0" y="306" style="font-family: Arial; font-size: 15px; fill: rgb(51, 65, 85); fill-opacity: 1; white-space: pre;" transform="translate(332.39,0)">Jul 2024</text></g><g class="xtick"><text text-anchor="middle" x="0" y="306" style="font-family: Arial; font-size: 15px; fill: rgb(51, 65, 85); fill-opacity: 1; white-space: pre;" transform="translate(453.33,0)">Oct 2024</text></g><g class="xtick"><text text-anchor="middle" x="0" y="306" style="font-family: Arial; font-size: 15px; fill: rgb(51, 65, 85); fill-opacity: 1; white-space: pre;" transform="translate(574.27,0)">Jan 2025</text></g><g class="xtick"><text text-anchor="middle" x="0" y="306" style="font-family: Arial; font-size: 15px; fill: rgb(51, 65, 85); fill-opacity: 1; white-space: pre;" transform="translate(692.58,0)">Apr 2025</text></g><g class="xtick"><text text-anchor="middle" x="0" y="306" style="font-family: Arial; font-size: 15px; fill: rgb(51, 65, 85); fill-opacity: 1; white-space: pre;" transform="translate(812.21,0)">Jul 2025</text></g></g><g class="yaxislayer-above"><g class="ytick"><text text-anchor="end" x="79" y="5.25" transform="translate(0,281.35)" style="font-family: Arial; font-size: 15px; fill: rgb(51, 65, 85); fill-opacity: 1; white-space: pre;">28%</text></g><g class="ytick"><text text-anchor="end" x="79" y="5.25" style="font-family: Arial; font-size: 15px; fill: rgb(51, 65, 85); fill-opacity: 1; white-space: pre;" transform="translate(0,242.27)">30%</text></g><g class="ytick"><text text-anchor="end" x="79" y="5.25" style="font-family: Arial; font-size: 15px; fill: rgb(51, 65, 85); fill-opacity: 1; white-space: pre;" transform="translate(0,203.19)">32%</text></g><g class="ytick"><text text-anchor="end" x="79" y="5.25" style="font-family: Arial; font-size: 15px; fill: rgb(51, 65, 85); fill-opacity: 1; white-space: pre;" transform="translate(0,164.11)">34%</text></g><g class="ytick"><text text-anchor="end" x="79" y="5.25" style="font-family: Arial; font-size: 15px; fill: rgb(51, 65, 85); fill-opacity: 1; white-space: pre;" transform="translate(0,125.03)">36%</text></g><g class="ytick"><text text-anchor="end" x="79" y="5.25" style="font-family: Arial; font-size: 15px; fill: rgb(51, 65, 85); fill-opacity: 1; white-space: pre;" transform="translate(0,85.95)">38%</text></g></g><g class="overaxes-above" /></g></g><g class="polarlayer" /><g class="smithlayer" /><g class="ternarylayer" /><g class="geolayer" /><g class="funnelarealayer" /><g class="pielayer" /><g class="iciclelayer" /><g class="treemaplayer" /><g class="sunburstlayer" /><g class="glimages" /><defs id="topdefs-754e11"><g class="clips" /><clipPath id="legend754e11"><rect width="297" height="33" x="0" y="0" /></clipPath></defs><g class="layer-above"><g class="imagelayer" /><g class="shapelayer" /></g><g class="infolayer"><g class="legend" pointer-events="all" transform="translate(80,12.199999999999996)"><rect class="bg" shape-rendering="crispEdges" style="stroke: rgb(68, 68, 68); stroke-opacity: 1; fill: rgb(255, 255, 255); fill-opacity: 1; stroke-width: 0px;" width="297" height="33" x="0" y="0" /><g class="scrollbox" transform="" clip-path="url(#legend754e11)"><g class="groups"><g class="traces" transform="translate(0,16.25)" style="opacity: 1;"><text class="legendtext" text-anchor="start" x="40" y="5.85" style="font-family: Arial; font-size: 15px; fill: rgb(51, 65, 85); fill-opacity: 1; white-space: pre;">Monthly active %</text><g class="layers"><g class="legendfill"><path class="js-fill" d="M5,-2h30v6h-30z" style="stroke-width: 0; fill: rgb(37, 99, 235); fill-opacity: 0.12;" /></g><g class="legendlines"><path class="js-line" d="M5,-2h30" style="fill: none; stroke: rgb(37, 99, 235); stroke-opacity: 1; stroke-width: 3px;" /></g><g class="legendsymbols"><g class="legendpoints" /></g></g><rect class="legendtoggle" x="0" y="-11.25" width="155.890625" height="22.5" style="fill: rgb(0, 0, 0); fill-opacity: 0;" /></g><g class="traces" transform="translate(158.390625,16.25)" style="opacity: 1;"><text class="legendtext" text-anchor="start" x="40" y="5.85" style="font-family: Arial; font-size: 15px; fill: rgb(51, 65, 85); fill-opacity: 1; white-space: pre;">3M rolling avg</text><g class="layers" style="opacity: 1;"><g class="legendfill" /><g class="legendlines"><path class="js-line" d="M5,0h30" style="fill: none; stroke: rgb(71, 85, 105); stroke-opacity: 1; stroke-dasharray: 9px, 9px; stroke-width: 2px;" /></g><g class="legendsymbols"><g class="legendpoints" /></g></g><rect class="legendtoggle" x="0" y="-11.25" width="135.890625" height="22.5" style="fill: rgb(0, 0, 0); fill-opacity: 0;" /></g></g></g><rect class="scrollbar" rx="20" ry="3" width="0" height="0" style="fill: rgb(128, 139, 164); fill-opacity: 1;" x="0" y="0" /></g><g class="g-gtitle" /><g class="g-xtitle"><text class="xtitle" x="500" y="336.1" text-anchor="middle" style="opacity: 1; font-family: Arial; font-size: 18px; fill: rgb(51, 65, 85); fill-opacity: 1; white-space: pre;">Month</text></g><g class="g-ytitle"><text class="ytitle" transform="rotate(-90,28.168750000000003,170)" x="28.168750000000003" y="170" text-anchor="middle" style="opacity: 1; font-family: Arial; font-size: 18px; fill: rgb(51, 65, 85); fill-opacity: 1; white-space: pre;">Active Users (% of base)</text></g><g class="annotation" data-index="0" style="opacity: 1;"><g class="annotation-text-g" transform="rotate(0,793.5,16.30000000000002)"><g class="cursor-pointer" transform="translate(667,7)"><rect class="bg" x="0.5" y="0.5" width="252" height="18" style="stroke-width: 1px; stroke: rgb(0, 0, 0); stroke-opacity: 0; fill: rgb(0, 0, 0); fill-opacity: 0;" /><text class="annotation-text" text-anchor="middle" x="126.6171875" y="14" style="font-family: Arial; font-size: 13px; fill: rgb(51, 65, 85); fill-opacity: 1; white-space: pre;">Trend delta: +7.91 pp (2024-01 to 2025-09)</text></g></g></g></g></g></svg>