<svg xmlns="http://www.w3.org/2000/svg" class="main-svg" width="1250" height="650" style="" viewBox="0 0 1250 650"><defs id="defs-a233df"><g class="clips"><clipPath id="clipa233dfxyplot" class="plotclip"><rect width="496.76" height="536" /></clipPath><clipPath id="clipa233dfx2y2plot" class="plotclip"><rect width="496.75999999999993" height="536" /></clipPath><clipPath class="axesclip" id="clipa233dfx"><rect x="86" y="0" width="496.76" height="650" /></clipPath><clipPath class="axesclip" id="clipa233dfy"><rect x="0" y="24" width="1250" height="536" /></clipPath><clipPath class="axesclip" id="clipa233dfxy"><rect x="86" y="24" width="496.76" height="536" /></clipPath><clipPath class="axesclip" id="clipa233dfy2"><rect x="0" y="24" width="1250" height="536" /></clipPath><clipPath class="axesclip" id="clipa233dfxy2"><rect x="86" y="24" width="496.76" height="536" /></clipPath><clipPath class="axesclip" id="clipa233dfx2"><rect x="718.24" y="0" width="496.75999999999993" height="650" /></clipPath><clipPath class="axesclip" id="clipa233dfx2y"><rect x="718.24" y="24" width="496.75999999999993" height="536" /></clipPath><clipPath class="axesclip" id="clipa233dfx2y2"><rect x="718.24" y="24" width="496.75999999999993" height="536" /></clipPath></g><g class="gradients" /><g class="patterns" /><clipPath id="rounded-canvas-clip"><rect x="0" y="0" width="1250" height="650" rx="24" ry="24" /></clipPath></defs><g clip-path="url(#rounded-canvas-clip)"><rect x="0" y="0" width="1250" height="650" style="fill: rgb(255, 255, 255); fill-opacity: 1;" fill="rgb(255, 255, 255)" fill-opacity="1" rx="24" ry="24" /><g class="bglayer" /><g class="layer-below"><g class="imagelayer" /><g class="shapelayer" /></g><g class="cartesianlayer"><g class="subplot xy"><g class="layer-subplot"><g class="shapelayer" /><g class="imagelayer" /></g><g class="minor-gridlayer"><g class="x" /><g class="y" /></g><g class="gridlayer"><g class="x"><path class="xgrid crisp" transform="translate(203.66,0)" d="M0,24v536" style="stroke: rgb(226, 232, 240); stroke-opacity: 1; stroke-width: 1px;" /><path class="xgrid crisp" transform="translate(293.65999999999997,0)" d="M0,24v536" style="stroke: rgb(226, 232, 240); stroke-opacity: 1; stroke-width: 1px;" /><path class="xgrid crisp" transform="translate(383.65,0)" d="M0,24v536" style="stroke: rgb(226, 232, 240); stroke-opacity: 1; stroke-width: 1px;" /><path class="xgrid crisp" transform="translate(473.65,0)" d="M0,24v536" style="stroke: rgb(226, 232, 240); stroke-opacity: 1; stroke-width: 1px;" /><path class="xgrid crisp" transform="translate(563.65,0)" d="M0,24v536" style="stroke: rgb(226, 232, 240); stroke-opacity: 1; stroke-width: 1px;" /></g><g class="y"><path class="ygrid crisp" transform="translate(0,503.4)" d="M86,0h496.76" style="stroke: rgb(226, 232, 240); stroke-opacity: 1; stroke-width: 1px;" /><path class="ygrid crisp" transform="translate(0,443.13)" d="M86,0h496.76" style="stroke: rgb(226, 232, 240); stroke-opacity: 1; stroke-width: 1px;" /><path class="ygrid crisp" transform="translate(0,382.87)" d="M86,0h496.76" style="stroke: rgb(226, 232, 240); stroke-opacity: 1; stroke-width: 1px;" /><path class="ygrid crisp" transform="translate(0,322.61)" d="M86,0h496.76" style="stroke: rgb(226, 232, 240); stroke-opacity: 1; stroke-width: 1px;" /><path class="ygrid crisp" transform="translate(0,262.35)" d="M86,0h496.76" style="stroke: rgb(226, 232, 240); stroke-opacity: 1; stroke-width: 1px;" /><path class="ygrid crisp" transform="translate(0,202.09)" d="M86,0h496.76" style="stroke: rgb(226, 232, 240); stroke-opacity: 1; stroke-width: 1px;" /><path class="ygrid crisp" transform="translate(0,141.82999999999998)" d="M86,0h496.76" style="stroke: rgb(226, 232, 240); stroke-opacity: 1; stroke-width: 1px;" /><path class="ygrid crisp" transform="translate(0,81.57)" d="M86,0h496.76" style="stroke: rgb(226, 232, 240); stroke-opacity: 1; stroke-width: 1px;" /></g></g><g class="zerolinelayer"><path class="xzl zl crisp" transform="translate(113.66,0)" d="M0,24v536" style="stroke: rgb(235, 240, 248); stroke-opacity: 1; stroke-width: 2px;" /></g><g class="layer-between"><g class="shapelayer" /><g class="imagelayer" /></g><path class="xlines-below" /><path class="ylines-below" /><g class="overlines-below" /><g class="xaxislayer-below" /><g class="yaxislayer-below" /><g class="overaxes-below" /><g class="overplot"><g class="xy" transform="translate(86,24)" clip-path="url(#clipa233dfxyplot)"><g class="scatterlayer mlayer"><g class="trace scatter tracebe286a" style="stroke-miterlimit: 2; opacity: 1;"><g class="fills" /><g class="errorbars" /><g class="lines" /><g class="points"><path class="point plotly-customdata" transform="translate(96.96,379.84)" d="M5.5,0A5.5,5.5 0 1,1 0,-5.5A5.5,5.5 0 0,1 5.5,0Z" style="opacity: 0.9; stroke-width: 1px; fill: rgb(37, 99, 235); fill-opacity: 1; stroke: rgb(255, 255, 255); stroke-opacity: 1;" /><path class="point plotly-customdata" transform="translate(56.46,363.03)" d="M5.5,0A5.5,5.5 0 1,1 0,-5.5A5.5,5.5 0 0,1 5.5,0Z" style="opacity: 0.9; stroke-width: 1px; fill: rgb(37, 99, 235); fill-opacity: 1; stroke: rgb(255, 255, 255); stroke-opacity: 1;" /><path class="point plotly-customdata" transform="translate(155.46,502.32)" d="M5.5,0A5.5,5.5 0 1,1 0,-5.5A5.5,5.5 0 0,1 5.5,0Z" style="opacity: 0.9; stroke-width: 1px; fill: rgb(37, 99, 235); fill-opacity: 1; stroke: rgb(255, 255, 255); stroke-opacity: 1;" /><path class="point plotly-customdata" transform="translate(380,460.35)" d="M5.5,0A5.5,5.5 0 1,1 0,-5.5A5.5,5.5 0 0,1 5.5,0Z" style="opacity: 0.9; stroke-width: 1px; fill: rgb(37, 99, 235); fill-opacity: 1; stroke: rgb(255, 255, 255); stroke-opacity: 1;" /><path class="point plotly-customdata" transform="translate(192.81,33.67)" d="M5.5,0A5.5,5.5 0 1,1 0,-5.5A5.5,5.5 0 0,1 5.5,0Z" style="opacity: 0.9; stroke-width: 1px; fill: rgb(37, 99, 235); fill-opacity: 1; stroke: rgb(255, 255, 255); stroke-opacity: 1;" /><path class="point plotly-customdata" transform="translate(76.26,206.87)" d="M5.5,0A5.5,5.5 0 1,1 0,-5.5A5.5,5.5 0 0,1 5.5,0Z" style="opacity: 0.9; stroke-width: 1px; fill: rgb(37, 99, 235); fill-opacity: 1; stroke: rgb(255, 255, 255); stroke-opacity: 1;" /><path class="point plotly-customdata" transform="translate(264.35,295.9)" d="M5.5,0A5.5,5.5 0 1,1 0,-5.5A5.5,5.5 0 0,1 5.5,0Z" style="opacity: 0.9; stroke-width: 1px; fill: rgb(37, 99, 235); fill-opacity: 1; stroke: rgb(255, 255, 255); stroke-opacity: 1;" /><path class="point plotly-customdata" transform="translate(75.36,245.61)" d="M5.5,0A5.5,5.5 0 1,1 0,-5.5A5.5,5.5 0 0,1 5.5,0Z" style="opacity: 0.9; stroke-width: 1px; fill: rgb(37, 99, 235); fill-opacity: 1; stroke: rgb(255, 255, 255); stroke-opacity: 1;" /><path class="point plotly-customdata" transform="translate(465.05,130.51)" d="M5.5,0A5.5,5.5 0 1,1 0,-5.5A5.5,5.5 0 0,1 5.5,0Z" style="opacity: 0.9; stroke-width: 1px; fill: rgb(37, 99, 235); fill-opacity: 1; stroke: rgb(255, 255, 255); stroke-opacity: 1;" /><path class="point plotly-customdata" transform="translate(83.91,120.3)" d="M5.5,0A5.5,5.5 0 1,1 0,-5.5A5.5,5.5 0 0,1 5.5,0Z" style="opacity: 0.9; stroke-width: 1px; fill: rgb(37, 99, 235); fill-opacity: 1; stroke: rgb(255, 255, 255); stroke-opacity: 1;" /><path class="point plotly-customdata" transform="translate(43.86,373.97)" d="M5.5,0A5.5,5.5 0 1,1 0,-5.5A5.5,5.5 0 0,1 5.5,0Z" style="opacity: 0.9; stroke-width: 1px; fill: rgb(37, 99, 235); fill-opacity: 1; stroke: rgb(255, 255, 255); stroke-opacity: 1;" /><path class="point plotly-customdata" transform="translate(189.21,198.82)" d="M5.5,0A5.5,5.5 0 1,1 0,-5.5A5.5,5.5 0 0,1 5.5,0Z" style="opacity: 0.9; stroke-width: 1px; fill: rgb(37, 99, 235); fill-opacity: 1; stroke: rgb(255, 255, 255); stroke-opacity: 1;" /><path class="point plotly-customdata" transform="translate(276.5,398.83)" d="M5.5,0A5.5,5.5 0 1,1 0,-5.5A5.5,5.5 0 0,1 5.5,0Z" style="opacity: 0.9; stroke-width: 1px; fill: rgb(37, 99, 235); fill-opacity: 1; stroke: rgb(255, 255, 255); stroke-opacity: 1;" /><path class="point plotly-customdata" transform="translate(106.41,404.25)" d="M5.5,0A5.5,5.5 0 1,1 0,-5.5A5.5,5.5 0 0,1 5.5,0Z" style="opacity: 0.9; stroke-width: 1px; fill: rgb(37, 99, 235); fill-opacity: 1; stroke: rgb(255, 255, 255); stroke-opacity: 1;" /><path class="point plotly-customdata" transform="translate(328.7,486.18)" d="M5.5,0A5.5,5.5 0 1,1 0,-5.5A5.5,5.5 0 0,1 5.5,0Z" style="opacity: 0.9; stroke-width: 1px; fill: rgb(37, 99, 235); fill-opacity: 1; stroke: rgb(255, 255, 255); stroke-opacity: 1;" /><path class="point plotly-customdata" transform="translate(164.01,133.2)" d="M5.5,0A5.5,5.5 0 1,1 0,-5.5A5.5,5.5 0 0,1 5.5,0Z" style="opacity: 0.9; stroke-width: 1px; fill: rgb(37, 99, 235); fill-opacity: 1; stroke: rgb(255, 255, 255); stroke-opacity: 1;" /><path class="point plotly-customdata" transform="translate(61.86,66.7)" d="M5.5,0A5.5,5.5 0 1,1 0,-5.5A5.5,5.5 0 0,1 5.5,0Z" style="opacity: 0.9; stroke-width: 1px; fill: rgb(37, 99, 235); fill-opacity: 1; stroke: rgb(255, 255, 255); stroke-opacity: 1;" /><path class="point plotly-customdata" transform="translate(64.56,115.78)" d="M5.5,0A5.5,5.5 0 1,1 0,-5.5A5.5,5.5 0 0,1 5.5,0Z" style="opacity: 0.9; stroke-width: 1px; fill: rgb(37, 99, 235); fill-opacity: 1; stroke: rgb(255, 255, 255); stroke-opacity: 1;" /><path class="point plotly-customdata" transform="translate(31.71,168.45)" d="M5.5,0A5.5,5.5 0 1,1 0,-5.5A5.5,5.5 0 0,1 5.5,0Z" style="opacity: 0.9; stroke-width: 1px; fill: rgb(37, 99, 235); fill-opacity: 1; stroke: rgb(255, 255, 255); stroke-opacity: 1;" /><path class="point plotly-customdata" transform="translate(218.91,166.76)" d="M5.5,0A5.5,5.5 0 1,1 0,-5.5A5.5,5.5 0 0,1 5.5,0Z" style="opacity: 0.9; stroke-width: 1px; fill: rgb(37, 99, 235); fill-opacity: 1; stroke: rgb(255, 255, 255); stroke-opacity: 1;" /></g><g class="text"><g class="textpoint" transform="translate(0,-11.625)"><text x="380" y="460.35" text-anchor="middle" style="font-family: Arial; font-size: 15px; fill: rgb(51, 65, 85); fill-opacity: 1; white-space: pre;">CAMPANIA</text></g><g class="textpoint" transform="translate(0,-11.625)"><text x="264.35" y="295.9" text-anchor="middle" style="font-family: Arial; font-size: 15px; fill: rgb(51, 65, 85); fill-opacity: 1; white-space: pre;">LAZIO</text></g><g class="textpoint" transform="translate(0,-11.625)"><text x="465.05" y="130.51" text-anchor="middle" style="font-family: Arial; font-size: 15px; fill: rgb(51, 65, 85); fill-opacity: 1; white-space: pre;">LOMBARDIA</text></g><g class="textpoint" transform="translate(0,-11.625)"><text x="276.5" y="398.83" text-anchor="middle" style="font-family: Arial; font-size: 15px; fill: rgb(51, 65, 85); fill-opacity: 1; white-space: pre;">PUGLIA</text></g><g class="textpoint" transform="translate(0,-11.625)"><text x="328.7" y="486.18" text-anchor="middle" style="font-family: Arial; font-size: 15px; fill: rgb(51, 65, 85); fill-opacity: 1; white-space: pre;">SICILIA</text></g></g></g><g class="trace scatter tracec83540" style="stroke-miterlimit: 2; opacity: 1;"><g class="fills" /><g class="errorbars" /><g class="lines"><path class="js-line" d="M31.71,230.59L465.05,333.3" style="vector-effect: none; fill: none; stroke: rgb(29, 78, 216); stroke-opacity: 1; stroke-dasharray: 9px, 9px; stroke-width: 2.5px; opacity: 1;" /></g><g class="points" /><g class="text" /></g></g></g></g><g class="zerolinelayer-above" /><path class="xlines-above crisp" d="M0,0" style="fill: none;" /><path class="ylines-above crisp" d="M0,0" style="fill: none;" /><g class="overlines-above" /><g class="xaxislayer-above"><g class="xtick"><text text-anchor="middle" x="0" y="576" transform="translate(113.66,0)" style="font-family: Arial; font-size: 15px; fill: rgb(51, 65, 85); fill-opacity: 1; white-space: pre;">0</text></g><g class="xtick"><text text-anchor="middle" x="0" y="576" style="font-family: Arial; font-size: 15px; fill: rgb(51, 65, 85); fill-opacity: 1; white-space: pre;" transform="translate(203.66,0)">200</text></g><g class="xtick"><text text-anchor="middle" x="0" y="576" style="font-family: Arial; font-size: 15px; fill: rgb(51, 65, 85); fill-opacity: 1; white-space: pre;" transform="translate(293.65999999999997,0)">400</text></g><g class="xtick"><text text-anchor="middle" x="0" y="576" style="font-family: Arial; font-size: 15px; fill: rgb(51, 65, 85); fill-opacity: 1; white-space: pre;" transform="translate(383.65,0)">600</text></g><g class="xtick"><text text-anchor="middle" x="0" y="576" style="font-family: Arial; font-size: 15px; fill: rgb(51, 65, 85); fill-opacity: 1; white-space: pre;" transform="translate(473.65,0)">800</text></g><g class="xtick"><text text-anchor="middle" x="0" y="576" style="font-family: Arial; font-size: 15px; fill: rgb(51, 65, 85); fill-opacity: 1; white-space: pre;" transform="translate(563.65,0)">1,000</text></g></g><g class="yaxislayer-above"><g class="ytick"><text text-anchor="end" x="85" y="5.25" transform="translate(0,503.4)" style="font-family: Arial; font-size: 15px; fill: rgb(51, 65, 85); fill-opacity: 1; white-space: pre;">28,000</text></g><g class="ytick"><text text-anchor="end" x="85" y="5.25" style="font-family: Arial; font-size: 15px; fill: rgb(51, 65, 85); fill-opacity: 1; white-space: pre;" transform="translate(0,443.13)">30,000</text></g><g class="ytick"><text text-anchor="end" x="85" y="5.25" style="font-family: Arial; font-size: 15px; fill: rgb(51, 65, 85); fill-opacity: 1; white-space: pre;" transform="translate(0,382.87)">32,000</text></g><g class="ytick"><text text-anchor="end" x="85" y="5.25" style="font-family: Arial; font-size: 15px; fill: rgb(51, 65, 85); fill-opacity: 1; white-space: pre;" transform="translate(0,322.61)">34,000</text></g><g class="ytick"><text text-anchor="end" x="85" y="5.25" style="font-family: Arial; font-size: 15px; fill: rgb(51, 65, 85); fill-opacity: 1; white-space: pre;" transform="translate(0,262.35)">36,000</text></g><g class="ytick"><text text-anchor="end" x="85" y="5.25" style="font-family: Arial; font-size: 15px; fill: rgb(51, 65, 85); fill-opacity: 1; white-space: pre;" transform="translate(0,202.09)">38,000</text></g><g class="ytick"><text text-anchor="end" x="85" y="5.25" style="font-family: Arial; font-size: 15px; fill: rgb(51, 65, 85); fill-opacity: 1; white-space: pre;" transform="translate(0,141.82999999999998)">40,000</text></g><g class="ytick"><text text-anchor="end" x="85" y="5.25" style="font-family: Arial; font-size: 15px; fill: rgb(51, 65, 85); fill-opacity: 1; white-space: pre;" transform="translate(0,81.57)">42,000</text></g></g><g class="overaxes-above" /></g><g class="subplot x2y2"><g class="layer-subplot"><g class="shapelayer" /><g class="imagelayer" /></g><g class="minor-gridlayer"><g class="x2" /><g class="y2" /></g><g class="gridlayer"><g class="x2"><path class="x2grid crisp" transform="translate(835.9,0)" d="M0,24v536" style="stroke: rgb(226, 232, 240); stroke-opacity: 1; stroke-width: 1px;" /><path class="x2grid crisp" transform="translate(925.9,0)" d="M0,24v536" style="stroke: rgb(226, 232, 240); stroke-opacity: 1; stroke-width: 1px;" /><path class="x2grid crisp" transform="translate(1015.89,0)" d="M0,24v536" style="stroke: rgb(226, 232, 240); stroke-opacity: 1; stroke-width: 1px;" /><path class="x2grid crisp" transform="translate(1105.8899999999999,0)" d="M0,24v536" style="stroke: rgb(226, 232, 240); stroke-opacity: 1; stroke-width: 1px;" /><path class="x2grid crisp" transform="translate(1195.8899999999999,0)" d="M0,24v536" style="stroke: rgb(226, 232, 240); stroke-opacity: 1; stroke-width: 1px;" /></g><g class="y2"><path class="y2grid crisp" transform="translate(0,500.29)" d="M718.24,0h496.75999999999993" style="stroke: rgb(226, 232, 240); stroke-opacity: 1; stroke-width: 1px;" /><path class="y2grid crisp" transform="translate(0,413.5)" d="M718.24,0h496.75999999999993" style="stroke: rgb(226, 232, 240); stroke-opacity: 1; stroke-width: 1px;" /><path class="y2grid crisp" transform="translate(0,326.71)" d="M718.24,0h496.75999999999993" style="stroke: rgb(226, 232, 240); stroke-opacity: 1; stroke-width: 1px;" /><path class="y2grid crisp" transform="translate(0,239.93)" d="M718.24,0h496.75999999999993" style="stroke: rgb(226, 232, 240); stroke-opacity: 1; stroke-width: 1px;" /><path class="y2grid crisp" transform="translate(0,153.14)" d="M718.24,0h496.75999999999993" style="stroke: rgb(226, 232, 240); stroke-opacity: 1; stroke-width: 1px;" /><path class="y2grid crisp" transform="translate(0,66.35)" d="M718.24,0h496.75999999999993" style="stroke: rgb(226, 232, 240); stroke-opacity: 1; stroke-width: 1px;" /></g></g><g class="zerolinelayer"><path class="x2zl zl crisp" transform="translate(745.9,0)" d="M0,24v536" style="stroke: rgb(235, 240, 248); stroke-opacity: 1; stroke-width: 2px;" /></g><g class="layer-between"><g class="shapelayer" /><g class="imagelayer" /></g><path class="xlines-below" /><path class="ylines-below" /><g class="overlines-below" /><g class="xaxislayer-below" /><g class="yaxislayer-below" /><g class="overaxes-below" /><g class="overplot"><g class="x2y2" transform="translate(718.24,24)" clip-path="url(#clipa233dfx2y2plot)"><g class="scatterlayer mlayer"><g class="trace scatter trace7ff16b" style="stroke-miterlimit: 2; opacity: 1;"><g class="fills" /><g class="errorbars" /><g class="lines" /><g class="points"><path class="point plotly-customdata" transform="translate(96.96,215.93)" d="M5.5,0A5.5,5.5 0 1,1 0,-5.5A5.5,5.5 0 0,1 5.5,0Z" style="opacity: 0.9; stroke-width: 1px; fill: rgb(234, 88, 12); fill-opacity: 1; stroke: rgb(255, 255, 255); stroke-opacity: 1;" /><path class="point plotly-customdata" transform="translate(56.46,77.07)" d="M5.5,0A5.5,5.5 0 1,1 0,-5.5A5.5,5.5 0 0,1 5.5,0Z" style="opacity: 0.9; stroke-width: 1px; fill: rgb(234, 88, 12); fill-opacity: 1; stroke: rgb(255, 255, 255); stroke-opacity: 1;" /><path class="point plotly-customdata" transform="translate(155.46,189.89)" d="M5.5,0A5.5,5.5 0 1,1 0,-5.5A5.5,5.5 0 0,1 5.5,0Z" style="opacity: 0.9; stroke-width: 1px; fill: rgb(234, 88, 12); fill-opacity: 1; stroke: rgb(255, 255, 255); stroke-opacity: 1;" /><path class="point plotly-customdata" transform="translate(380,33.67)" d="M5.5,0A5.5,5.5 0 1,1 0,-5.5A5.5,5.5 0 0,1 5.5,0Z" style="opacity: 0.9; stroke-width: 1px; fill: rgb(234, 88, 12); fill-opacity: 1; stroke: rgb(255, 255, 255); stroke-opacity: 1;" /><path class="point plotly-customdata" transform="translate(192.81,363.47)" d="M5.5,0A5.5,5.5 0 1,1 0,-5.5A5.5,5.5 0 0,1 5.5,0Z" style="opacity: 0.9; stroke-width: 1px; fill: rgb(234, 88, 12); fill-opacity: 1; stroke: rgb(255, 255, 255); stroke-opacity: 1;" /><path class="point plotly-customdata" transform="translate(76.26,502.32)" d="M5.5,0A5.5,5.5 0 1,1 0,-5.5A5.5,5.5 0 0,1 5.5,0Z" style="opacity: 0.9; stroke-width: 1px; fill: rgb(234, 88, 12); fill-opacity: 1; stroke: rgb(255, 255, 255); stroke-opacity: 1;" /><path class="point plotly-customdata" transform="translate(264.35,185.55)" d="M5.5,0A5.5,5.5 0 1,1 0,-5.5A5.5,5.5 0 0,1 5.5,0Z" style="opacity: 0.9; stroke-width: 1px; fill: rgb(234, 88, 12); fill-opacity: 1; stroke: rgb(255, 255, 255); stroke-opacity: 1;" /><path class="point plotly-customdata" transform="translate(75.36,458.93)" d="M5.5,0A5.5,5.5 0 1,1 0,-5.5A5.5,5.5 0 0,1 5.5,0Z" style="opacity: 0.9; stroke-width: 1px; fill: rgb(234, 88, 12); fill-opacity: 1; stroke: rgb(255, 255, 255); stroke-opacity: 1;" /><path class="point plotly-customdata" transform="translate(465.05,241.96)" d="M5.5,0A5.5,5.5 0 1,1 0,-5.5A5.5,5.5 0 0,1 5.5,0Z" style="opacity: 0.9; stroke-width: 1px; fill: rgb(234, 88, 12); fill-opacity: 1; stroke: rgb(255, 255, 255); stroke-opacity: 1;" /><path class="point plotly-customdata" transform="translate(83.91,289.7)" d="M5.5,0A5.5,5.5 0 1,1 0,-5.5A5.5,5.5 0 0,1 5.5,0Z" style="opacity: 0.9; stroke-width: 1px; fill: rgb(234, 88, 12); fill-opacity: 1; stroke: rgb(255, 255, 255); stroke-opacity: 1;" /><path class="point plotly-customdata" transform="translate(43.86,146.5)" d="M5.5,0A5.5,5.5 0 1,1 0,-5.5A5.5,5.5 0 0,1 5.5,0Z" style="opacity: 0.9; stroke-width: 1px; fill: rgb(234, 88, 12); fill-opacity: 1; stroke: rgb(255, 255, 255); stroke-opacity: 1;" /><path class="point plotly-customdata" transform="translate(189.21,359.13)" d="M5.5,0A5.5,5.5 0 1,1 0,-5.5A5.5,5.5 0 0,1 5.5,0Z" style="opacity: 0.9; stroke-width: 1px; fill: rgb(234, 88, 12); fill-opacity: 1; stroke: rgb(255, 255, 255); stroke-opacity: 1;" /><path class="point plotly-customdata" transform="translate(276.5,77.07)" d="M5.5,0A5.5,5.5 0 1,1 0,-5.5A5.5,5.5 0 0,1 5.5,0Z" style="opacity: 0.9; stroke-width: 1px; fill: rgb(234, 88, 12); fill-opacity: 1; stroke: rgb(255, 255, 255); stroke-opacity: 1;" /><path class="point plotly-customdata" transform="translate(106.41,281.02)" d="M5.5,0A5.5,5.5 0 1,1 0,-5.5A5.5,5.5 0 0,1 5.5,0Z" style="opacity: 0.9; stroke-width: 1px; fill: rgb(234, 88, 12); fill-opacity: 1; stroke: rgb(255, 255, 255); stroke-opacity: 1;" /><path class="point plotly-customdata" transform="translate(328.7,98.77)" d="M5.5,0A5.5,5.5 0 1,1 0,-5.5A5.5,5.5 0 0,1 5.5,0Z" style="opacity: 0.9; stroke-width: 1px; fill: rgb(234, 88, 12); fill-opacity: 1; stroke: rgb(255, 255, 255); stroke-opacity: 1;" /><path class="point plotly-customdata" transform="translate(164.01,385.16)" d="M5.5,0A5.5,5.5 0 1,1 0,-5.5A5.5,5.5 0 0,1 5.5,0Z" style="opacity: 0.9; stroke-width: 1px; fill: rgb(234, 88, 12); fill-opacity: 1; stroke: rgb(255, 255, 255); stroke-opacity: 1;" /><path class="point plotly-customdata" transform="translate(61.86,81.41)" d="M5.5,0A5.5,5.5 0 1,1 0,-5.5A5.5,5.5 0 0,1 5.5,0Z" style="opacity: 0.9; stroke-width: 1px; fill: rgb(234, 88, 12); fill-opacity: 1; stroke: rgb(255, 255, 255); stroke-opacity: 1;" /><path class="point plotly-customdata" transform="translate(64.56,268)" d="M5.5,0A5.5,5.5 0 1,1 0,-5.5A5.5,5.5 0 0,1 5.5,0Z" style="opacity: 0.9; stroke-width: 1px; fill: rgb(234, 88, 12); fill-opacity: 1; stroke: rgb(255, 255, 255); stroke-opacity: 1;" /><path class="point plotly-customdata" transform="translate(31.71,476.29)" d="M5.5,0A5.5,5.5 0 1,1 0,-5.5A5.5,5.5 0 0,1 5.5,0Z" style="opacity: 0.9; stroke-width: 1px; fill: rgb(234, 88, 12); fill-opacity: 1; stroke: rgb(255, 255, 255); stroke-opacity: 1;" /><path class="point plotly-customdata" transform="translate(218.91,133.48)" d="M5.5,0A5.5,5.5 0 1,1 0,-5.5A5.5,5.5 0 0,1 5.5,0Z" style="opacity: 0.9; stroke-width: 1px; fill: rgb(234, 88, 12); fill-opacity: 1; stroke: rgb(255, 255, 255); stroke-opacity: 1;" /></g><g class="text"><g class="textpoint" transform="translate(0,-11.625)"><text x="380" y="33.67" text-anchor="middle" style="font-family: Arial; font-size: 15px; fill: rgb(51, 65, 85); fill-opacity: 1; white-space: pre;">CAMPANIA</text></g><g class="textpoint" transform="translate(0,-11.625)"><text x="264.35" y="185.55" text-anchor="middle" style="font-family: Arial; font-size: 15px; fill: rgb(51, 65, 85); fill-opacity: 1; white-space: pre;">LAZIO</text></g><g class="textpoint" transform="translate(0,-11.625)"><text x="465.05" y="241.96" text-anchor="middle" style="font-family: Arial; font-size: 15px; fill: rgb(51, 65, 85); fill-opacity: 1; white-space: pre;">LOMBARDIA</text></g><g class="textpoint" transform="translate(0,-11.625)"><text x="276.5" y="77.07" text-anchor="middle" style="font-family: Arial; font-size: 15px; fill: rgb(51, 65, 85); fill-opacity: 1; white-space: pre;">PUGLIA</text></g><g class="textpoint" transform="translate(0,-11.625)"><text x="328.7" y="98.77" text-anchor="middle" style="font-family: Arial; font-size: 15px; fill: rgb(51, 65, 85); fill-opacity: 1; white-space: pre;">SICILIA</text></g></g></g><g class="trace scatter tracead9568" style="stroke-miterlimit: 2; opacity: 1;"><g class="fills" /><g class="errorbars" /><g class="lines"><path class="js-line" d="M31.71,303.02L465.05,111.08" style="vector-effect: none; fill: none; stroke: rgb(194, 65, 12); stroke-opacity: 1; stroke-dasharray: 9px, 9px; stroke-width: 2.5px; opacity: 1;" /></g><g class="points" /><g class="text" /></g></g></g></g><g class="zerolinelayer-above" /><path class="xlines-above crisp" d="M0,0" style="fill: none;" /><path class="ylines-above crisp" d="M0,0" style="fill: none;" /><g class="overlines-above" /><g class="xaxislayer-above"><g class="x2tick"><text text-anchor="middle" x="0" y="576" transform="translate(745.9,0)" style="font-family: Arial; font-size: 15px; fill: rgb(51, 65, 85); fill-opacity: 1; white-space: pre;">0</text></g><g class="x2tick"><text text-anchor="middle" x="0" y="576" style="font-family: Arial; font-size: 15px; fill: rgb(51, 65, 85); fill-opacity: 1; white-space: pre;" transform="translate(835.9,0)">200</text></g><g class="x2tick"><text text-anchor="middle" x="0" y="576" style="font-family: Arial; font-size: 15px; fill: rgb(51, 65, 85); fill-opacity: 1; white-space: pre;" transform="translate(925.9,0)">400</text></g><g class="x2tick"><text text-anchor="middle" x="0" y="576" style="font-family: Arial; font-size: 15px; fill: rgb(51, 65, 85); fill-opacity: 1; white-space: pre;" transform="translate(1015.89,0)">600</text></g><g class="x2tick"><text text-anchor="middle" x="0" y="576" style="font-family: Arial; font-size: 15px; fill: rgb(51, 65, 85); fill-opacity: 1; white-space: pre;" transform="translate(1105.8899999999999,0)">800</text></g><g class="x2tick"><text text-anchor="middle" x="0" y="576" style="font-family: Arial; font-size: 15px; fill: rgb(51, 65, 85); fill-opacity: 1; white-space: pre;" transform="translate(1195.8899999999999,0)">1,000</text></g></g><g class="yaxislayer-above"><g class="y2tick"><text text-anchor="end" x="717.24" y="5.25" transform="translate(0,500.29)" style="font-family: Arial; font-size: 15px; fill: rgb(51, 65, 85); fill-opacity: 1; white-space: pre;">42</text></g><g class="y2tick"><text text-anchor="end" x="717.24" y="5.25" style="font-family: Arial; font-size: 15px; fill: rgb(51, 65, 85); fill-opacity: 1; white-space: pre;" transform="translate(0,413.5)">44</text></g><g class="y2tick"><text text-anchor="end" x="717.24" y="5.25" style="font-family: Arial; font-size: 15px; fill: rgb(51, 65, 85); fill-opacity: 1; white-space: pre;" transform="translate(0,326.71)">46</text></g><g class="y2tick"><text text-anchor="end" x="717.24" y="5.25" style="font-family: Arial; font-size: 15px; fill: rgb(51, 65, 85); fill-opacity: 1; white-space: pre;" transform="translate(0,239.93)">48</text></g><g class="y2tick"><text text-anchor="end" x="717.24" y="5.25" style="font-family: Arial; font-size: 15px; fill: rgb(51, 65, 85); fill-opacity: 1; white-space: pre;" transform="translate(0,153.14)">50</text></g><g class="y2tick"><text text-anchor="end" x="717.24" y="5.25" style="font-family: Arial; font-size: 15px; fill: rgb(51, 65, 85); fill-opacity: 1; white-space: pre;" transform="translate(0,66.35)">52</text></g></g><g class="overaxes-above" /></g></g><g class="polarlayer" /><g class="smithlayer" /><g class="ternarylayer" /><g class="geolayer" /><g class="funnelarealayer" /><g class="pielayer" /><g class="iciclelayer" /><g class="treemaplayer" /><g class="sunburstlayer" /><g class="glimages" /><defs id="topdefs-a233df"><g class="clips" /></defs><g class="layer-above"><g class="imagelayer" /><g class="shapelayer" /></g><g class="infolayer"><g class="g-gtitle" /><g class="g-xtitle"><text class="xtitle" x="334.38" y="606.1" text-anchor="middle" style="opacity: 1; font-family: Arial; font-size: 18px; fill: rgb(51, 65, 85); fill-opacity: 1; white-space: pre;">Users</text></g><g class="g-x2title"><text class="x2title" x="966.62" y="606.1" text-anchor="middle" style="opacity: 1; font-family: Arial; font-size: 18px; fill: rgb(51, 65, 85); fill-opacity: 1; white-space: pre;">Users</text></g><g class="g-ytitle"><text class="ytitle" transform="rotate(-90,18.309375000000003,292)" x="18.309375000000003" y="292" text-anchor="middle" style="opacity: 1; font-family: Arial; font-size: 18px; fill: rgb(51, 65, 85); fill-opacity: 1; white-space: pre;">Regional Median Income (EUR)</text></g><g class="g-y2title"><text class="y2title" transform="rotate(-90,679.752734375,292)" x="679.752734375" y="292" text-anchor="middle" style="opacity: 1; font-family: Arial; font-size: 18px; fill: rgb(51, 65, 85); fill-opacity: 1; white-space: pre;">Couples with Children Index (per 100 Family Nuclei)</text></g><g class="annotation" data-index="0" style="opacity: 1;"><g class="annotation-text-g" transform="rotate(0,334.38,13.499999999999991)"><g class="cursor-pointer" transform="translate(177,3)"><rect class="bg" x="0.5" y="0.5" width="313" height="20" style="stroke-width: 1px; stroke: rgb(0, 0, 0); stroke-opacity: 0; fill: rgb(0, 0, 0); fill-opacity: 0;" /><text class="annotation-text" text-anchor="middle" x="156.953125" y="16" style="font-family: Arial; font-size: 16px; fill: rgb(51, 65, 85); fill-opacity: 1; white-space: pre;">Users vs Regional Median Income (r=-0.20)</text></g></g></g><g class="annotation" data-index="1" style="opacity: 1;"><g class="annotation-text-g" transform="rotate(0,966.62,13.49999999999999)"><g class="cursor-pointer" transform="translate(800,3)"><rect class="bg" x="0.5" y="0.5" width="332" height="20" style="stroke-width: 1px; stroke: rgb(0, 0, 0); stroke-opacity: 0; fill: rgb(0, 0, 0); fill-opacity: 0;" /><text class="annotation-text" text-anchor="middle" x="166.2890625" y="16" style="font-family: Arial; font-size: 16px; fill: rgb(51, 65, 85); fill-opacity: 1; white-space: pre;">Users vs Couples-with-Children Index (r=0.38)</text></g></g></g></g></g></svg>