<svg xmlns="http://www.w3.org/2000/svg" class="main-svg" width="1150" height="750" style="" viewBox="0 0 1150 750"><defs id="defs-70be37"><g class="clips"><clipPath id="clip70be37xyplot" class="plotclip"><rect width="830.9599999999999" height="309.69" /></clipPath><clipPath id="clip70be37xy2plot" class="plotclip"><rect width="830.9599999999999" height="309.69" /></clipPath><clipPath id="clip70be37x2y3plot" class="plotclip"><rect width="830.9599999999999" height="309.69" /></clipPath><clipPath id="clip70be37x2y4plot" class="plotclip"><rect width="830.9599999999999" height="309.69" /></clipPath><clipPath class="axesclip" id="clip70be37x"><rect x="80" y="0" width="830.9599999999999" height="750" /></clipPath><clipPath class="axesclip" id="clip70be37y"><rect x="0" y="24.000000000000075" width="1150" height="309.69" /></clipPath><clipPath class="axesclip" id="clip70be37xy"><rect x="80" y="24.000000000000075" width="830.9599999999999" height="309.69" /></clipPath><clipPath class="axesclip" id="clip70be37y2"><rect x="0" y="24.000000000000075" width="1150" height="309.69" /></clipPath><clipPath class="axesclip" id="clip70be37xy2"><rect x="80" y="24.000000000000075" width="830.9599999999999" height="309.69" /></clipPath><clipPath class="axesclip" id="clip70be37y3"><rect x="0" y="380.31" width="1150" height="309.69" /></clipPath><clipPath class="axesclip" id="clip70be37xy3"><rect x="80" y="380.31" width="830.9599999999999" height="309.69" /></clipPath><clipPath class="axesclip" id="clip70be37y4"><rect x="0" y="380.31" width="1150" height="309.69" /></clipPath><clipPath class="axesclip" id="clip70be37xy4"><rect x="80" y="380.31" width="830.9599999999999" height="309.69" /></clipPath><clipPath class="axesclip" id="clip70be37x2"><rect x="80" y="0" width="830.9599999999999" height="750" /></clipPath><clipPath class="axesclip" id="clip70be37x2y"><rect x="80" y="24.000000000000075" width="830.9599999999999" height="309.69" /></clipPath><clipPath class="axesclip" id="clip70be37x2y2"><rect x="80" y="24.000000000000075" width="830.9599999999999" height="309.69" /></clipPath><clipPath class="axesclip" id="clip70be37x2y3"><rect x="80" y="380.31" width="830.9599999999999" height="309.69" /></clipPath><clipPath class="axesclip" id="clip70be37x2y4"><rect x="80" y="380.31" width="830.9599999999999" height="309.69" /></clipPath></g><g class="gradients" /><g class="patterns" /><clipPath id="rounded-canvas-clip"><rect x="0" y="0" width="1150" height="750" rx="24" ry="24" /></clipPath></defs><g clip-path="url(#rounded-canvas-clip)"><rect x="0" y="0" width="1150" height="750" style="fill: rgb(255, 255, 255); fill-opacity: 1;" fill="rgb(255, 255, 255)" fill-opacity="1" rx="24" ry="24" /><g class="bglayer" /><g class="layer-below"><g class="imagelayer" /><g class="shapelayer" /></g><g class="cartesianlayer"><g class="subplot xy"><g class="layer-subplot"><g class="shapelayer" /><g class="imagelayer" /></g><g class="minor-gridlayer"><g class="x" /><g class="y" /><g class="y2" /></g><g class="gridlayer"><g class="x"><path class="xgrid crisp" transform="translate(171.45,0)" d="M0,24.000000000000075v309.69" style="stroke: rgb(226, 232, 240); stroke-opacity: 1; stroke-width: 1px;" /><path class="xgrid crisp" transform="translate(264.03,0)" d="M0,24.000000000000075v309.69" style="stroke: rgb(226, 232, 240); stroke-opacity: 1; stroke-width: 1px;" /><path class="xgrid crisp" transform="translate(358.13,0)" d="M0,24.000000000000075v309.69" style="stroke: rgb(226, 232, 240); stroke-opacity: 1; stroke-width: 1px;" /><path class="xgrid crisp" transform="translate(450.71,0)" d="M0,24.000000000000075v309.69" style="stroke: rgb(226, 232, 240); stroke-opacity: 1; stroke-width: 1px;" /><path class="xgrid crisp" transform="translate(543.29,0)" d="M0,24.000000000000075v309.69" style="stroke: rgb(226, 232, 240); stroke-opacity: 1; stroke-width: 1px;" /><path class="xgrid crisp" transform="translate(632.83,0)" d="M0,24.000000000000075v309.69" style="stroke: rgb(226, 232, 240); stroke-opacity: 1; stroke-width: 1px;" /><path class="xgrid crisp" transform="translate(725.41,0)" d="M0,24.000000000000075v309.69" style="stroke: rgb(226, 232, 240); stroke-opacity: 1; stroke-width: 1px;" /><path class="xgrid crisp" transform="translate(817.99,0)" d="M0,24.000000000000075v309.69" style="stroke: rgb(226, 232, 240); stroke-opacity: 1; stroke-width: 1px;" /></g><g class="y"><path class="ygrid crisp" transform="translate(0,268.89000000000004)" d="M80,0h830.9599999999999" style="stroke: rgb(15, 23, 42); stroke-opacity: 0.08; stroke-width: 1px;" /><path class="ygrid crisp" transform="translate(0,204.0800000000001)" d="M80,0h830.9599999999999" style="stroke: rgb(15, 23, 42); stroke-opacity: 0.08; stroke-width: 1px;" /><path class="ygrid crisp" transform="translate(0,139.2800000000001)" d="M80,0h830.9599999999999" style="stroke: rgb(15, 23, 42); stroke-opacity: 0.08; stroke-width: 1px;" /><path class="ygrid crisp" transform="translate(0,74.48000000000008)" d="M80,0h830.9599999999999" style="stroke: rgb(15, 23, 42); stroke-opacity: 0.08; stroke-width: 1px;" /></g><g class="y2"><path class="y2grid crisp" transform="translate(0,264.87000000000006)" d="M80,0h830.9599999999999" style="stroke: rgb(15, 23, 42); stroke-opacity: 0; stroke-width: 1px;" /><path class="y2grid crisp" transform="translate(0,196.0500000000001)" d="M80,0h830.9599999999999" style="stroke: rgb(15, 23, 42); stroke-opacity: 0; stroke-width: 1px;" /><path class="y2grid crisp" transform="translate(0,127.23000000000008)" d="M80,0h830.9599999999999" style="stroke: rgb(15, 23, 42); stroke-opacity: 0; stroke-width: 1px;" /><path class="y2grid crisp" transform="translate(0,58.41000000000007)" d="M80,0h830.9599999999999" style="stroke: rgb(15, 23, 42); stroke-opacity: 0; stroke-width: 1px;" /></g></g><g class="zerolinelayer"><path class="yzl zl crisp" transform="translate(0,333.69000000000005)" d="M80,0h830.9599999999999" style="stroke: rgb(235, 240, 248); stroke-opacity: 1; stroke-width: 2px;" /><path class="y2zl zl crisp" transform="translate(0,333.69000000000005)" d="M80,0h830.9599999999999" style="stroke: rgb(235, 240, 248); stroke-opacity: 1; stroke-width: 2px;" /></g><g class="layer-between"><g class="shapelayer" /><g class="imagelayer" /></g><path class="xlines-below" /><path class="ylines-below" /><g class="overlines-below"><path class="xy2-x" /><path class="xy2-y" /></g><g class="xaxislayer-below" /><g class="yaxislayer-below" /><g class="overaxes-below"><g class="xy2-x" /><g class="xy2-y" /></g><g class="overplot"><g class="xy" transform="translate(80,24.000000000000075)" clip-path="url(#clip70be37xyplot)"><g class="barlayer mlayer"><g class="trace bars" style="opacity: 1;"><g class="points"><g class="point"><path d="M28.92,309.69V15.48H62.92V309.69Z" style="vector-effect: none; opacity: 0.28; stroke-width: 0.5px; fill: rgb(99, 110, 250); fill-opacity: 1; stroke: rgb(255, 255, 255); stroke-opacity: 1;" /></g><g class="point"><path d="M74.46,309.69V109.45H108.45V309.69Z" style="vector-effect: none; opacity: 0.28; stroke-width: 0.5px; fill: rgb(99, 110, 250); fill-opacity: 1; stroke: rgb(255, 255, 255); stroke-opacity: 1;" /></g><g class="point"><path d="M121.5,309.69V98.43H155.5V309.69Z" style="vector-effect: none; opacity: 0.28; stroke-width: 0.5px; fill: rgb(99, 110, 250); fill-opacity: 1; stroke: rgb(255, 255, 255); stroke-opacity: 1;" /></g><g class="point"><path d="M167.03,309.69V125H201.03V309.69Z" style="vector-effect: none; opacity: 0.28; stroke-width: 0.5px; fill: rgb(99, 110, 250); fill-opacity: 1; stroke: rgb(255, 255, 255); stroke-opacity: 1;" /></g><g class="point"><path d="M214.08,309.69V55.01H248.08V309.69Z" style="vector-effect: none; opacity: 0.28; stroke-width: 0.5px; fill: rgb(99, 110, 250); fill-opacity: 1; stroke: rgb(255, 255, 255); stroke-opacity: 1;" /></g><g class="point"><path d="M261.13,309.69V88.06H295.13V309.69Z" style="vector-effect: none; opacity: 0.28; stroke-width: 0.5px; fill: rgb(99, 110, 250); fill-opacity: 1; stroke: rgb(255, 255, 255); stroke-opacity: 1;" /></g><g class="point"><path d="M306.66,309.69V130.83H340.66V309.69Z" style="vector-effect: none; opacity: 0.28; stroke-width: 0.5px; fill: rgb(99, 110, 250); fill-opacity: 1; stroke: rgb(255, 255, 255); stroke-opacity: 1;" /></g><g class="point"><path d="M353.71,309.69V77.05H387.71V309.69Z" style="vector-effect: none; opacity: 0.28; stroke-width: 0.5px; fill: rgb(99, 110, 250); fill-opacity: 1; stroke: rgb(255, 255, 255); stroke-opacity: 1;" /></g><g class="point"><path d="M399.24,309.69V135.37H433.24V309.69Z" style="vector-effect: none; opacity: 0.28; stroke-width: 0.5px; fill: rgb(99, 110, 250); fill-opacity: 1; stroke: rgb(255, 255, 255); stroke-opacity: 1;" /></g><g class="point"><path d="M446.29,309.69V44H480.29V309.69Z" style="vector-effect: none; opacity: 0.28; stroke-width: 0.5px; fill: rgb(99, 110, 250); fill-opacity: 1; stroke: rgb(255, 255, 255); stroke-opacity: 1;" /></g><g class="point"><path d="M493.34,309.69V136.02H527.33V309.69Z" style="vector-effect: none; opacity: 0.28; stroke-width: 0.5px; fill: rgb(99, 110, 250); fill-opacity: 1; stroke: rgb(255, 255, 255); stroke-opacity: 1;" /></g><g class="point"><path d="M535.83,309.69V49.18H569.83V309.69Z" style="vector-effect: none; opacity: 0.28; stroke-width: 0.5px; fill: rgb(99, 110, 250); fill-opacity: 1; stroke: rgb(255, 255, 255); stroke-opacity: 1;" /></g><g class="point"><path d="M582.88,309.69V22.61H616.88V309.69Z" style="vector-effect: none; opacity: 0.28; stroke-width: 0.5px; fill: rgb(99, 110, 250); fill-opacity: 1; stroke: rgb(255, 255, 255); stroke-opacity: 1;" /></g><g class="point"><path d="M628.41,309.69V98.43H662.41V309.69Z" style="vector-effect: none; opacity: 0.28; stroke-width: 0.5px; fill: rgb(99, 110, 250); fill-opacity: 1; stroke: rgb(255, 255, 255); stroke-opacity: 1;" /></g><g class="point"><path d="M675.46,309.69V142.5H709.46V309.69Z" style="vector-effect: none; opacity: 0.28; stroke-width: 0.5px; fill: rgb(99, 110, 250); fill-opacity: 1; stroke: rgb(255, 255, 255); stroke-opacity: 1;" /></g><g class="point"><path d="M720.99,309.69V64.09H754.99V309.69Z" style="vector-effect: none; opacity: 0.28; stroke-width: 0.5px; fill: rgb(99, 110, 250); fill-opacity: 1; stroke: rgb(255, 255, 255); stroke-opacity: 1;" /></g><g class="point"><path d="M768.04,309.69V123.06H802.04V309.69Z" style="vector-effect: none; opacity: 0.28; stroke-width: 0.5px; fill: rgb(99, 110, 250); fill-opacity: 1; stroke: rgb(255, 255, 255); stroke-opacity: 1;" /></g></g></g></g></g><g class="xy2" transform="translate(80,24.000000000000075)" clip-path="url(#clip70be37xy2plot)"><g class="scatterlayer mlayer"><g class="trace scatter trace0803b3" style="stroke-miterlimit: 2; opacity: 1;"><g class="fills" /><g class="errorbars" /><g class="lines"><path class="js-line" d="M45.92,72.47L91.45,72.5L138.5,102.82L184.03,69.44L231.08,78.52L278.13,118.51L323.66,86.51L370.71,129.48L416.24,80.73L463.29,114.14L510.34,95.28L552.83,61.46L599.88,65.79L645.41,109.15L692.46,49.62L737.99,84.51L785.04,85.06" style="vector-effect: none; fill: none; stroke: rgb(99, 110, 250); stroke-opacity: 1; stroke-width: 2.4px; opacity: 1;" /></g><g class="points"><path class="point" transform="translate(45.92,72.47)" d="M3.5,0A3.5,3.5 0 1,1 0,-3.5A3.5,3.5 0 0,1 3.5,0Z" style="opacity: 1; stroke-width: 1px; fill: rgb(99, 110, 250); fill-opacity: 1; stroke: rgb(255, 255, 255); stroke-opacity: 1;" /><path class="point" transform="translate(91.45,72.5)" d="M3.5,0A3.5,3.5 0 1,1 0,-3.5A3.5,3.5 0 0,1 3.5,0Z" style="opacity: 1; stroke-width: 1px; fill: rgb(99, 110, 250); fill-opacity: 1; stroke: rgb(255, 255, 255); stroke-opacity: 1;" /><path class="point" transform="translate(138.5,102.82)" d="M3.5,0A3.5,3.5 0 1,1 0,-3.5A3.5,3.5 0 0,1 3.5,0Z" style="opacity: 1; stroke-width: 1px; fill: rgb(99, 110, 250); fill-opacity: 1; stroke: rgb(255, 255, 255); stroke-opacity: 1;" /><path class="point" transform="translate(184.03,69.44)" d="M3.5,0A3.5,3.5 0 1,1 0,-3.5A3.5,3.5 0 0,1 3.5,0Z" style="opacity: 1; stroke-width: 1px; fill: rgb(99, 110, 250); fill-opacity: 1; stroke: rgb(255, 255, 255); stroke-opacity: 1;" /><path class="point" transform="translate(231.08,78.52)" d="M3.5,0A3.5,3.5 0 1,1 0,-3.5A3.5,3.5 0 0,1 3.5,0Z" style="opacity: 1; stroke-width: 1px; fill: rgb(99, 110, 250); fill-opacity: 1; stroke: rgb(255, 255, 255); stroke-opacity: 1;" /><path class="point" transform="translate(278.13,118.51)" d="M3.5,0A3.5,3.5 0 1,1 0,-3.5A3.5,3.5 0 0,1 3.5,0Z" style="opacity: 1; stroke-width: 1px; fill: rgb(99, 110, 250); fill-opacity: 1; stroke: rgb(255, 255, 255); stroke-opacity: 1;" /><path class="point" transform="translate(323.66,86.51)" d="M3.5,0A3.5,3.5 0 1,1 0,-3.5A3.5,3.5 0 0,1 3.5,0Z" style="opacity: 1; stroke-width: 1px; fill: rgb(99, 110, 250); fill-opacity: 1; stroke: rgb(255, 255, 255); stroke-opacity: 1;" /><path class="point" transform="translate(370.71,129.48)" d="M3.5,0A3.5,3.5 0 1,1 0,-3.5A3.5,3.5 0 0,1 3.5,0Z" style="opacity: 1; stroke-width: 1px; fill: rgb(99, 110, 250); fill-opacity: 1; stroke: rgb(255, 255, 255); stroke-opacity: 1;" /><path class="point" transform="translate(416.24,80.73)" d="M3.5,0A3.5,3.5 0 1,1 0,-3.5A3.5,3.5 0 0,1 3.5,0Z" style="opacity: 1; stroke-width: 1px; fill: rgb(99, 110, 250); fill-opacity: 1; stroke: rgb(255, 255, 255); stroke-opacity: 1;" /><path class="point" transform="translate(463.29,114.14)" d="M3.5,0A3.5,3.5 0 1,1 0,-3.5A3.5,3.5 0 0,1 3.5,0Z" style="opacity: 1; stroke-width: 1px; fill: rgb(99, 110, 250); fill-opacity: 1; stroke: rgb(255, 255, 255); stroke-opacity: 1;" /><path class="point" transform="translate(510.34,95.28)" d="M3.5,0A3.5,3.5 0 1,1 0,-3.5A3.5,3.5 0 0,1 3.5,0Z" style="opacity: 1; stroke-width: 1px; fill: rgb(99, 110, 250); fill-opacity: 1; stroke: rgb(255, 255, 255); stroke-opacity: 1;" /><path class="point" transform="translate(552.83,61.46)" d="M3.5,0A3.5,3.5 0 1,1 0,-3.5A3.5,3.5 0 0,1 3.5,0Z" style="opacity: 1; stroke-width: 1px; fill: rgb(99, 110, 250); fill-opacity: 1; stroke: rgb(255, 255, 255); stroke-opacity: 1;" /><path class="point" transform="translate(599.88,65.79)" d="M3.5,0A3.5,3.5 0 1,1 0,-3.5A3.5,3.5 0 0,1 3.5,0Z" style="opacity: 1; stroke-width: 1px; fill: rgb(99, 110, 250); fill-opacity: 1; stroke: rgb(255, 255, 255); stroke-opacity: 1;" /><path class="point" transform="translate(645.41,109.15)" d="M3.5,0A3.5,3.5 0 1,1 0,-3.5A3.5,3.5 0 0,1 3.5,0Z" style="opacity: 1; stroke-width: 1px; fill: rgb(99, 110, 250); fill-opacity: 1; stroke: rgb(255, 255, 255); stroke-opacity: 1;" /><path class="point" transform="translate(692.46,49.62)" d="M3.5,0A3.5,3.5 0 1,1 0,-3.5A3.5,3.5 0 0,1 3.5,0Z" style="opacity: 1; stroke-width: 1px; fill: rgb(99, 110, 250); fill-opacity: 1; stroke: rgb(255, 255, 255); stroke-opacity: 1;" /><path class="point" transform="translate(737.99,84.51)" d="M3.5,0A3.5,3.5 0 1,1 0,-3.5A3.5,3.5 0 0,1 3.5,0Z" style="opacity: 1; stroke-width: 1px; fill: rgb(99, 110, 250); fill-opacity: 1; stroke: rgb(255, 255, 255); stroke-opacity: 1;" /><path class="point" transform="translate(785.04,85.06)" d="M3.5,0A3.5,3.5 0 1,1 0,-3.5A3.5,3.5 0 0,1 3.5,0Z" style="opacity: 1; stroke-width: 1px; fill: rgb(99, 110, 250); fill-opacity: 1; stroke: rgb(255, 255, 255); stroke-opacity: 1;" /></g><g class="text" /></g></g></g></g><g class="zerolinelayer-above" /><path class="xlines-above crisp" d="M0,0" style="fill: none;" /><path class="ylines-above crisp" d="M0,0" style="fill: none;" /><g class="overlines-above"><path class="xy2-x crisp" d="M0,0" style="fill: none;" /><path class="xy2-y crisp" d="M0,0" style="fill: none;" /></g><g class="xaxislayer-above" /><g class="yaxislayer-above"><g class="ytick"><text text-anchor="end" x="79" y="5.25" transform="translate(0,333.69000000000005)" style="font-family: Arial; font-size: 15px; fill: rgb(51, 65, 85); fill-opacity: 1; white-space: pre;">0</text></g><g class="ytick"><text text-anchor="end" x="79" y="5.25" style="font-family: Arial; font-size: 15px; fill: rgb(51, 65, 85); fill-opacity: 1; white-space: pre;" transform="translate(0,268.89000000000004)">100</text></g><g class="ytick"><text text-anchor="end" x="79" y="5.25" style="font-family: Arial; font-size: 15px; fill: rgb(51, 65, 85); fill-opacity: 1; white-space: pre;" transform="translate(0,204.0800000000001)">200</text></g><g class="ytick"><text text-anchor="end" x="79" y="5.25" style="font-family: Arial; font-size: 15px; fill: rgb(51, 65, 85); fill-opacity: 1; white-space: pre;" transform="translate(0,139.2800000000001)">300</text></g><g class="ytick"><text text-anchor="end" x="79" y="5.25" style="font-family: Arial; font-size: 15px; fill: rgb(51, 65, 85); fill-opacity: 1; white-space: pre;" transform="translate(0,74.48000000000008)">400</text></g></g><g class="overaxes-above"><g class="xy2-x" /><g class="xy2-y"><g class="y2tick"><text text-anchor="start" x="911.9599999999999" y="5.25" transform="translate(0,333.69000000000005)" style="font-family: Arial; font-size: 15px; fill: rgb(51, 65, 85); fill-opacity: 1; white-space: pre;">0%</text></g><g class="y2tick"><text text-anchor="start" x="911.9599999999999" y="5.25" style="font-family: Arial; font-size: 15px; fill: rgb(51, 65, 85); fill-opacity: 1; white-space: pre;" transform="translate(0,264.87000000000006)">20%</text></g><g class="y2tick"><text text-anchor="start" x="911.9599999999999" y="5.25" style="font-family: Arial; font-size: 15px; fill: rgb(51, 65, 85); fill-opacity: 1; white-space: pre;" transform="translate(0,196.0500000000001)">40%</text></g><g class="y2tick"><text text-anchor="start" x="911.9599999999999" y="5.25" style="font-family: Arial; font-size: 15px; fill: rgb(51, 65, 85); fill-opacity: 1; white-space: pre;" transform="translate(0,127.23000000000008)">60%</text></g><g class="y2tick"><text text-anchor="start" x="911.9599999999999" y="5.25" style="font-family: Arial; font-size: 15px; fill: rgb(51, 65, 85); fill-opacity: 1; white-space: pre;" transform="translate(0,58.41000000000007)">80%</text></g></g></g></g><g class="subplot x2y3"><g class="layer-subplot"><g class="shapelayer" /><g class="imagelayer" /></g><g class="minor-gridlayer"><g class="x2" /><g class="y3" /><g class="y4" /></g><g class="gridlayer"><g class="x2"><path class="x2grid crisp" transform="translate(171.45,0)" d="M0,380.31v309.69" style="stroke: rgb(226, 232, 240); stroke-opacity: 1; stroke-width: 1px;" /><path class="x2grid crisp" transform="translate(264.03,0)" d="M0,380.31v309.69" style="stroke: rgb(226, 232, 240); stroke-opacity: 1; stroke-width: 1px;" /><path class="x2grid crisp" transform="translate(358.13,0)" d="M0,380.31v309.69" style="stroke: rgb(226, 232, 240); stroke-opacity: 1; stroke-width: 1px;" /><path class="x2grid crisp" transform="translate(450.71,0)" d="M0,380.31v309.69" style="stroke: rgb(226, 232, 240); stroke-opacity: 1; stroke-width: 1px;" /><path class="x2grid crisp" transform="translate(543.29,0)" d="M0,380.31v309.69" style="stroke: rgb(226, 232, 240); stroke-opacity: 1; stroke-width: 1px;" /><path class="x2grid crisp" transform="translate(632.83,0)" d="M0,380.31v309.69" style="stroke: rgb(226, 232, 240); stroke-opacity: 1; stroke-width: 1px;" /><path class="x2grid crisp" transform="translate(725.41,0)" d="M0,380.31v309.69" style="stroke: rgb(226, 232, 240); stroke-opacity: 1; stroke-width: 1px;" /><path class="x2grid crisp" transform="translate(817.99,0)" d="M0,380.31v309.69" style="stroke: rgb(226, 232, 240); stroke-opacity: 1; stroke-width: 1px;" /></g><g class="y3"><path class="y3grid crisp" transform="translate(0,631.4200000000001)" d="M80,0h830.9599999999999" style="stroke: rgb(15, 23, 42); stroke-opacity: 0.08; stroke-width: 1px;" /><path class="y3grid crisp" transform="translate(0,572.83)" d="M80,0h830.9599999999999" style="stroke: rgb(15, 23, 42); stroke-opacity: 0.08; stroke-width: 1px;" /><path class="y3grid crisp" transform="translate(0,514.25)" d="M80,0h830.9599999999999" style="stroke: rgb(15, 23, 42); stroke-opacity: 0.08; stroke-width: 1px;" /><path class="y3grid crisp" transform="translate(0,455.67)" d="M80,0h830.9599999999999" style="stroke: rgb(15, 23, 42); stroke-opacity: 0.08; stroke-width: 1px;" /><path class="y3grid crisp" transform="translate(0,397.08)" d="M80,0h830.9599999999999" style="stroke: rgb(15, 23, 42); stroke-opacity: 0.08; stroke-width: 1px;" /></g><g class="y4"><path class="y4grid crisp" transform="translate(0,621.1800000000001)" d="M80,0h830.9599999999999" style="stroke: rgb(15, 23, 42); stroke-opacity: 0; stroke-width: 1px;" /><path class="y4grid crisp" transform="translate(0,552.36)" d="M80,0h830.9599999999999" style="stroke: rgb(15, 23, 42); stroke-opacity: 0; stroke-width: 1px;" /><path class="y4grid crisp" transform="translate(0,483.54)" d="M80,0h830.9599999999999" style="stroke: rgb(15, 23, 42); stroke-opacity: 0; stroke-width: 1px;" /><path class="y4grid crisp" transform="translate(0,414.72)" d="M80,0h830.9599999999999" style="stroke: rgb(15, 23, 42); stroke-opacity: 0; stroke-width: 1px;" /></g></g><g class="zerolinelayer"><path class="y3zl zl crisp" transform="translate(0,690)" d="M80,0h830.9599999999999" style="stroke: rgb(235, 240, 248); stroke-opacity: 1; stroke-width: 2px;" /><path class="y4zl zl crisp" transform="translate(0,690)" d="M80,0h830.9599999999999" style="stroke: rgb(235, 240, 248); stroke-opacity: 1; stroke-width: 2px;" /></g><g class="layer-between"><g class="shapelayer" /><g class="imagelayer" /></g><path class="xlines-below" /><path class="ylines-below" /><g class="overlines-below"><path class="x2y4-x" /><path class="x2y4-y" /></g><g class="xaxislayer-below" /><g class="yaxislayer-below" /><g class="overaxes-below"><g class="x2y4-x" /><g class="x2y4-y" /></g><g class="overplot"><g class="x2y3" transform="translate(80,380.31)" clip-path="url(#clip70be37x2y3plot)"><g class="barlayer mlayer"><g class="trace bars" style="opacity: 1;"><g class="points"><g class="point"><path d="M28.92,309.69V151.05H62.92V309.69Z" style="vector-effect: none; opacity: 0.28; stroke-width: 0.5px; fill: rgb(239, 85, 59); fill-opacity: 1; stroke: rgb(255, 255, 255); stroke-opacity: 1;" /></g><g class="point"><path d="M74.46,309.69V143.08H108.45V309.69Z" style="vector-effect: none; opacity: 0.28; stroke-width: 0.5px; fill: rgb(239, 85, 59); fill-opacity: 1; stroke: rgb(255, 255, 255); stroke-opacity: 1;" /></g><g class="point"><path d="M121.5,309.69V139.1H155.5V309.69Z" style="vector-effect: none; opacity: 0.28; stroke-width: 0.5px; fill: rgb(239, 85, 59); fill-opacity: 1; stroke: rgb(255, 255, 255); stroke-opacity: 1;" /></g><g class="point"><path d="M167.03,309.69V133.12H201.03V309.69Z" style="vector-effect: none; opacity: 0.28; stroke-width: 0.5px; fill: rgb(239, 85, 59); fill-opacity: 1; stroke: rgb(255, 255, 255); stroke-opacity: 1;" /></g><g class="point"><path d="M214.08,309.69V126.44H248.08V309.69Z" style="vector-effect: none; opacity: 0.28; stroke-width: 0.5px; fill: rgb(239, 85, 59); fill-opacity: 1; stroke: rgb(255, 255, 255); stroke-opacity: 1;" /></g><g class="point"><path d="M261.13,309.69V119.88H295.13V309.69Z" style="vector-effect: none; opacity: 0.28; stroke-width: 0.5px; fill: rgb(239, 85, 59); fill-opacity: 1; stroke: rgb(255, 255, 255); stroke-opacity: 1;" /></g><g class="point"><path d="M306.66,309.69V109.57H340.66V309.69Z" style="vector-effect: none; opacity: 0.28; stroke-width: 0.5px; fill: rgb(239, 85, 59); fill-opacity: 1; stroke: rgb(255, 255, 255); stroke-opacity: 1;" /></g><g class="point"><path d="M353.71,309.69V101.6H387.71V309.69Z" style="vector-effect: none; opacity: 0.28; stroke-width: 0.5px; fill: rgb(239, 85, 59); fill-opacity: 1; stroke: rgb(255, 255, 255); stroke-opacity: 1;" /></g><g class="point"><path d="M399.24,309.69V92.58H433.24V309.69Z" style="vector-effect: none; opacity: 0.28; stroke-width: 0.5px; fill: rgb(239, 85, 59); fill-opacity: 1; stroke: rgb(255, 255, 255); stroke-opacity: 1;" /></g><g class="point"><path d="M446.29,309.69V87.54H480.29V309.69Z" style="vector-effect: none; opacity: 0.28; stroke-width: 0.5px; fill: rgb(239, 85, 59); fill-opacity: 1; stroke: rgb(255, 255, 255); stroke-opacity: 1;" /></g><g class="point"><path d="M493.34,309.69V74.77H527.33V309.69Z" style="vector-effect: none; opacity: 0.28; stroke-width: 0.5px; fill: rgb(239, 85, 59); fill-opacity: 1; stroke: rgb(255, 255, 255); stroke-opacity: 1;" /></g><g class="point"><path d="M535.83,309.69V61.77H569.83V309.69Z" style="vector-effect: none; opacity: 0.28; stroke-width: 0.5px; fill: rgb(239, 85, 59); fill-opacity: 1; stroke: rgb(255, 255, 255); stroke-opacity: 1;" /></g><g class="point"><path d="M582.88,309.69V48.17H616.88V309.69Z" style="vector-effect: none; opacity: 0.28; stroke-width: 0.5px; fill: rgb(239, 85, 59); fill-opacity: 1; stroke: rgb(255, 255, 255); stroke-opacity: 1;" /></g><g class="point"><path d="M628.41,309.69V39.03H662.41V309.69Z" style="vector-effect: none; opacity: 0.28; stroke-width: 0.5px; fill: rgb(239, 85, 59); fill-opacity: 1; stroke: rgb(255, 255, 255); stroke-opacity: 1;" /></g><g class="point"><path d="M675.46,309.69V27.32H709.46V309.69Z" style="vector-effect: none; opacity: 0.28; stroke-width: 0.5px; fill: rgb(239, 85, 59); fill-opacity: 1; stroke: rgb(255, 255, 255); stroke-opacity: 1;" /></g><g class="point"><path d="M720.99,309.69V23.45H754.99V309.69Z" style="vector-effect: none; opacity: 0.28; stroke-width: 0.5px; fill: rgb(239, 85, 59); fill-opacity: 1; stroke: rgb(255, 255, 255); stroke-opacity: 1;" /></g><g class="point"><path d="M768.04,309.69V15.48H802.04V309.69Z" style="vector-effect: none; opacity: 0.28; stroke-width: 0.5px; fill: rgb(239, 85, 59); fill-opacity: 1; stroke: rgb(255, 255, 255); stroke-opacity: 1;" /></g></g></g></g></g><g class="x2y4" transform="translate(80,380.31)" clip-path="url(#clip70be37x2y4plot)"><g class="scatterlayer mlayer"><g class="trace scatter trace955b80" style="stroke-miterlimit: 2; opacity: 1;"><g class="fills" /><g class="errorbars" /><g class="lines"><path class="js-line" d="M45.92,308.42L138.5,271.39L184.03,305.6L231.08,300.43L278.13,293.76L323.66,297.2L370.71,289.53L416.24,281.47L463.29,195.72L510.34,274.18L552.83,308.38L599.88,286.12L645.41,304.01L692.46,303.57L737.99,305.32L785.04,300.5" style="vector-effect: none; fill: none; stroke: rgb(239, 85, 59); stroke-opacity: 1; stroke-width: 2.4px; opacity: 1;" /></g><g class="points"><path class="point" transform="translate(45.92,308.42)" d="M3.5,0A3.5,3.5 0 1,1 0,-3.5A3.5,3.5 0 0,1 3.5,0Z" style="opacity: 1; stroke-width: 1px; fill: rgb(239, 85, 59); fill-opacity: 1; stroke: rgb(255, 255, 255); stroke-opacity: 1;" /><path class="point" transform="translate(91.45,290.56)" d="M3.5,0A3.5,3.5 0 1,1 0,-3.5A3.5,3.5 0 0,1 3.5,0Z" style="opacity: 1; stroke-width: 1px; fill: rgb(239, 85, 59); fill-opacity: 1; stroke: rgb(255, 255, 255); stroke-opacity: 1;" /><path class="point" transform="translate(138.5,271.39)" d="M3.5,0A3.5,3.5 0 1,1 0,-3.5A3.5,3.5 0 0,1 3.5,0Z" style="opacity: 1; stroke-width: 1px; fill: rgb(239, 85, 59); fill-opacity: 1; stroke: rgb(255, 255, 255); stroke-opacity: 1;" /><path class="point" transform="translate(184.03,305.6)" d="M3.5,0A3.5,3.5 0 1,1 0,-3.5A3.5,3.5 0 0,1 3.5,0Z" style="opacity: 1; stroke-width: 1px; fill: rgb(239, 85, 59); fill-opacity: 1; stroke: rgb(255, 255, 255); stroke-opacity: 1;" /><path class="point" transform="translate(231.08,300.43)" d="M3.5,0A3.5,3.5 0 1,1 0,-3.5A3.5,3.5 0 0,1 3.5,0Z" style="opacity: 1; stroke-width: 1px; fill: rgb(239, 85, 59); fill-opacity: 1; stroke: rgb(255, 255, 255); stroke-opacity: 1;" /><path class="point" transform="translate(278.13,293.76)" d="M3.5,0A3.5,3.5 0 1,1 0,-3.5A3.5,3.5 0 0,1 3.5,0Z" style="opacity: 1; stroke-width: 1px; fill: rgb(239, 85, 59); fill-opacity: 1; stroke: rgb(255, 255, 255); stroke-opacity: 1;" /><path class="point" transform="translate(323.66,297.2)" d="M3.5,0A3.5,3.5 0 1,1 0,-3.5A3.5,3.5 0 0,1 3.5,0Z" style="opacity: 1; stroke-width: 1px; fill: rgb(239, 85, 59); fill-opacity: 1; stroke: rgb(255, 255, 255); stroke-opacity: 1;" /><path class="point" transform="translate(370.71,289.53)" d="M3.5,0A3.5,3.5 0 1,1 0,-3.5A3.5,3.5 0 0,1 3.5,0Z" style="opacity: 1; stroke-width: 1px; fill: rgb(239, 85, 59); fill-opacity: 1; stroke: rgb(255, 255, 255); stroke-opacity: 1;" /><path class="point" transform="translate(416.24,281.47)" d="M3.5,0A3.5,3.5 0 1,1 0,-3.5A3.5,3.5 0 0,1 3.5,0Z" style="opacity: 1; stroke-width: 1px; fill: rgb(239, 85, 59); fill-opacity: 1; stroke: rgb(255, 255, 255); stroke-opacity: 1;" /><path class="point" transform="translate(463.29,195.72)" d="M3.5,0A3.5,3.5 0 1,1 0,-3.5A3.5,3.5 0 0,1 3.5,0Z" style="opacity: 1; stroke-width: 1px; fill: rgb(239, 85, 59); fill-opacity: 1; stroke: rgb(255, 255, 255); stroke-opacity: 1;" /><path class="point" transform="translate(510.34,274.18)" d="M3.5,0A3.5,3.5 0 1,1 0,-3.5A3.5,3.5 0 0,1 3.5,0Z" style="opacity: 1; stroke-width: 1px; fill: rgb(239, 85, 59); fill-opacity: 1; stroke: rgb(255, 255, 255); stroke-opacity: 1;" /><path class="point" transform="translate(552.83,308.38)" d="M3.5,0A3.5,3.5 0 1,1 0,-3.5A3.5,3.5 0 0,1 3.5,0Z" style="opacity: 1; stroke-width: 1px; fill: rgb(239, 85, 59); fill-opacity: 1; stroke: rgb(255, 255, 255); stroke-opacity: 1;" /><path class="point" transform="translate(599.88,286.12)" d="M3.5,0A3.5,3.5 0 1,1 0,-3.5A3.5,3.5 0 0,1 3.5,0Z" style="opacity: 1; stroke-width: 1px; fill: rgb(239, 85, 59); fill-opacity: 1; stroke: rgb(255, 255, 255); stroke-opacity: 1;" /><path class="point" transform="translate(645.41,304.01)" d="M3.5,0A3.5,3.5 0 1,1 0,-3.5A3.5,3.5 0 0,1 3.5,0Z" style="opacity: 1; stroke-width: 1px; fill: rgb(239, 85, 59); fill-opacity: 1; stroke: rgb(255, 255, 255); stroke-opacity: 1;" /><path class="point" transform="translate(692.46,303.57)" d="M3.5,0A3.5,3.5 0 1,1 0,-3.5A3.5,3.5 0 0,1 3.5,0Z" style="opacity: 1; stroke-width: 1px; fill: rgb(239, 85, 59); fill-opacity: 1; stroke: rgb(255, 255, 255); stroke-opacity: 1;" /><path class="point" transform="translate(737.99,305.32)" d="M3.5,0A3.5,3.5 0 1,1 0,-3.5A3.5,3.5 0 0,1 3.5,0Z" style="opacity: 1; stroke-width: 1px; fill: rgb(239, 85, 59); fill-opacity: 1; stroke: rgb(255, 255, 255); stroke-opacity: 1;" /><path class="point" transform="translate(785.04,300.5)" d="M3.5,0A3.5,3.5 0 1,1 0,-3.5A3.5,3.5 0 0,1 3.5,0Z" style="opacity: 1; stroke-width: 1px; fill: rgb(239, 85, 59); fill-opacity: 1; stroke: rgb(255, 255, 255); stroke-opacity: 1;" /></g><g class="text" /></g></g></g></g><g class="zerolinelayer-above" /><path class="xlines-above crisp" d="M0,0" style="fill: none;" /><path class="ylines-above crisp" d="M0,0" style="fill: none;" /><g class="overlines-above"><path class="x2y4-x crisp" d="M0,0" style="fill: none;" /><path class="x2y4-y crisp" d="M0,0" style="fill: none;" /></g><g class="xaxislayer-above"><g class="x2tick"><text text-anchor="middle" x="0" y="706" transform="translate(171.45,0)" style="font-family: Arial; font-size: 15px; fill: rgb(51, 65, 85); fill-opacity: 1; white-space: pre;">May 2024</text></g><g class="x2tick"><text text-anchor="middle" x="0" y="706" style="font-family: Arial; font-size: 15px; fill: rgb(51, 65, 85); fill-opacity: 1; white-space: pre;" transform="translate(264.03,0)">Jul 2024</text></g><g class="x2tick"><text text-anchor="middle" x="0" y="706" style="font-family: Arial; font-size: 15px; fill: rgb(51, 65, 85); fill-opacity: 1; white-space: pre;" transform="translate(358.13,0)">Sep 2024</text></g><g class="x2tick"><text text-anchor="middle" x="0" y="706" style="font-family: Arial; font-size: 15px; fill: rgb(51, 65, 85); fill-opacity: 1; white-space: pre;" transform="translate(450.71,0)">Nov 2024</text></g><g class="x2tick"><text text-anchor="middle" x="0" y="706" style="font-family: Arial; font-size: 15px; fill: rgb(51, 65, 85); fill-opacity: 1; white-space: pre;" transform="translate(543.29,0)">Jan 2025</text></g><g class="x2tick"><text text-anchor="middle" x="0" y="706" style="font-family: Arial; font-size: 15px; fill: rgb(51, 65, 85); fill-opacity: 1; white-space: pre;" transform="translate(632.83,0)">Mar 2025</text></g><g class="x2tick"><text text-anchor="middle" x="0" y="706" style="font-family: Arial; font-size: 15px; fill: rgb(51, 65, 85); fill-opacity: 1; white-space: pre;" transform="translate(725.41,0)">May 2025</text></g><g class="x2tick"><text text-anchor="middle" x="0" y="706" style="font-family: Arial; font-size: 15px; fill: rgb(51, 65, 85); fill-opacity: 1; white-space: pre;" transform="translate(817.99,0)">Jul 2025</text></g></g><g class="yaxislayer-above"><g class="y3tick"><text text-anchor="end" x="79" y="5.25" transform="translate(0,690)" style="font-family: Arial; font-size: 15px; fill: rgb(51, 65, 85); fill-opacity: 1; white-space: pre;">0</text></g><g class="y3tick"><text text-anchor="end" x="79" y="5.25" style="font-family: Arial; font-size: 15px; fill: rgb(51, 65, 85); fill-opacity: 1; white-space: pre;" transform="translate(0,631.4200000000001)">500</text></g><g class="y3tick"><text text-anchor="end" x="79" y="5.25" style="font-family: Arial; font-size: 15px; fill: rgb(51, 65, 85); fill-opacity: 1; white-space: pre;" transform="translate(0,572.83)">1,000</text></g><g class="y3tick"><text text-anchor="end" x="79" y="5.25" style="font-family: Arial; font-size: 15px; fill: rgb(51, 65, 85); fill-opacity: 1; white-space: pre;" transform="translate(0,514.25)">1,500</text></g><g class="y3tick"><text text-anchor="end" x="79" y="5.25" style="font-family: Arial; font-size: 15px; fill: rgb(51, 65, 85); fill-opacity: 1; white-space: pre;" transform="translate(0,455.67)">2,000</text></g><g class="y3tick"><text text-anchor="end" x="79" y="5.25" style="font-family: Arial; font-size: 15px; fill: rgb(51, 65, 85); fill-opacity: 1; white-space: pre;" transform="translate(0,397.08)">2,500</text></g></g><g class="overaxes-above"><g class="x2y4-x" /><g class="x2y4-y"><g class="y4tick"><text text-anchor="start" x="911.9599999999999" y="5.25" transform="translate(0,690)" style="font-family: Arial; font-size: 15px; fill: rgb(51, 65, 85); fill-opacity: 1; white-space: pre;">0%</text></g><g class="y4tick"><text text-anchor="start" x="911.9599999999999" y="5.25" style="font-family: Arial; font-size: 15px; fill: rgb(51, 65, 85); fill-opacity: 1; white-space: pre;" transform="translate(0,621.1800000000001)">20%</text></g><g class="y4tick"><text text-anchor="start" x="911.9599999999999" y="5.25" style="font-family: Arial; font-size: 15px; fill: rgb(51, 65, 85); fill-opacity: 1; white-space: pre;" transform="translate(0,552.36)">40%</text></g><g class="y4tick"><text text-anchor="start" x="911.9599999999999" y="5.25" style="font-family: Arial; font-size: 15px; fill: rgb(51, 65, 85); fill-opacity: 1; white-space: pre;" transform="translate(0,483.54)">60%</text></g><g class="y4tick"><text text-anchor="start" x="911.9599999999999" y="5.25" style="font-family: Arial; font-size: 15px; fill: rgb(51, 65, 85); fill-opacity: 1; white-space: pre;" transform="translate(0,414.72)">80%</text></g></g></g></g><g class="subplot xy2" /><g class="subplot x2y4" /></g><g class="polarlayer" /><g class="smithlayer" /><g class="ternarylayer" /><g class="geolayer" /><g class="funnelarealayer" /><g class="pielayer" /><g class="iciclelayer" /><g class="treemaplayer" /><g class="sunburstlayer" /><g class="glimages" /><defs id="topdefs-70be37"><g class="clips" /><clipPath id="legend70be37"><rect width="156" height="55" x="0" y="0" /></clipPath></defs><g class="layer-above"><g class="imagelayer" /><g class="shapelayer" /></g><g class="infolayer"><g class="legend" pointer-events="all" transform="translate(981.6800000000001,24)"><rect class="bg" shape-rendering="crispEdges" style="stroke: rgb(68, 68, 68); stroke-opacity: 1; fill: rgb(255, 255, 255); fill-opacity: 1; stroke-width: 0px;" width="156" height="55" x="0" y="0" /><g class="scrollbox" transform="" clip-path="url(#legend70be37)"><g class="groups"><g class="traces" transform="translate(0,16.25)" style="opacity: 1;"><text class="legendtext" text-anchor="start" x="40" y="5.85" style="font-family: Arial; font-size: 15px; fill: rgb(51, 65, 85); fill-opacity: 1; white-space: pre;">Training rows</text><g class="layers" style="opacity: 1;"><g class="legendfill" /><g class="legendlines" /><g class="legendsymbols"><g class="legendpoints"><path class="legendundefined" d="M6,6H-6V-6H6Z" transform="translate(20,0)" style="stroke-width: 0.5px; fill: rgb(99, 110, 250); fill-opacity: 1; stroke: rgb(255, 255, 255); stroke-opacity: 1;" /></g></g></g><rect class="legendtoggle" x="0" y="-11.25" width="150.046875" height="22.5" style="fill: rgb(0, 0, 0); fill-opacity: 0;" /></g><g class="traces" transform="translate(0,38.75)" style="opacity: 1;"><text class="legendtext" text-anchor="start" x="40" y="5.85" style="font-family: Arial; font-size: 15px; fill: rgb(51, 65, 85); fill-opacity: 1; white-space: pre;">Positive rate (%)</text><g class="layers" style="opacity: 1;"><g class="legendfill" /><g class="legendlines"><path class="js-line" d="M5,0h30" style="fill: none; stroke: rgb(99, 110, 250); stroke-opacity: 1; stroke-width: 2.4px;" /></g><g class="legendsymbols"><g class="legendpoints"><path class="scatterpts" transform="translate(20,0)" d="M3.5,0A3.5,3.5 0 1,1 0,-3.5A3.5,3.5 0 0,1 3.5,0Z" style="opacity: 1; stroke-width: 1px; fill: rgb(99, 110, 250); fill-opacity: 1; stroke: rgb(255, 255, 255); stroke-opacity: 1;" /></g></g></g><rect class="legendtoggle" x="0" y="-11.25" width="150.046875" height="22.5" style="fill: rgb(0, 0, 0); fill-opacity: 0;" /></g></g></g><rect class="scrollbar" rx="20" ry="3" width="0" height="0" style="fill: rgb(128, 139, 164); fill-opacity: 1;" x="0" y="0" /></g><g class="g-gtitle" /><g class="g-xtitle" /><g class="g-x2title"><text class="x2title" x="495.47999999999996" y="736.25625" text-anchor="middle" style="opacity: 1; font-family: Arial; font-size: 18px; fill: rgb(51, 65, 85); fill-opacity: 1; white-space: pre;">Reference Date</text></g><g class="g-ytitle"><text class="ytitle" transform="rotate(-90,33.16875,178.84500000000008)" x="33.16875" y="178.84500000000008" text-anchor="middle" style="opacity: 1; font-family: Arial; font-size: 18px; fill: rgb(51, 65, 85); fill-opacity: 1; white-space: pre;">Rows</text></g><g class="g-y2title"><text class="y2title" transform="rotate(-90,969.0912109375,178.84500000000008)" x="969.0912109375" y="178.84500000000008" text-anchor="middle" style="opacity: 1; font-family: Arial; font-size: 18px; fill: rgb(51, 65, 85); fill-opacity: 1; white-space: pre;">Rate (%)</text></g><g class="g-y3title"><text class="y3title" transform="rotate(-90,20.653125000000003,535.155)" x="20.653125000000003" y="535.155" text-anchor="middle" style="opacity: 1; font-family: Arial; font-size: 18px; fill: rgb(51, 65, 85); fill-opacity: 1; white-space: pre;">Rows</text></g><g class="g-y4title"><text class="y4title" transform="rotate(-90,969.0912109375,535.155)" x="969.0912109375" y="535.155" text-anchor="middle" style="opacity: 1; font-family: Arial; font-size: 18px; fill: rgb(51, 65, 85); fill-opacity: 1; white-space: pre;">Rate (%)</text></g><g class="annotation" data-index="0" style="opacity: 1;"><g class="annotation-text-g" transform="rotate(0,495.47999999999996,13.50000000000007)"><g class="cursor-pointer" transform="translate(410,3)"><rect class="bg" x="0.5" y="0.5" width="170" height="20" style="stroke-width: 1px; stroke: rgb(0, 0, 0); stroke-opacity: 0; fill: rgb(0, 0, 0); fill-opacity: 0;" /><text class="annotation-text" text-anchor="middle" x="85.6015625" y="16" style="font-family: Arial; font-size: 16px; fill: rgb(51, 65, 85); fill-opacity: 1; white-space: pre;">Churn (30-60d inactive)</text></g></g></g><g class="annotation" data-index="1" style="opacity: 1;"><g class="annotation-text-g" transform="rotate(0,495.47999999999996,369.81)"><g class="cursor-pointer" transform="translate(425,359)"><rect class="bg" x="0.5" y="0.5" width="140" height="20" style="stroke-width: 1px; stroke: rgb(0, 0, 0); stroke-opacity: 0; fill: rgb(0, 0, 0); fill-opacity: 0;" /><text class="annotation-text" text-anchor="middle" x="70.484375" y="16" style="font-family: Arial; font-size: 16px; fill: rgb(51, 65, 85); fill-opacity: 1; white-space: pre;">Redeem within 30d</text></g></g></g><g class="annotation" data-index="2" style="opacity: 1;"><g class="annotation-text-g" transform="rotate(0,578.29,528.03)"><g class="cursor-pointer" transform="translate(509,519)"><rect class="bg" x="0.5" y="0.5" width="138" height="17" style="stroke-width: 1px; stroke: rgb(0, 0, 0); stroke-opacity: 0; fill: rgb(255, 237, 213); fill-opacity: 0.9;" /><text class="annotation-text" text-anchor="middle" x="69.3828125" y="13" style="font-family: Arial; font-size: 12px; fill: rgb(124, 45, 18); fill-opacity: 1; white-space: pre;">Redemption peak: 33.1%</text></g></g><g class="annotation-arrow-g" style="opacity: 1;"><path d="M572.0920833333333,536.53L543.29,576.03" style="stroke-width: 1px; stroke: rgb(42, 63, 95); stroke-opacity: 1; stroke-dasharray: 0px, 0px, 47.5857px, 48.8857px;" /><path d="M-3.7,-2.5V2.5L1.3,0Z" transform="translate(544.055908203125,574.9796142578125)rotate(126.08651009578625)" style="fill: rgb(42, 63, 95); stroke-width: 0;" /></g></g></g></g></svg>