<svg xmlns="http://www.w3.org/2000/svg" class="main-svg" width="1150" height="550" style="" viewBox="0 0 1150 550"><defs id="defs-a733b2"><g class="clips"><clipPath id="clipa733b2xyplot" class="plotclip"><rect width="830.9599999999999" height="216.69" /></clipPath><clipPath id="clipa733b2xy2plot" class="plotclip"><rect width="830.9599999999999" height="216.69" /></clipPath><clipPath id="clipa733b2x2y3plot" class="plotclip"><rect width="830.9599999999999" height="216.69" /></clipPath><clipPath id="clipa733b2x2y4plot" class="plotclip"><rect width="830.9599999999999" height="216.69" /></clipPath><clipPath class="axesclip" id="clipa733b2x"><rect x="80" y="0" width="830.9599999999999" height="550" /></clipPath><clipPath class="axesclip" id="clipa733b2y"><rect x="0" y="24.000000000000053" width="1150" height="216.69" /></clipPath><clipPath class="axesclip" id="clipa733b2xy"><rect x="80" y="24.000000000000053" width="830.9599999999999" height="216.69" /></clipPath><clipPath class="axesclip" id="clipa733b2y2"><rect x="0" y="24.000000000000053" width="1150" height="216.69" /></clipPath><clipPath class="axesclip" id="clipa733b2xy2"><rect x="80" y="24.000000000000053" width="830.9599999999999" height="216.69" /></clipPath><clipPath class="axesclip" id="clipa733b2y3"><rect x="0" y="273.31" width="1150" height="216.69" /></clipPath><clipPath class="axesclip" id="clipa733b2xy3"><rect x="80" y="273.31" width="830.9599999999999" height="216.69" /></clipPath><clipPath class="axesclip" id="clipa733b2y4"><rect x="0" y="273.31" width="1150" height="216.69" /></clipPath><clipPath class="axesclip" id="clipa733b2xy4"><rect x="80" y="273.31" width="830.9599999999999" height="216.69" /></clipPath><clipPath class="axesclip" id="clipa733b2x2"><rect x="80" y="0" width="830.9599999999999" height="550" /></clipPath><clipPath class="axesclip" id="clipa733b2x2y"><rect x="80" y="24.000000000000053" width="830.9599999999999" height="216.69" /></clipPath><clipPath class="axesclip" id="clipa733b2x2y2"><rect x="80" y="24.000000000000053" width="830.9599999999999" height="216.69" /></clipPath><clipPath class="axesclip" id="clipa733b2x2y3"><rect x="80" y="273.31" width="830.9599999999999" height="216.69" /></clipPath><clipPath class="axesclip" id="clipa733b2x2y4"><rect x="80" y="273.31" width="830.9599999999999" height="216.69" /></clipPath></g><g class="gradients" /><g class="patterns" /><clipPath id="rounded-canvas-clip"><rect x="0" y="0" width="1150" height="550" rx="24" ry="24" /></clipPath></defs><g clip-path="url(#rounded-canvas-clip)"><rect x="0" y="0" width="1150" height="550" style="fill: rgb(255, 255, 255); fill-opacity: 1;" fill="rgb(255, 255, 255)" fill-opacity="1" rx="24" ry="24" /><g class="bglayer" /><g class="layer-below"><g class="imagelayer" /><g class="shapelayer" /></g><g class="cartesianlayer"><g class="subplot xy"><g class="layer-subplot"><g class="shapelayer" /><g class="imagelayer" /></g><g class="minor-gridlayer"><g class="x" /><g class="y" /><g class="y2" /></g><g class="gridlayer"><g class="x"><path class="xgrid crisp" transform="translate(171.45,0)" d="M0,24.000000000000053v216.69" style="stroke: rgb(226, 232, 240); stroke-opacity: 1; stroke-width: 1px;" /><path class="xgrid crisp" transform="translate(264.03,0)" d="M0,24.000000000000053v216.69" style="stroke: rgb(226, 232, 240); stroke-opacity: 1; stroke-width: 1px;" /><path class="xgrid crisp" transform="translate(358.13,0)" d="M0,24.000000000000053v216.69" style="stroke: rgb(226, 232, 240); stroke-opacity: 1; stroke-width: 1px;" /><path class="xgrid crisp" transform="translate(450.71,0)" d="M0,24.000000000000053v216.69" style="stroke: rgb(226, 232, 240); stroke-opacity: 1; stroke-width: 1px;" /><path class="xgrid crisp" transform="translate(543.29,0)" d="M0,24.000000000000053v216.69" style="stroke: rgb(226, 232, 240); stroke-opacity: 1; stroke-width: 1px;" /><path class="xgrid crisp" transform="translate(632.83,0)" d="M0,24.000000000000053v216.69" style="stroke: rgb(226, 232, 240); stroke-opacity: 1; stroke-width: 1px;" /><path class="xgrid crisp" transform="translate(725.41,0)" d="M0,24.000000000000053v216.69" style="stroke: rgb(226, 232, 240); stroke-opacity: 1; stroke-width: 1px;" /><path class="xgrid crisp" transform="translate(817.99,0)" d="M0,24.000000000000053v216.69" style="stroke: rgb(226, 232, 240); stroke-opacity: 1; stroke-width: 1px;" /></g><g class="y"><path class="ygrid crisp" transform="translate(0,195.35000000000005)" d="M80,0h830.9599999999999" style="stroke: rgb(15, 23, 42); stroke-opacity: 0.08; stroke-width: 1px;" /><path class="ygrid crisp" transform="translate(0,150.00000000000006)" d="M80,0h830.9599999999999" style="stroke: rgb(15, 23, 42); stroke-opacity: 0.08; stroke-width: 1px;" /><path class="ygrid crisp" transform="translate(0,104.66000000000005)" d="M80,0h830.9599999999999" style="stroke: rgb(15, 23, 42); stroke-opacity: 0.08; stroke-width: 1px;" /><path class="ygrid crisp" transform="translate(0,59.32000000000005)" d="M80,0h830.9599999999999" style="stroke: rgb(15, 23, 42); stroke-opacity: 0.08; stroke-width: 1px;" /></g><g class="y2"><path class="y2grid crisp" transform="translate(0,192.54000000000005)" d="M80,0h830.9599999999999" style="stroke: rgb(15, 23, 42); stroke-opacity: 0; stroke-width: 1px;" /><path class="y2grid crisp" transform="translate(0,144.38000000000005)" d="M80,0h830.9599999999999" style="stroke: rgb(15, 23, 42); stroke-opacity: 0; stroke-width: 1px;" /><path class="y2grid crisp" transform="translate(0,96.23000000000006)" d="M80,0h830.9599999999999" style="stroke: rgb(15, 23, 42); stroke-opacity: 0; stroke-width: 1px;" /><path class="y2grid crisp" transform="translate(0,48.080000000000055)" d="M80,0h830.9599999999999" style="stroke: rgb(15, 23, 42); stroke-opacity: 0; stroke-width: 1px;" /></g></g><g class="zerolinelayer"><path class="yzl zl crisp" transform="translate(0,240.69000000000005)" d="M80,0h830.9599999999999" style="stroke: rgb(235, 240, 248); stroke-opacity: 1; stroke-width: 2px;" /><path class="y2zl zl crisp" transform="translate(0,240.69000000000005)" d="M80,0h830.9599999999999" style="stroke: rgb(235, 240, 248); stroke-opacity: 1; stroke-width: 2px;" /></g><g class="layer-between"><g class="shapelayer" /><g class="imagelayer" /></g><path class="xlines-below" /><path class="ylines-below" /><g class="overlines-below"><path class="xy2-x" /><path class="xy2-y" /></g><g class="xaxislayer-below" /><g class="yaxislayer-below" /><g class="overaxes-below"><g class="xy2-x" /><g class="xy2-y" /></g><g class="overplot"><g class="xy" transform="translate(80,24.000000000000053)" clip-path="url(#clipa733b2xyplot)"><g class="barlayer mlayer"><g class="trace bars" style="opacity: 1;"><g class="points"><g class="point"><path d="M28.92,216.69V10.83H62.92V216.69Z" style="vector-effect: none; opacity: 0.28; stroke-width: 0.5px; fill: rgb(99, 110, 250); fill-opacity: 1; stroke: rgb(255, 255, 255); stroke-opacity: 1;" /></g><g class="point"><path d="M74.46,216.69V76.58H108.45V216.69Z" style="vector-effect: none; opacity: 0.28; stroke-width: 0.5px; fill: rgb(99, 110, 250); fill-opacity: 1; stroke: rgb(255, 255, 255); stroke-opacity: 1;" /></g><g class="point"><path d="M121.5,216.69V68.87H155.5V216.69Z" style="vector-effect: none; opacity: 0.28; stroke-width: 0.5px; fill: rgb(99, 110, 250); fill-opacity: 1; stroke: rgb(255, 255, 255); stroke-opacity: 1;" /></g><g class="point"><path d="M167.03,216.69V87.46H201.03V216.69Z" style="vector-effect: none; opacity: 0.28; stroke-width: 0.5px; fill: rgb(99, 110, 250); fill-opacity: 1; stroke: rgb(255, 255, 255); stroke-opacity: 1;" /></g><g class="point"><path d="M214.08,216.69V38.49H248.08V216.69Z" style="vector-effect: none; opacity: 0.28; stroke-width: 0.5px; fill: rgb(99, 110, 250); fill-opacity: 1; stroke: rgb(255, 255, 255); stroke-opacity: 1;" /></g><g class="point"><path d="M261.13,216.69V61.62H295.13V216.69Z" style="vector-effect: none; opacity: 0.28; stroke-width: 0.5px; fill: rgb(99, 110, 250); fill-opacity: 1; stroke: rgb(255, 255, 255); stroke-opacity: 1;" /></g><g class="point"><path d="M306.66,216.69V91.54H340.66V216.69Z" style="vector-effect: none; opacity: 0.28; stroke-width: 0.5px; fill: rgb(99, 110, 250); fill-opacity: 1; stroke: rgb(255, 255, 255); stroke-opacity: 1;" /></g><g class="point"><path d="M353.71,216.69V53.91H387.71V216.69Z" style="vector-effect: none; opacity: 0.28; stroke-width: 0.5px; fill: rgb(99, 110, 250); fill-opacity: 1; stroke: rgb(255, 255, 255); stroke-opacity: 1;" /></g><g class="point"><path d="M399.24,216.69V94.72H433.24V216.69Z" style="vector-effect: none; opacity: 0.28; stroke-width: 0.5px; fill: rgb(99, 110, 250); fill-opacity: 1; stroke: rgb(255, 255, 255); stroke-opacity: 1;" /></g><g class="point"><path d="M446.29,216.69V30.79H480.29V216.69Z" style="vector-effect: none; opacity: 0.28; stroke-width: 0.5px; fill: rgb(99, 110, 250); fill-opacity: 1; stroke: rgb(255, 255, 255); stroke-opacity: 1;" /></g><g class="point"><path d="M493.34,216.69V95.17H527.33V216.69Z" style="vector-effect: none; opacity: 0.28; stroke-width: 0.5px; fill: rgb(99, 110, 250); fill-opacity: 1; stroke: rgb(255, 255, 255); stroke-opacity: 1;" /></g><g class="point"><path d="M535.83,216.69V34.41H569.83V216.69Z" style="vector-effect: none; opacity: 0.28; stroke-width: 0.5px; fill: rgb(99, 110, 250); fill-opacity: 1; stroke: rgb(255, 255, 255); stroke-opacity: 1;" /></g><g class="point"><path d="M582.88,216.69V15.82H616.88V216.69Z" style="vector-effect: none; opacity: 0.28; stroke-width: 0.5px; fill: rgb(99, 110, 250); fill-opacity: 1; stroke: rgb(255, 255, 255); stroke-opacity: 1;" /></g><g class="point"><path d="M628.41,216.69V68.87H662.41V216.69Z" style="vector-effect: none; opacity: 0.28; stroke-width: 0.5px; fill: rgb(99, 110, 250); fill-opacity: 1; stroke: rgb(255, 255, 255); stroke-opacity: 1;" /></g><g class="point"><path d="M675.46,216.69V99.71H709.46V216.69Z" style="vector-effect: none; opacity: 0.28; stroke-width: 0.5px; fill: rgb(99, 110, 250); fill-opacity: 1; stroke: rgb(255, 255, 255); stroke-opacity: 1;" /></g><g class="point"><path d="M720.99,216.69V44.84H754.99V216.69Z" style="vector-effect: none; opacity: 0.28; stroke-width: 0.5px; fill: rgb(99, 110, 250); fill-opacity: 1; stroke: rgb(255, 255, 255); stroke-opacity: 1;" /></g><g class="point"><path d="M768.04,216.69V86.1H802.04V216.69Z" style="vector-effect: none; opacity: 0.28; stroke-width: 0.5px; fill: rgb(99, 110, 250); fill-opacity: 1; stroke: rgb(255, 255, 255); stroke-opacity: 1;" /></g></g></g></g></g><g class="xy2" transform="translate(80,24.000000000000053)" clip-path="url(#clipa733b2xy2plot)"><g class="scatterlayer mlayer"><g class="trace scatter trace7a87ed" style="stroke-miterlimit: 2; opacity: 1;"><g class="fills" /><g class="errorbars" /><g class="lines"><path class="js-line" d="M45.92,50.71L91.45,50.73L138.5,71.94L184.03,48.59L231.08,54.94L278.13,82.92L323.66,60.53L370.71,90.6L416.24,56.48L463.29,79.86L510.34,66.67L552.83,43L599.88,46.03L645.41,76.37L692.46,34.72L737.99,59.13L785.04,59.52" style="vector-effect: none; fill: none; stroke: rgb(99, 110, 250); stroke-opacity: 1; stroke-width: 2.4px; opacity: 1;" /></g><g class="points"><path class="point" transform="translate(45.92,50.71)" d="M3.5,0A3.5,3.5 0 1,1 0,-3.5A3.5,3.5 0 0,1 3.5,0Z" style="opacity: 1; stroke-width: 1px; fill: rgb(99, 110, 250); fill-opacity: 1; stroke: rgb(255, 255, 255); stroke-opacity: 1;" /><path class="point" transform="translate(91.45,50.73)" d="M3.5,0A3.5,3.5 0 1,1 0,-3.5A3.5,3.5 0 0,1 3.5,0Z" style="opacity: 1; stroke-width: 1px; fill: rgb(99, 110, 250); fill-opacity: 1; stroke: rgb(255, 255, 255); stroke-opacity: 1;" /><path class="point" transform="translate(138.5,71.94)" d="M3.5,0A3.5,3.5 0 1,1 0,-3.5A3.5,3.5 0 0,1 3.5,0Z" style="opacity: 1; stroke-width: 1px; fill: rgb(99, 110, 250); fill-opacity: 1; stroke: rgb(255, 255, 255); stroke-opacity: 1;" /><path class="point" transform="translate(184.03,48.59)" d="M3.5,0A3.5,3.5 0 1,1 0,-3.5A3.5,3.5 0 0,1 3.5,0Z" style="opacity: 1; stroke-width: 1px; fill: rgb(99, 110, 250); fill-opacity: 1; stroke: rgb(255, 255, 255); stroke-opacity: 1;" /><path class="point" transform="translate(231.08,54.94)" d="M3.5,0A3.5,3.5 0 1,1 0,-3.5A3.5,3.5 0 0,1 3.5,0Z" style="opacity: 1; stroke-width: 1px; fill: rgb(99, 110, 250); fill-opacity: 1; stroke: rgb(255, 255, 255); stroke-opacity: 1;" /><path class="point" transform="translate(278.13,82.92)" d="M3.5,0A3.5,3.5 0 1,1 0,-3.5A3.5,3.5 0 0,1 3.5,0Z" style="opacity: 1; stroke-width: 1px; fill: rgb(99, 110, 250); fill-opacity: 1; stroke: rgb(255, 255, 255); stroke-opacity: 1;" /><path class="point" transform="translate(323.66,60.53)" d="M3.5,0A3.5,3.5 0 1,1 0,-3.5A3.5,3.5 0 0,1 3.5,0Z" style="opacity: 1; stroke-width: 1px; fill: rgb(99, 110, 250); fill-opacity: 1; stroke: rgb(255, 255, 255); stroke-opacity: 1;" /><path class="point" transform="translate(370.71,90.6)" d="M3.5,0A3.5,3.5 0 1,1 0,-3.5A3.5,3.5 0 0,1 3.5,0Z" style="opacity: 1; stroke-width: 1px; fill: rgb(99, 110, 250); fill-opacity: 1; stroke: rgb(255, 255, 255); stroke-opacity: 1;" /><path class="point" transform="translate(416.24,56.48)" d="M3.5,0A3.5,3.5 0 1,1 0,-3.5A3.5,3.5 0 0,1 3.5,0Z" style="opacity: 1; stroke-width: 1px; fill: rgb(99, 110, 250); fill-opacity: 1; stroke: rgb(255, 255, 255); stroke-opacity: 1;" /><path class="point" transform="translate(463.29,79.86)" d="M3.5,0A3.5,3.5 0 1,1 0,-3.5A3.5,3.5 0 0,1 3.5,0Z" style="opacity: 1; stroke-width: 1px; fill: rgb(99, 110, 250); fill-opacity: 1; stroke: rgb(255, 255, 255); stroke-opacity: 1;" /><path class="point" transform="translate(510.34,66.67)" d="M3.5,0A3.5,3.5 0 1,1 0,-3.5A3.5,3.5 0 0,1 3.5,0Z" style="opacity: 1; stroke-width: 1px; fill: rgb(99, 110, 250); fill-opacity: 1; stroke: rgb(255, 255, 255); stroke-opacity: 1;" /><path class="point" transform="translate(552.83,43)" d="M3.5,0A3.5,3.5 0 1,1 0,-3.5A3.5,3.5 0 0,1 3.5,0Z" style="opacity: 1; stroke-width: 1px; fill: rgb(99, 110, 250); fill-opacity: 1; stroke: rgb(255, 255, 255); stroke-opacity: 1;" /><path class="point" transform="translate(599.88,46.03)" d="M3.5,0A3.5,3.5 0 1,1 0,-3.5A3.5,3.5 0 0,1 3.5,0Z" style="opacity: 1; stroke-width: 1px; fill: rgb(99, 110, 250); fill-opacity: 1; stroke: rgb(255, 255, 255); stroke-opacity: 1;" /><path class="point" transform="translate(645.41,76.37)" d="M3.5,0A3.5,3.5 0 1,1 0,-3.5A3.5,3.5 0 0,1 3.5,0Z" style="opacity: 1; stroke-width: 1px; fill: rgb(99, 110, 250); fill-opacity: 1; stroke: rgb(255, 255, 255); stroke-opacity: 1;" /><path class="point" transform="translate(692.46,34.72)" d="M3.5,0A3.5,3.5 0 1,1 0,-3.5A3.5,3.5 0 0,1 3.5,0Z" style="opacity: 1; stroke-width: 1px; fill: rgb(99, 110, 250); fill-opacity: 1; stroke: rgb(255, 255, 255); stroke-opacity: 1;" /><path class="point" transform="translate(737.99,59.13)" d="M3.5,0A3.5,3.5 0 1,1 0,-3.5A3.5,3.5 0 0,1 3.5,0Z" style="opacity: 1; stroke-width: 1px; fill: rgb(99, 110, 250); fill-opacity: 1; stroke: rgb(255, 255, 255); stroke-opacity: 1;" /><path class="point" transform="translate(785.04,59.52)" d="M3.5,0A3.5,3.5 0 1,1 0,-3.5A3.5,3.5 0 0,1 3.5,0Z" style="opacity: 1; stroke-width: 1px; fill: rgb(99, 110, 250); fill-opacity: 1; stroke: rgb(255, 255, 255); stroke-opacity: 1;" /></g><g class="text" /></g></g></g></g><g class="zerolinelayer-above" /><path class="xlines-above crisp" d="M0,0" style="fill: none;" /><path class="ylines-above crisp" d="M0,0" style="fill: none;" /><g class="overlines-above"><path class="xy2-x crisp" d="M0,0" style="fill: none;" /><path class="xy2-y crisp" d="M0,0" style="fill: none;" /></g><g class="xaxislayer-above" /><g class="yaxislayer-above"><g class="ytick"><text text-anchor="end" x="79" y="5.25" transform="translate(0,240.69000000000005)" style="font-family: Arial; font-size: 15px; fill: rgb(51, 65, 85); fill-opacity: 1; white-space: pre;">0</text></g><g class="ytick"><text text-anchor="end" x="79" y="5.25" style="font-family: Arial; font-size: 15px; fill: rgb(51, 65, 85); fill-opacity: 1; white-space: pre;" transform="translate(0,195.35000000000005)">100</text></g><g class="ytick"><text text-anchor="end" x="79" y="5.25" style="font-family: Arial; font-size: 15px; fill: rgb(51, 65, 85); fill-opacity: 1; white-space: pre;" transform="translate(0,150.00000000000006)">200</text></g><g class="ytick"><text text-anchor="end" x="79" y="5.25" style="font-family: Arial; font-size: 15px; fill: rgb(51, 65, 85); fill-opacity: 1; white-space: pre;" transform="translate(0,104.66000000000005)">300</text></g><g class="ytick"><text text-anchor="end" x="79" y="5.25" style="font-family: Arial; font-size: 15px; fill: rgb(51, 65, 85); fill-opacity: 1; white-space: pre;" transform="translate(0,59.32000000000005)">400</text></g></g><g class="overaxes-above"><g class="xy2-x" /><g class="xy2-y"><g class="y2tick"><text text-anchor="start" x="911.9599999999999" y="5.25" transform="translate(0,240.69000000000005)" style="font-family: Arial; font-size: 15px; fill: rgb(51, 65, 85); fill-opacity: 1; white-space: pre;">0%</text></g><g class="y2tick"><text text-anchor="start" x="911.9599999999999" y="5.25" style="font-family: Arial; font-size: 15px; fill: rgb(51, 65, 85); fill-opacity: 1; white-space: pre;" transform="translate(0,192.54000000000005)">20%</text></g><g class="y2tick"><text text-anchor="start" x="911.9599999999999" y="5.25" style="font-family: Arial; font-size: 15px; fill: rgb(51, 65, 85); fill-opacity: 1; white-space: pre;" transform="translate(0,144.38000000000005)">40%</text></g><g class="y2tick"><text text-anchor="start" x="911.9599999999999" y="5.25" style="font-family: Arial; font-size: 15px; fill: rgb(51, 65, 85); fill-opacity: 1; white-space: pre;" transform="translate(0,96.23000000000006)">60%</text></g><g class="y2tick"><text text-anchor="start" x="911.9599999999999" y="5.25" style="font-family: Arial; font-size: 15px; fill: rgb(51, 65, 85); fill-opacity: 1; white-space: pre;" transform="translate(0,48.080000000000055)">80%</text></g></g></g></g><g class="subplot x2y3"><g class="layer-subplot"><g class="shapelayer" /><g class="imagelayer" /></g><g class="minor-gridlayer"><g class="x2" /><g class="y3" /><g class="y4" /></g><g class="gridlayer"><g class="x2"><path class="x2grid crisp" transform="translate(171.45,0)" d="M0,273.31v216.69" style="stroke: rgb(226, 232, 240); stroke-opacity: 1; stroke-width: 1px;" /><path class="x2grid crisp" transform="translate(264.03,0)" d="M0,273.31v216.69" style="stroke: rgb(226, 232, 240); stroke-opacity: 1; stroke-width: 1px;" /><path class="x2grid crisp" transform="translate(358.13,0)" d="M0,273.31v216.69" style="stroke: rgb(226, 232, 240); stroke-opacity: 1; stroke-width: 1px;" /><path class="x2grid crisp" transform="translate(450.71,0)" d="M0,273.31v216.69" style="stroke: rgb(226, 232, 240); stroke-opacity: 1; stroke-width: 1px;" /><path class="x2grid crisp" transform="translate(543.29,0)" d="M0,273.31v216.69" style="stroke: rgb(226, 232, 240); stroke-opacity: 1; stroke-width: 1px;" /><path class="x2grid crisp" transform="translate(632.83,0)" d="M0,273.31v216.69" style="stroke: rgb(226, 232, 240); stroke-opacity: 1; stroke-width: 1px;" /><path class="x2grid crisp" transform="translate(725.41,0)" d="M0,273.31v216.69" style="stroke: rgb(226, 232, 240); stroke-opacity: 1; stroke-width: 1px;" /><path class="x2grid crisp" transform="translate(817.99,0)" d="M0,273.31v216.69" style="stroke: rgb(226, 232, 240); stroke-opacity: 1; stroke-width: 1px;" /></g><g class="y3"><path class="y3grid crisp" transform="translate(0,448.83000000000004)" d="M80,0h830.9599999999999" style="stroke: rgb(15, 23, 42); stroke-opacity: 0.08; stroke-width: 1px;" /><path class="y3grid crisp" transform="translate(0,407.65999999999997)" d="M80,0h830.9599999999999" style="stroke: rgb(15, 23, 42); stroke-opacity: 0.08; stroke-width: 1px;" /><path class="y3grid crisp" transform="translate(0,366.49)" d="M80,0h830.9599999999999" style="stroke: rgb(15, 23, 42); stroke-opacity: 0.08; stroke-width: 1px;" /><path class="y3grid crisp" transform="translate(0,325.32)" d="M80,0h830.9599999999999" style="stroke: rgb(15, 23, 42); stroke-opacity: 0.08; stroke-width: 1px;" /><path class="y3grid crisp" transform="translate(0,284.14)" d="M80,0h830.9599999999999" style="stroke: rgb(15, 23, 42); stroke-opacity: 0.08; stroke-width: 1px;" /></g><g class="y4"><path class="y4grid crisp" transform="translate(0,441.85)" d="M80,0h830.9599999999999" style="stroke: rgb(15, 23, 42); stroke-opacity: 0; stroke-width: 1px;" /><path class="y4grid crisp" transform="translate(0,393.69)" d="M80,0h830.9599999999999" style="stroke: rgb(15, 23, 42); stroke-opacity: 0; stroke-width: 1px;" /><path class="y4grid crisp" transform="translate(0,345.54)" d="M80,0h830.9599999999999" style="stroke: rgb(15, 23, 42); stroke-opacity: 0; stroke-width: 1px;" /><path class="y4grid crisp" transform="translate(0,297.39)" d="M80,0h830.9599999999999" style="stroke: rgb(15, 23, 42); stroke-opacity: 0; stroke-width: 1px;" /></g></g><g class="zerolinelayer"><path class="y3zl zl crisp" transform="translate(0,490)" d="M80,0h830.9599999999999" style="stroke: rgb(235, 240, 248); stroke-opacity: 1; stroke-width: 2px;" /><path class="y4zl zl crisp" transform="translate(0,490)" d="M80,0h830.9599999999999" style="stroke: rgb(235, 240, 248); stroke-opacity: 1; stroke-width: 2px;" /></g><g class="layer-between"><g class="shapelayer" /><g class="imagelayer" /></g><path class="xlines-below" /><path class="ylines-below" /><g class="overlines-below"><path class="x2y4-x" /><path class="x2y4-y" /></g><g class="xaxislayer-below" /><g class="yaxislayer-below" /><g class="overaxes-below"><g class="x2y4-x" /><g class="x2y4-y" /></g><g class="overplot"><g class="x2y3" transform="translate(80,273.31)" clip-path="url(#clipa733b2x2y3plot)"><g class="barlayer mlayer"><g class="trace bars" style="opacity: 1;"><g class="points"><g class="point"><path d="M28.92,216.69V113.68H62.92V216.69Z" style="vector-effect: none; opacity: 0.28; stroke-width: 0.5px; fill: rgb(239, 85, 59); fill-opacity: 1; stroke: rgb(255, 255, 255); stroke-opacity: 1;" /></g><g class="point"><path d="M74.46,216.69V105.12H108.45V216.69Z" style="vector-effect: none; opacity: 0.28; stroke-width: 0.5px; fill: rgb(239, 85, 59); fill-opacity: 1; stroke: rgb(255, 255, 255); stroke-opacity: 1;" /></g><g class="point"><path d="M121.5,216.69V97.46H155.5V216.69Z" style="vector-effect: none; opacity: 0.28; stroke-width: 0.5px; fill: rgb(239, 85, 59); fill-opacity: 1; stroke: rgb(255, 255, 255); stroke-opacity: 1;" /></g><g class="point"><path d="M167.03,216.69V88.69H201.03V216.69Z" style="vector-effect: none; opacity: 0.28; stroke-width: 0.5px; fill: rgb(239, 85, 59); fill-opacity: 1; stroke: rgb(255, 255, 255); stroke-opacity: 1;" /></g><g class="point"><path d="M214.08,216.69V83.21H248.08V216.69Z" style="vector-effect: none; opacity: 0.28; stroke-width: 0.5px; fill: rgb(239, 85, 59); fill-opacity: 1; stroke: rgb(255, 255, 255); stroke-opacity: 1;" /></g><g class="point"><path d="M261.13,216.69V77H295.13V216.69Z" style="vector-effect: none; opacity: 0.28; stroke-width: 0.5px; fill: rgb(239, 85, 59); fill-opacity: 1; stroke: rgb(255, 255, 255); stroke-opacity: 1;" /></g><g class="point"><path d="M306.66,216.69V70H340.66V216.69Z" style="vector-effect: none; opacity: 0.28; stroke-width: 0.5px; fill: rgb(239, 85, 59); fill-opacity: 1; stroke: rgb(255, 255, 255); stroke-opacity: 1;" /></g><g class="point"><path d="M353.71,216.69V64.11H387.71V216.69Z" style="vector-effect: none; opacity: 0.28; stroke-width: 0.5px; fill: rgb(239, 85, 59); fill-opacity: 1; stroke: rgb(255, 255, 255); stroke-opacity: 1;" /></g><g class="point"><path d="M399.24,216.69V57.48H433.24V216.69Z" style="vector-effect: none; opacity: 0.28; stroke-width: 0.5px; fill: rgb(239, 85, 59); fill-opacity: 1; stroke: rgb(255, 255, 255); stroke-opacity: 1;" /></g><g class="point"><path d="M446.29,216.69V53.28H480.29V216.69Z" style="vector-effect: none; opacity: 0.28; stroke-width: 0.5px; fill: rgb(239, 85, 59); fill-opacity: 1; stroke: rgb(255, 255, 255); stroke-opacity: 1;" /></g><g class="point"><path d="M493.34,216.69V45.99H527.33V216.69Z" style="vector-effect: none; opacity: 0.28; stroke-width: 0.5px; fill: rgb(239, 85, 59); fill-opacity: 1; stroke: rgb(255, 255, 255); stroke-opacity: 1;" /></g><g class="point"><path d="M535.83,216.69V40.11H569.83V216.69Z" style="vector-effect: none; opacity: 0.28; stroke-width: 0.5px; fill: rgb(239, 85, 59); fill-opacity: 1; stroke: rgb(255, 255, 255); stroke-opacity: 1;" /></g><g class="point"><path d="M582.88,216.69V34.84H616.88V216.69Z" style="vector-effect: none; opacity: 0.28; stroke-width: 0.5px; fill: rgb(239, 85, 59); fill-opacity: 1; stroke: rgb(255, 255, 255); stroke-opacity: 1;" /></g><g class="point"><path d="M628.41,216.69V29.69H662.41V216.69Z" style="vector-effect: none; opacity: 0.28; stroke-width: 0.5px; fill: rgb(239, 85, 59); fill-opacity: 1; stroke: rgb(255, 255, 255); stroke-opacity: 1;" /></g><g class="point"><path d="M675.46,216.69V22.44H709.46V216.69Z" style="vector-effect: none; opacity: 0.28; stroke-width: 0.5px; fill: rgb(239, 85, 59); fill-opacity: 1; stroke: rgb(255, 255, 255); stroke-opacity: 1;" /></g><g class="point"><path d="M720.99,216.69V16.8H754.99V216.69Z" style="vector-effect: none; opacity: 0.28; stroke-width: 0.5px; fill: rgb(239, 85, 59); fill-opacity: 1; stroke: rgb(255, 255, 255); stroke-opacity: 1;" /></g><g class="point"><path d="M768.04,216.69V10.83H802.04V216.69Z" style="vector-effect: none; opacity: 0.28; stroke-width: 0.5px; fill: rgb(239, 85, 59); fill-opacity: 1; stroke: rgb(255, 255, 255); stroke-opacity: 1;" /></g></g></g></g></g><g class="x2y4" transform="translate(80,273.31)" clip-path="url(#clipa733b2x2y4plot)"><g class="scatterlayer mlayer"><g class="trace scatter trace8c3780" style="stroke-miterlimit: 2; opacity: 1;"><g class="fills" /><g class="errorbars" /><g class="lines"><path class="js-line" d="M45.92,86.29L91.45,92.48L138.5,90.65L184.03,102.23L231.08,106.49L278.13,98.04L323.66,119.66L370.71,107.02L416.24,128.28L463.29,124.67L510.34,129.94L552.83,129.39L599.88,124.89L645.41,118.1L692.46,124.52L737.99,127.92L785.04,128.42" style="vector-effect: none; fill: none; stroke: rgb(239, 85, 59); stroke-opacity: 1; stroke-width: 2.4px; opacity: 1;" /></g><g class="points"><path class="point" transform="translate(45.92,86.29)" d="M3.5,0A3.5,3.5 0 1,1 0,-3.5A3.5,3.5 0 0,1 3.5,0Z" style="opacity: 1; stroke-width: 1px; fill: rgb(239, 85, 59); fill-opacity: 1; stroke: rgb(255, 255, 255); stroke-opacity: 1;" /><path class="point" transform="translate(91.45,92.48)" d="M3.5,0A3.5,3.5 0 1,1 0,-3.5A3.5,3.5 0 0,1 3.5,0Z" style="opacity: 1; stroke-width: 1px; fill: rgb(239, 85, 59); fill-opacity: 1; stroke: rgb(255, 255, 255); stroke-opacity: 1;" /><path class="point" transform="translate(138.5,90.65)" d="M3.5,0A3.5,3.5 0 1,1 0,-3.5A3.5,3.5 0 0,1 3.5,0Z" style="opacity: 1; stroke-width: 1px; fill: rgb(239, 85, 59); fill-opacity: 1; stroke: rgb(255, 255, 255); stroke-opacity: 1;" /><path class="point" transform="translate(184.03,102.23)" d="M3.5,0A3.5,3.5 0 1,1 0,-3.5A3.5,3.5 0 0,1 3.5,0Z" style="opacity: 1; stroke-width: 1px; fill: rgb(239, 85, 59); fill-opacity: 1; stroke: rgb(255, 255, 255); stroke-opacity: 1;" /><path class="point" transform="translate(231.08,106.49)" d="M3.5,0A3.5,3.5 0 1,1 0,-3.5A3.5,3.5 0 0,1 3.5,0Z" style="opacity: 1; stroke-width: 1px; fill: rgb(239, 85, 59); fill-opacity: 1; stroke: rgb(255, 255, 255); stroke-opacity: 1;" /><path class="point" transform="translate(278.13,98.04)" d="M3.5,0A3.5,3.5 0 1,1 0,-3.5A3.5,3.5 0 0,1 3.5,0Z" style="opacity: 1; stroke-width: 1px; fill: rgb(239, 85, 59); fill-opacity: 1; stroke: rgb(255, 255, 255); stroke-opacity: 1;" /><path class="point" transform="translate(323.66,119.66)" d="M3.5,0A3.5,3.5 0 1,1 0,-3.5A3.5,3.5 0 0,1 3.5,0Z" style="opacity: 1; stroke-width: 1px; fill: rgb(239, 85, 59); fill-opacity: 1; stroke: rgb(255, 255, 255); stroke-opacity: 1;" /><path class="point" transform="translate(370.71,107.02)" d="M3.5,0A3.5,3.5 0 1,1 0,-3.5A3.5,3.5 0 0,1 3.5,0Z" style="opacity: 1; stroke-width: 1px; fill: rgb(239, 85, 59); fill-opacity: 1; stroke: rgb(255, 255, 255); stroke-opacity: 1;" /><path class="point" transform="translate(416.24,128.28)" d="M3.5,0A3.5,3.5 0 1,1 0,-3.5A3.5,3.5 0 0,1 3.5,0Z" style="opacity: 1; stroke-width: 1px; fill: rgb(239, 85, 59); fill-opacity: 1; stroke: rgb(255, 255, 255); stroke-opacity: 1;" /><path class="point" transform="translate(463.29,124.67)" d="M3.5,0A3.5,3.5 0 1,1 0,-3.5A3.5,3.5 0 0,1 3.5,0Z" style="opacity: 1; stroke-width: 1px; fill: rgb(239, 85, 59); fill-opacity: 1; stroke: rgb(255, 255, 255); stroke-opacity: 1;" /><path class="point" transform="translate(510.34,129.94)" d="M3.5,0A3.5,3.5 0 1,1 0,-3.5A3.5,3.5 0 0,1 3.5,0Z" style="opacity: 1; stroke-width: 1px; fill: rgb(239, 85, 59); fill-opacity: 1; stroke: rgb(255, 255, 255); stroke-opacity: 1;" /><path class="point" transform="translate(552.83,129.39)" d="M3.5,0A3.5,3.5 0 1,1 0,-3.5A3.5,3.5 0 0,1 3.5,0Z" style="opacity: 1; stroke-width: 1px; fill: rgb(239, 85, 59); fill-opacity: 1; stroke: rgb(255, 255, 255); stroke-opacity: 1;" /><path class="point" transform="translate(599.88,124.89)" d="M3.5,0A3.5,3.5 0 1,1 0,-3.5A3.5,3.5 0 0,1 3.5,0Z" style="opacity: 1; stroke-width: 1px; fill: rgb(239, 85, 59); fill-opacity: 1; stroke: rgb(255, 255, 255); stroke-opacity: 1;" /><path class="point" transform="translate(645.41,118.1)" d="M3.5,0A3.5,3.5 0 1,1 0,-3.5A3.5,3.5 0 0,1 3.5,0Z" style="opacity: 1; stroke-width: 1px; fill: rgb(239, 85, 59); fill-opacity: 1; stroke: rgb(255, 255, 255); stroke-opacity: 1;" /><path class="point" transform="translate(692.46,124.52)" d="M3.5,0A3.5,3.5 0 1,1 0,-3.5A3.5,3.5 0 0,1 3.5,0Z" style="opacity: 1; stroke-width: 1px; fill: rgb(239, 85, 59); fill-opacity: 1; stroke: rgb(255, 255, 255); stroke-opacity: 1;" /><path class="point" transform="translate(737.99,127.92)" d="M3.5,0A3.5,3.5 0 1,1 0,-3.5A3.5,3.5 0 0,1 3.5,0Z" style="opacity: 1; stroke-width: 1px; fill: rgb(239, 85, 59); fill-opacity: 1; stroke: rgb(255, 255, 255); stroke-opacity: 1;" /><path class="point" transform="translate(785.04,128.42)" d="M3.5,0A3.5,3.5 0 1,1 0,-3.5A3.5,3.5 0 0,1 3.5,0Z" style="opacity: 1; stroke-width: 1px; fill: rgb(239, 85, 59); fill-opacity: 1; stroke: rgb(255, 255, 255); stroke-opacity: 1;" /></g><g class="text" /></g></g></g></g><g class="zerolinelayer-above" /><path class="xlines-above crisp" d="M0,0" style="fill: none;" /><path class="ylines-above crisp" d="M0,0" style="fill: none;" /><g class="overlines-above"><path class="x2y4-x crisp" d="M0,0" style="fill: none;" /><path class="x2y4-y crisp" d="M0,0" style="fill: none;" /></g><g class="xaxislayer-above"><g class="x2tick"><text text-anchor="middle" x="0" y="506" transform="translate(171.45,0)" style="font-family: Arial; font-size: 15px; fill: rgb(51, 65, 85); fill-opacity: 1; white-space: pre;">May 2024</text></g><g class="x2tick"><text text-anchor="middle" x="0" y="506" style="font-family: Arial; font-size: 15px; fill: rgb(51, 65, 85); fill-opacity: 1; white-space: pre;" transform="translate(264.03,0)">Jul 2024</text></g><g class="x2tick"><text text-anchor="middle" x="0" y="506" style="font-family: Arial; font-size: 15px; fill: rgb(51, 65, 85); fill-opacity: 1; white-space: pre;" transform="translate(358.13,0)">Sep 2024</text></g><g class="x2tick"><text text-anchor="middle" x="0" y="506" style="font-family: Arial; font-size: 15px; fill: rgb(51, 65, 85); fill-opacity: 1; white-space: pre;" transform="translate(450.71,0)">Nov 2024</text></g><g class="x2tick"><text text-anchor="middle" x="0" y="506" style="font-family: Arial; font-size: 15px; fill: rgb(51, 65, 85); fill-opacity: 1; white-space: pre;" transform="translate(543.29,0)">Jan 2025</text></g><g class="x2tick"><text text-anchor="middle" x="0" y="506" style="font-family: Arial; font-size: 15px; fill: rgb(51, 65, 85); fill-opacity: 1; white-space: pre;" transform="translate(632.83,0)">Mar 2025</text></g><g class="x2tick"><text text-anchor="middle" x="0" y="506" style="font-family: Arial; font-size: 15px; fill: rgb(51, 65, 85); fill-opacity: 1; white-space: pre;" transform="translate(725.41,0)">May 2025</text></g><g class="x2tick"><text text-anchor="middle" x="0" y="506" style="font-family: Arial; font-size: 15px; fill: rgb(51, 65, 85); fill-opacity: 1; white-space: pre;" transform="translate(817.99,0)">Jul 2025</text></g></g><g class="yaxislayer-above"><g class="y3tick"><text text-anchor="end" x="79" y="5.25" transform="translate(0,490)" style="font-family: Arial; font-size: 15px; fill: rgb(51, 65, 85); fill-opacity: 1; white-space: pre;">0</text></g><g class="y3tick"><text text-anchor="end" x="79" y="5.25" style="font-family: Arial; font-size: 15px; fill: rgb(51, 65, 85); fill-opacity: 1; white-space: pre;" transform="translate(0,448.83000000000004)">1,000</text></g><g class="y3tick"><text text-anchor="end" x="79" y="5.25" style="font-family: Arial; font-size: 15px; fill: rgb(51, 65, 85); fill-opacity: 1; white-space: pre;" transform="translate(0,407.65999999999997)">2,000</text></g><g class="y3tick"><text text-anchor="end" x="79" y="5.25" style="font-family: Arial; font-size: 15px; fill: rgb(51, 65, 85); fill-opacity: 1; white-space: pre;" transform="translate(0,366.49)">3,000</text></g><g class="y3tick"><text text-anchor="end" x="79" y="5.25" style="font-family: Arial; font-size: 15px; fill: rgb(51, 65, 85); fill-opacity: 1; white-space: pre;" transform="translate(0,325.32)">4,000</text></g><g class="y3tick"><text text-anchor="end" x="79" y="5.25" style="font-family: Arial; font-size: 15px; fill: rgb(51, 65, 85); fill-opacity: 1; white-space: pre;" transform="translate(0,284.14)">5,000</text></g></g><g class="overaxes-above"><g class="x2y4-x" /><g class="x2y4-y"><g class="y4tick"><text text-anchor="start" x="911.9599999999999" y="5.25" transform="translate(0,490)" style="font-family: Arial; font-size: 15px; fill: rgb(51, 65, 85); fill-opacity: 1; white-space: pre;">0%</text></g><g class="y4tick"><text text-anchor="start" x="911.9599999999999" y="5.25" style="font-family: Arial; font-size: 15px; fill: rgb(51, 65, 85); fill-opacity: 1; white-space: pre;" transform="translate(0,441.85)">20%</text></g><g class="y4tick"><text text-anchor="start" x="911.9599999999999" y="5.25" style="font-family: Arial; font-size: 15px; fill: rgb(51, 65, 85); fill-opacity: 1; white-space: pre;" transform="translate(0,393.69)">40%</text></g><g class="y4tick"><text text-anchor="start" x="911.9599999999999" y="5.25" style="font-family: Arial; font-size: 15px; fill: rgb(51, 65, 85); fill-opacity: 1; white-space: pre;" transform="translate(0,345.54)">60%</text></g><g class="y4tick"><text text-anchor="start" x="911.9599999999999" y="5.25" style="font-family: Arial; font-size: 15px; fill: rgb(51, 65, 85); fill-opacity: 1; white-space: pre;" transform="translate(0,297.39)">80%</text></g></g></g></g><g class="subplot xy2" /><g class="subplot x2y4" /></g><g class="polarlayer" /><g class="smithlayer" /><g class="ternarylayer" /><g class="geolayer" /><g class="funnelarealayer" /><g class="pielayer" /><g class="iciclelayer" /><g class="treemaplayer" /><g class="sunburstlayer" /><g class="glimages" /><defs id="topdefs-a733b2"><g class="clips" /><clipPath id="legenda733b2"><rect width="156" height="55" x="0" y="0" /></clipPath></defs><g class="layer-above"><g class="imagelayer" /><g class="shapelayer" /></g><g class="infolayer"><g class="legend" pointer-events="all" transform="translate(981.6800000000001,24)"><rect class="bg" shape-rendering="crispEdges" style="stroke: rgb(68, 68, 68); stroke-opacity: 1; fill: rgb(255, 255, 255); fill-opacity: 1; stroke-width: 0px;" width="156" height="55" x="0" y="0" /><g class="scrollbox" transform="" clip-path="url(#legenda733b2)"><g class="groups"><g class="traces" transform="translate(0,16.25)" style="opacity: 1;"><text class="legendtext" text-anchor="start" x="40" y="5.85" style="font-family: Arial; font-size: 15px; fill: rgb(51, 65, 85); fill-opacity: 1; white-space: pre;">Training rows</text><g class="layers" style="opacity: 1;"><g class="legendfill" /><g class="legendlines" /><g class="legendsymbols"><g class="legendpoints"><path class="legendundefined" d="M6,6H-6V-6H6Z" transform="translate(20,0)" style="stroke-width: 0.5px; fill: rgb(99, 110, 250); fill-opacity: 1; stroke: rgb(255, 255, 255); stroke-opacity: 1;" /></g></g></g><rect class="legendtoggle" x="0" y="-11.25" width="150.046875" height="22.5" style="fill: rgb(0, 0, 0); fill-opacity: 0;" /></g><g class="traces" transform="translate(0,38.75)" style="opacity: 1;"><text class="legendtext" text-anchor="start" x="40" y="5.85" style="font-family: Arial; font-size: 15px; fill: rgb(51, 65, 85); fill-opacity: 1; white-space: pre;">Positive rate (%)</text><g class="layers" style="opacity: 1;"><g class="legendfill" /><g class="legendlines"><path class="js-line" d="M5,0h30" style="fill: none; stroke: rgb(99, 110, 250); stroke-opacity: 1; stroke-width: 2.4px;" /></g><g class="legendsymbols"><g class="legendpoints"><path class="scatterpts" transform="translate(20,0)" d="M3.5,0A3.5,3.5 0 1,1 0,-3.5A3.5,3.5 0 0,1 3.5,0Z" style="opacity: 1; stroke-width: 1px; fill: rgb(99, 110, 250); fill-opacity: 1; stroke: rgb(255, 255, 255); stroke-opacity: 1;" /></g></g></g><rect class="legendtoggle" x="0" y="-11.25" width="150.046875" height="22.5" style="fill: rgb(0, 0, 0); fill-opacity: 0;" /></g></g></g><rect class="scrollbar" rx="20" ry="3" width="0" height="0" style="fill: rgb(128, 139, 164); fill-opacity: 1;" x="0" y="0" /></g><g class="g-gtitle" /><g class="g-xtitle" /><g class="g-x2title"><text class="x2title" x="495.47999999999996" y="536.25625" text-anchor="middle" style="opacity: 1; font-family: Arial; font-size: 18px; fill: rgb(51, 65, 85); fill-opacity: 1; white-space: pre;">Reference Date</text></g><g class="g-ytitle"><text class="ytitle" transform="rotate(-90,33.16875,132.34500000000006)" x="33.16875" y="132.34500000000006" text-anchor="middle" style="opacity: 1; font-family: Arial; font-size: 18px; fill: rgb(51, 65, 85); fill-opacity: 1; white-space: pre;">Rows</text></g><g class="g-y2title"><text class="y2title" transform="rotate(-90,969.0912109375,132.34500000000006)" x="969.0912109375" y="132.34500000000006" text-anchor="middle" style="opacity: 1; font-family: Arial; font-size: 18px; fill: rgb(51, 65, 85); fill-opacity: 1; white-space: pre;">Rate (%)</text></g><g class="g-y3title"><text class="y3title" transform="rotate(-90,20.653125000000003,381.655)" x="20.653125000000003" y="381.655" text-anchor="middle" style="opacity: 1; font-family: Arial; font-size: 18px; fill: rgb(51, 65, 85); fill-opacity: 1; white-space: pre;">Rows</text></g><g class="g-y4title"><text class="y4title" transform="rotate(-90,969.0912109375,381.655)" x="969.0912109375" y="381.655" text-anchor="middle" style="opacity: 1; font-family: Arial; font-size: 18px; fill: rgb(51, 65, 85); fill-opacity: 1; white-space: pre;">Rate (%)</text></g><g class="annotation" data-index="0" style="opacity: 1;"><g class="annotation-text-g" transform="rotate(0,495.47999999999996,13.500000000000048)"><g class="cursor-pointer" transform="translate(410,3)"><rect class="bg" x="0.5" y="0.5" width="170" height="20" style="stroke-width: 1px; stroke: rgb(0, 0, 0); stroke-opacity: 0; fill: rgb(0, 0, 0); fill-opacity: 0;" /><text class="annotation-text" text-anchor="middle" x="85.6015625" y="16" style="font-family: Arial; font-size: 16px; fill: rgb(51, 65, 85); fill-opacity: 1; white-space: pre;">Churn (30-60d inactive)</text></g></g></g><g class="annotation" data-index="1" style="opacity: 1;"><g class="annotation-text-g" transform="rotate(0,495.47999999999996,262.81)"><g class="cursor-pointer" transform="translate(415,252)"><rect class="bg" x="0.5" y="0.5" width="159" height="20" style="stroke-width: 1px; stroke: rgb(0, 0, 0); stroke-opacity: 0; fill: rgb(0, 0, 0); fill-opacity: 0;" /><text class="annotation-text" text-anchor="middle" x="79.8359375" y="16" style="font-family: Arial; font-size: 16px; fill: rgb(51, 65, 85); fill-opacity: 1; white-space: pre;">Re-engage within 30d</text></g></g></g></g></g></svg>