<svg xmlns="http://www.w3.org/2000/svg" class="main-svg" width="1150" height="550" style="" viewBox="0 0 1150 550"><defs id="defs-3929a7"><g class="clips"><clipPath id="clip3929a7xyplot" class="plotclip"><rect width="830.9599999999999" height="216.69" /></clipPath><clipPath id="clip3929a7xy2plot" class="plotclip"><rect width="830.9599999999999" height="216.69" /></clipPath><clipPath id="clip3929a7x2y3plot" class="plotclip"><rect width="830.9599999999999" height="216.69" /></clipPath><clipPath id="clip3929a7x2y4plot" class="plotclip"><rect width="830.9599999999999" height="216.69" /></clipPath><clipPath class="axesclip" id="clip3929a7x"><rect x="80" y="0" width="830.9599999999999" height="550" /></clipPath><clipPath class="axesclip" id="clip3929a7y"><rect x="0" y="24.000000000000053" width="1150" height="216.69" /></clipPath><clipPath class="axesclip" id="clip3929a7xy"><rect x="80" y="24.000000000000053" width="830.9599999999999" height="216.69" /></clipPath><clipPath class="axesclip" id="clip3929a7y2"><rect x="0" y="24.000000000000053" width="1150" height="216.69" /></clipPath><clipPath class="axesclip" id="clip3929a7xy2"><rect x="80" y="24.000000000000053" width="830.9599999999999" height="216.69" /></clipPath><clipPath class="axesclip" id="clip3929a7y3"><rect x="0" y="273.31" width="1150" height="216.69" /></clipPath><clipPath class="axesclip" id="clip3929a7xy3"><rect x="80" y="273.31" width="830.9599999999999" height="216.69" /></clipPath><clipPath class="axesclip" id="clip3929a7y4"><rect x="0" y="273.31" width="1150" height="216.69" /></clipPath><clipPath class="axesclip" id="clip3929a7xy4"><rect x="80" y="273.31" width="830.9599999999999" height="216.69" /></clipPath><clipPath class="axesclip" id="clip3929a7x2"><rect x="80" y="0" width="830.9599999999999" height="550" /></clipPath><clipPath class="axesclip" id="clip3929a7x2y"><rect x="80" y="24.000000000000053" width="830.9599999999999" height="216.69" /></clipPath><clipPath class="axesclip" id="clip3929a7x2y2"><rect x="80" y="24.000000000000053" width="830.9599999999999" height="216.69" /></clipPath><clipPath class="axesclip" id="clip3929a7x2y3"><rect x="80" y="273.31" width="830.9599999999999" height="216.69" /></clipPath><clipPath class="axesclip" id="clip3929a7x2y4"><rect x="80" y="273.31" width="830.9599999999999" height="216.69" /></clipPath></g><g class="gradients" /><g class="patterns" /><clipPath id="rounded-canvas-clip"><rect x="0" y="0" width="1150" height="550" rx="24" ry="24" /></clipPath></defs><g clip-path="url(#rounded-canvas-clip)"><rect x="0" y="0" width="1150" height="550" style="fill: rgb(255, 255, 255); fill-opacity: 1;" fill="rgb(255, 255, 255)" fill-opacity="1" rx="24" ry="24" /><g class="bglayer" /><g class="layer-below"><g class="imagelayer" /><g class="shapelayer" /></g><g class="cartesianlayer"><g class="subplot xy"><g class="layer-subplot"><g class="shapelayer" /><g class="imagelayer" /></g><g class="minor-gridlayer"><g class="x" /><g class="y" /><g class="y2" /></g><g class="gridlayer"><g class="x"><path class="xgrid crisp" transform="translate(172.32999999999998,0)" d="M0,24.000000000000053v216.69" style="stroke: rgb(226, 232, 240); stroke-opacity: 1; stroke-width: 1px;" /><path class="xgrid crisp" transform="translate(264.65999999999997,0)" d="M0,24.000000000000053v216.69" style="stroke: rgb(226, 232, 240); stroke-opacity: 1; stroke-width: 1px;" /><path class="xgrid crisp" transform="translate(358.5,0)" d="M0,24.000000000000053v216.69" style="stroke: rgb(226, 232, 240); stroke-opacity: 1; stroke-width: 1px;" /><path class="xgrid crisp" transform="translate(450.83,0)" d="M0,24.000000000000053v216.69" style="stroke: rgb(226, 232, 240); stroke-opacity: 1; stroke-width: 1px;" /><path class="xgrid crisp" transform="translate(543.1600000000001,0)" d="M0,24.000000000000053v216.69" style="stroke: rgb(226, 232, 240); stroke-opacity: 1; stroke-width: 1px;" /><path class="xgrid crisp" transform="translate(632.46,0)" d="M0,24.000000000000053v216.69" style="stroke: rgb(226, 232, 240); stroke-opacity: 1; stroke-width: 1px;" /><path class="xgrid crisp" transform="translate(724.79,0)" d="M0,24.000000000000053v216.69" style="stroke: rgb(226, 232, 240); stroke-opacity: 1; stroke-width: 1px;" /><path class="xgrid crisp" transform="translate(817.12,0)" d="M0,24.000000000000053v216.69" style="stroke: rgb(226, 232, 240); stroke-opacity: 1; stroke-width: 1px;" /></g><g class="y"><path class="ygrid crisp" transform="translate(0,195.35000000000005)" d="M80,0h830.9599999999999" style="stroke: rgb(15, 23, 42); stroke-opacity: 0.08; stroke-width: 1px;" /><path class="ygrid crisp" transform="translate(0,150.00000000000006)" d="M80,0h830.9599999999999" style="stroke: rgb(15, 23, 42); stroke-opacity: 0.08; stroke-width: 1px;" /><path class="ygrid crisp" transform="translate(0,104.66000000000005)" d="M80,0h830.9599999999999" style="stroke: rgb(15, 23, 42); stroke-opacity: 0.08; stroke-width: 1px;" /><path class="ygrid crisp" transform="translate(0,59.32000000000005)" d="M80,0h830.9599999999999" style="stroke: rgb(15, 23, 42); stroke-opacity: 0.08; stroke-width: 1px;" /></g><g class="y2"><path class="y2grid crisp" transform="translate(0,192.54000000000005)" d="M80,0h830.9599999999999" style="stroke: rgb(15, 23, 42); stroke-opacity: 0; stroke-width: 1px;" /><path class="y2grid crisp" transform="translate(0,144.38000000000005)" d="M80,0h830.9599999999999" style="stroke: rgb(15, 23, 42); stroke-opacity: 0; stroke-width: 1px;" /><path class="y2grid crisp" transform="translate(0,96.23000000000006)" d="M80,0h830.9599999999999" style="stroke: rgb(15, 23, 42); stroke-opacity: 0; stroke-width: 1px;" /><path class="y2grid crisp" transform="translate(0,48.080000000000055)" d="M80,0h830.9599999999999" style="stroke: rgb(15, 23, 42); stroke-opacity: 0; stroke-width: 1px;" /></g></g><g class="zerolinelayer"><path class="yzl zl crisp" transform="translate(0,240.69000000000005)" d="M80,0h830.9599999999999" style="stroke: rgb(235, 240, 248); stroke-opacity: 1; stroke-width: 2px;" /><path class="y2zl zl crisp" transform="translate(0,240.69000000000005)" d="M80,0h830.9599999999999" style="stroke: rgb(235, 240, 248); stroke-opacity: 1; stroke-width: 2px;" /></g><g class="layer-between"><g class="shapelayer" /><g class="imagelayer" /></g><path class="xlines-below" /><path class="ylines-below" /><g class="overlines-below"><path class="xy2-x" /><path class="xy2-y" /></g><g class="xaxislayer-below" /><g class="yaxislayer-below" /><g class="overaxes-below"><g class="xy2-x" /><g class="xy2-y" /></g><g class="overplot"><g class="xy" transform="translate(80,24.000000000000053)" clip-path="url(#clip3929a7xyplot)"><g class="barlayer mlayer"><g class="trace bars" style="opacity: 1;"><g class="points"><g class="point"><path d="M29.97,216.69V10.83H63.87V216.69Z" style="vector-effect: none; opacity: 0.28; stroke-width: 0.5px; fill: rgb(99, 110, 250); fill-opacity: 1; stroke: rgb(255, 255, 255); stroke-opacity: 1;" /></g><g class="point"><path d="M75.38,216.69V76.58H109.28V216.69Z" style="vector-effect: none; opacity: 0.28; stroke-width: 0.5px; fill: rgb(99, 110, 250); fill-opacity: 1; stroke: rgb(255, 255, 255); stroke-opacity: 1;" /></g><g class="point"><path d="M122.3,216.69V68.87H156.2V216.69Z" style="vector-effect: none; opacity: 0.28; stroke-width: 0.5px; fill: rgb(99, 110, 250); fill-opacity: 1; stroke: rgb(255, 255, 255); stroke-opacity: 1;" /></g><g class="point"><path d="M167.71,216.69V87.46H201.61V216.69Z" style="vector-effect: none; opacity: 0.28; stroke-width: 0.5px; fill: rgb(99, 110, 250); fill-opacity: 1; stroke: rgb(255, 255, 255); stroke-opacity: 1;" /></g><g class="point"><path d="M214.63,216.69V38.49H248.53V216.69Z" style="vector-effect: none; opacity: 0.28; stroke-width: 0.5px; fill: rgb(99, 110, 250); fill-opacity: 1; stroke: rgb(255, 255, 255); stroke-opacity: 1;" /></g><g class="point"><path d="M261.55,216.69V61.62H295.45V216.69Z" style="vector-effect: none; opacity: 0.28; stroke-width: 0.5px; fill: rgb(99, 110, 250); fill-opacity: 1; stroke: rgb(255, 255, 255); stroke-opacity: 1;" /></g><g class="point"><path d="M306.96,216.69V91.54H340.86V216.69Z" style="vector-effect: none; opacity: 0.28; stroke-width: 0.5px; fill: rgb(99, 110, 250); fill-opacity: 1; stroke: rgb(255, 255, 255); stroke-opacity: 1;" /></g><g class="point"><path d="M353.88,216.69V53.91H387.78V216.69Z" style="vector-effect: none; opacity: 0.28; stroke-width: 0.5px; fill: rgb(99, 110, 250); fill-opacity: 1; stroke: rgb(255, 255, 255); stroke-opacity: 1;" /></g><g class="point"><path d="M399.28,216.69V94.72H433.19V216.69Z" style="vector-effect: none; opacity: 0.28; stroke-width: 0.5px; fill: rgb(99, 110, 250); fill-opacity: 1; stroke: rgb(255, 255, 255); stroke-opacity: 1;" /></g><g class="point"><path d="M446.21,216.69V30.79H480.11V216.69Z" style="vector-effect: none; opacity: 0.28; stroke-width: 0.5px; fill: rgb(99, 110, 250); fill-opacity: 1; stroke: rgb(255, 255, 255); stroke-opacity: 1;" /></g><g class="point"><path d="M493.13,216.69V95.17H527.03V216.69Z" style="vector-effect: none; opacity: 0.28; stroke-width: 0.5px; fill: rgb(99, 110, 250); fill-opacity: 1; stroke: rgb(255, 255, 255); stroke-opacity: 1;" /></g><g class="point"><path d="M535.51,216.69V34.41H569.41V216.69Z" style="vector-effect: none; opacity: 0.28; stroke-width: 0.5px; fill: rgb(99, 110, 250); fill-opacity: 1; stroke: rgb(255, 255, 255); stroke-opacity: 1;" /></g><g class="point"><path d="M582.43,216.69V15.82H616.33V216.69Z" style="vector-effect: none; opacity: 0.28; stroke-width: 0.5px; fill: rgb(99, 110, 250); fill-opacity: 1; stroke: rgb(255, 255, 255); stroke-opacity: 1;" /></g><g class="point"><path d="M627.84,216.69V68.87H661.74V216.69Z" style="vector-effect: none; opacity: 0.28; stroke-width: 0.5px; fill: rgb(99, 110, 250); fill-opacity: 1; stroke: rgb(255, 255, 255); stroke-opacity: 1;" /></g><g class="point"><path d="M674.76,216.69V99.71H708.66V216.69Z" style="vector-effect: none; opacity: 0.28; stroke-width: 0.5px; fill: rgb(99, 110, 250); fill-opacity: 1; stroke: rgb(255, 255, 255); stroke-opacity: 1;" /></g><g class="point"><path d="M720.17,216.69V44.84H754.07V216.69Z" style="vector-effect: none; opacity: 0.28; stroke-width: 0.5px; fill: rgb(99, 110, 250); fill-opacity: 1; stroke: rgb(255, 255, 255); stroke-opacity: 1;" /></g><g class="point"><path d="M767.09,216.69V86.1H800.99V216.69Z" style="vector-effect: none; opacity: 0.28; stroke-width: 0.5px; fill: rgb(99, 110, 250); fill-opacity: 1; stroke: rgb(255, 255, 255); stroke-opacity: 1;" /></g></g></g></g></g><g class="xy2" transform="translate(80,24.000000000000053)" clip-path="url(#clip3929a7xy2plot)"><g class="scatterlayer mlayer"><g class="trace scatter trace9e87fb" style="stroke-miterlimit: 2; opacity: 1;"><g class="fills" /><g class="errorbars" /><g class="lines"><path class="js-line" d="M46.92,50.71L92.33,50.73L139.25,71.94L184.66,48.59L231.58,54.94L278.5,82.92L323.91,60.53L370.83,90.6L416.24,56.48L463.16,79.86L510.08,66.67L552.46,43L599.38,46.03L644.79,76.37L691.71,34.72L737.12,59.13L784.04,59.52" style="vector-effect: none; fill: none; stroke: rgb(99, 110, 250); stroke-opacity: 1; stroke-width: 2.4px; opacity: 1;" /></g><g class="points"><path class="point" transform="translate(46.92,50.71)" d="M3.5,0A3.5,3.5 0 1,1 0,-3.5A3.5,3.5 0 0,1 3.5,0Z" style="opacity: 1; stroke-width: 1px; fill: rgb(99, 110, 250); fill-opacity: 1; stroke: rgb(255, 255, 255); stroke-opacity: 1;" /><path class="point" transform="translate(92.33,50.73)" d="M3.5,0A3.5,3.5 0 1,1 0,-3.5A3.5,3.5 0 0,1 3.5,0Z" style="opacity: 1; stroke-width: 1px; fill: rgb(99, 110, 250); fill-opacity: 1; stroke: rgb(255, 255, 255); stroke-opacity: 1;" /><path class="point" transform="translate(139.25,71.94)" d="M3.5,0A3.5,3.5 0 1,1 0,-3.5A3.5,3.5 0 0,1 3.5,0Z" style="opacity: 1; stroke-width: 1px; fill: rgb(99, 110, 250); fill-opacity: 1; stroke: rgb(255, 255, 255); stroke-opacity: 1;" /><path class="point" transform="translate(184.66,48.59)" d="M3.5,0A3.5,3.5 0 1,1 0,-3.5A3.5,3.5 0 0,1 3.5,0Z" style="opacity: 1; stroke-width: 1px; fill: rgb(99, 110, 250); fill-opacity: 1; stroke: rgb(255, 255, 255); stroke-opacity: 1;" /><path class="point" transform="translate(231.58,54.94)" d="M3.5,0A3.5,3.5 0 1,1 0,-3.5A3.5,3.5 0 0,1 3.5,0Z" style="opacity: 1; stroke-width: 1px; fill: rgb(99, 110, 250); fill-opacity: 1; stroke: rgb(255, 255, 255); stroke-opacity: 1;" /><path class="point" transform="translate(278.5,82.92)" d="M3.5,0A3.5,3.5 0 1,1 0,-3.5A3.5,3.5 0 0,1 3.5,0Z" style="opacity: 1; stroke-width: 1px; fill: rgb(99, 110, 250); fill-opacity: 1; stroke: rgb(255, 255, 255); stroke-opacity: 1;" /><path class="point" transform="translate(323.91,60.53)" d="M3.5,0A3.5,3.5 0 1,1 0,-3.5A3.5,3.5 0 0,1 3.5,0Z" style="opacity: 1; stroke-width: 1px; fill: rgb(99, 110, 250); fill-opacity: 1; stroke: rgb(255, 255, 255); stroke-opacity: 1;" /><path class="point" transform="translate(370.83,90.6)" d="M3.5,0A3.5,3.5 0 1,1 0,-3.5A3.5,3.5 0 0,1 3.5,0Z" style="opacity: 1; stroke-width: 1px; fill: rgb(99, 110, 250); fill-opacity: 1; stroke: rgb(255, 255, 255); stroke-opacity: 1;" /><path class="point" transform="translate(416.24,56.48)" d="M3.5,0A3.5,3.5 0 1,1 0,-3.5A3.5,3.5 0 0,1 3.5,0Z" style="opacity: 1; stroke-width: 1px; fill: rgb(99, 110, 250); fill-opacity: 1; stroke: rgb(255, 255, 255); stroke-opacity: 1;" /><path class="point" transform="translate(463.16,79.86)" d="M3.5,0A3.5,3.5 0 1,1 0,-3.5A3.5,3.5 0 0,1 3.5,0Z" style="opacity: 1; stroke-width: 1px; fill: rgb(99, 110, 250); fill-opacity: 1; stroke: rgb(255, 255, 255); stroke-opacity: 1;" /><path class="point" transform="translate(510.08,66.67)" d="M3.5,0A3.5,3.5 0 1,1 0,-3.5A3.5,3.5 0 0,1 3.5,0Z" style="opacity: 1; stroke-width: 1px; fill: rgb(99, 110, 250); fill-opacity: 1; stroke: rgb(255, 255, 255); stroke-opacity: 1;" /><path class="point" transform="translate(552.46,43)" d="M3.5,0A3.5,3.5 0 1,1 0,-3.5A3.5,3.5 0 0,1 3.5,0Z" style="opacity: 1; stroke-width: 1px; fill: rgb(99, 110, 250); fill-opacity: 1; stroke: rgb(255, 255, 255); stroke-opacity: 1;" /><path class="point" transform="translate(599.38,46.03)" d="M3.5,0A3.5,3.5 0 1,1 0,-3.5A3.5,3.5 0 0,1 3.5,0Z" style="opacity: 1; stroke-width: 1px; fill: rgb(99, 110, 250); fill-opacity: 1; stroke: rgb(255, 255, 255); stroke-opacity: 1;" /><path class="point" transform="translate(644.79,76.37)" d="M3.5,0A3.5,3.5 0 1,1 0,-3.5A3.5,3.5 0 0,1 3.5,0Z" style="opacity: 1; stroke-width: 1px; fill: rgb(99, 110, 250); fill-opacity: 1; stroke: rgb(255, 255, 255); stroke-opacity: 1;" /><path class="point" transform="translate(691.71,34.72)" d="M3.5,0A3.5,3.5 0 1,1 0,-3.5A3.5,3.5 0 0,1 3.5,0Z" style="opacity: 1; stroke-width: 1px; fill: rgb(99, 110, 250); fill-opacity: 1; stroke: rgb(255, 255, 255); stroke-opacity: 1;" /><path class="point" transform="translate(737.12,59.13)" d="M3.5,0A3.5,3.5 0 1,1 0,-3.5A3.5,3.5 0 0,1 3.5,0Z" style="opacity: 1; stroke-width: 1px; fill: rgb(99, 110, 250); fill-opacity: 1; stroke: rgb(255, 255, 255); stroke-opacity: 1;" /><path class="point" transform="translate(784.04,59.52)" d="M3.5,0A3.5,3.5 0 1,1 0,-3.5A3.5,3.5 0 0,1 3.5,0Z" style="opacity: 1; stroke-width: 1px; fill: rgb(99, 110, 250); fill-opacity: 1; stroke: rgb(255, 255, 255); stroke-opacity: 1;" /></g><g class="text" /></g></g></g></g><g class="zerolinelayer-above" /><path class="xlines-above crisp" d="M0,0" style="fill: none;" /><path class="ylines-above crisp" d="M0,0" style="fill: none;" /><g class="overlines-above"><path class="xy2-x crisp" d="M0,0" style="fill: none;" /><path class="xy2-y crisp" d="M0,0" style="fill: none;" /></g><g class="xaxislayer-above" /><g class="yaxislayer-above"><g class="ytick"><text text-anchor="end" x="79" y="5.25" transform="translate(0,240.69000000000005)" style="font-family: Arial; font-size: 15px; fill: rgb(51, 65, 85); fill-opacity: 1; white-space: pre;">0</text></g><g class="ytick"><text text-anchor="end" x="79" y="5.25" style="font-family: Arial; font-size: 15px; fill: rgb(51, 65, 85); fill-opacity: 1; white-space: pre;" transform="translate(0,195.35000000000005)">100</text></g><g class="ytick"><text text-anchor="end" x="79" y="5.25" style="font-family: Arial; font-size: 15px; fill: rgb(51, 65, 85); fill-opacity: 1; white-space: pre;" transform="translate(0,150.00000000000006)">200</text></g><g class="ytick"><text text-anchor="end" x="79" y="5.25" style="font-family: Arial; font-size: 15px; fill: rgb(51, 65, 85); fill-opacity: 1; white-space: pre;" transform="translate(0,104.66000000000005)">300</text></g><g class="ytick"><text text-anchor="end" x="79" y="5.25" style="font-family: Arial; font-size: 15px; fill: rgb(51, 65, 85); fill-opacity: 1; white-space: pre;" transform="translate(0,59.32000000000005)">400</text></g></g><g class="overaxes-above"><g class="xy2-x" /><g class="xy2-y"><g class="y2tick"><text text-anchor="start" x="911.9599999999999" y="5.25" transform="translate(0,240.69000000000005)" style="font-family: Arial; font-size: 15px; fill: rgb(51, 65, 85); fill-opacity: 1; white-space: pre;">0%</text></g><g class="y2tick"><text text-anchor="start" x="911.9599999999999" y="5.25" style="font-family: Arial; font-size: 15px; fill: rgb(51, 65, 85); fill-opacity: 1; white-space: pre;" transform="translate(0,192.54000000000005)">20%</text></g><g class="y2tick"><text text-anchor="start" x="911.9599999999999" y="5.25" style="font-family: Arial; font-size: 15px; fill: rgb(51, 65, 85); fill-opacity: 1; white-space: pre;" transform="translate(0,144.38000000000005)">40%</text></g><g class="y2tick"><text text-anchor="start" x="911.9599999999999" y="5.25" style="font-family: Arial; font-size: 15px; fill: rgb(51, 65, 85); fill-opacity: 1; white-space: pre;" transform="translate(0,96.23000000000006)">60%</text></g><g class="y2tick"><text text-anchor="start" x="911.9599999999999" y="5.25" style="font-family: Arial; font-size: 15px; fill: rgb(51, 65, 85); fill-opacity: 1; white-space: pre;" transform="translate(0,48.080000000000055)">80%</text></g></g></g></g><g class="subplot x2y3"><g class="layer-subplot"><g class="shapelayer" /><g class="imagelayer" /></g><g class="minor-gridlayer"><g class="x2" /><g class="y3" /><g class="y4" /></g><g class="gridlayer"><g class="x2"><path class="x2grid crisp" transform="translate(172.32999999999998,0)" d="M0,273.31v216.69" style="stroke: rgb(226, 232, 240); stroke-opacity: 1; stroke-width: 1px;" /><path class="x2grid crisp" transform="translate(264.65999999999997,0)" d="M0,273.31v216.69" style="stroke: rgb(226, 232, 240); stroke-opacity: 1; stroke-width: 1px;" /><path class="x2grid crisp" transform="translate(358.5,0)" d="M0,273.31v216.69" style="stroke: rgb(226, 232, 240); stroke-opacity: 1; stroke-width: 1px;" /><path class="x2grid crisp" transform="translate(450.83,0)" d="M0,273.31v216.69" style="stroke: rgb(226, 232, 240); stroke-opacity: 1; stroke-width: 1px;" /><path class="x2grid crisp" transform="translate(543.1600000000001,0)" d="M0,273.31v216.69" style="stroke: rgb(226, 232, 240); stroke-opacity: 1; stroke-width: 1px;" /><path class="x2grid crisp" transform="translate(632.46,0)" d="M0,273.31v216.69" style="stroke: rgb(226, 232, 240); stroke-opacity: 1; stroke-width: 1px;" /><path class="x2grid crisp" transform="translate(724.79,0)" d="M0,273.31v216.69" style="stroke: rgb(226, 232, 240); stroke-opacity: 1; stroke-width: 1px;" /><path class="x2grid crisp" transform="translate(817.12,0)" d="M0,273.31v216.69" style="stroke: rgb(226, 232, 240); stroke-opacity: 1; stroke-width: 1px;" /></g><g class="y3"><path class="y3grid crisp" transform="translate(0,435.97)" d="M80,0h830.9599999999999" style="stroke: rgb(15, 23, 42); stroke-opacity: 0.08; stroke-width: 1px;" /><path class="y3grid crisp" transform="translate(0,381.94)" d="M80,0h830.9599999999999" style="stroke: rgb(15, 23, 42); stroke-opacity: 0.08; stroke-width: 1px;" /><path class="y3grid crisp" transform="translate(0,327.9)" d="M80,0h830.9599999999999" style="stroke: rgb(15, 23, 42); stroke-opacity: 0.08; stroke-width: 1px;" /></g><g class="y4"><path class="y4grid crisp" transform="translate(0,441.85)" d="M80,0h830.9599999999999" style="stroke: rgb(15, 23, 42); stroke-opacity: 0; stroke-width: 1px;" /><path class="y4grid crisp" transform="translate(0,393.69)" d="M80,0h830.9599999999999" style="stroke: rgb(15, 23, 42); stroke-opacity: 0; stroke-width: 1px;" /><path class="y4grid crisp" transform="translate(0,345.54)" d="M80,0h830.9599999999999" style="stroke: rgb(15, 23, 42); stroke-opacity: 0; stroke-width: 1px;" /><path class="y4grid crisp" transform="translate(0,297.39)" d="M80,0h830.9599999999999" style="stroke: rgb(15, 23, 42); stroke-opacity: 0; stroke-width: 1px;" /></g></g><g class="zerolinelayer"><path class="y3zl zl crisp" transform="translate(0,490)" d="M80,0h830.9599999999999" style="stroke: rgb(235, 240, 248); stroke-opacity: 1; stroke-width: 2px;" /><path class="y4zl zl crisp" transform="translate(0,490)" d="M80,0h830.9599999999999" style="stroke: rgb(235, 240, 248); stroke-opacity: 1; stroke-width: 2px;" /></g><g class="layer-between"><g class="shapelayer" /><g class="imagelayer" /></g><path class="xlines-below" /><path class="ylines-below" /><g class="overlines-below"><path class="x2y4-x" /><path class="x2y4-y" /></g><g class="xaxislayer-below" /><g class="yaxislayer-below" /><g class="overaxes-below"><g class="x2y4-x" /><g class="x2y4-y" /></g><g class="overplot"><g class="x2y3" transform="translate(80,273.31)" clip-path="url(#clip3929a7x2y3plot)"><g class="barlayer mlayer"><g class="trace bars" style="opacity: 1;"><g class="points"><g class="point"><path d="M29.97,216.69V111.33H63.87V216.69Z" style="vector-effect: none; opacity: 0.28; stroke-width: 0.5px; fill: rgb(239, 85, 59); fill-opacity: 1; stroke: rgb(255, 255, 255); stroke-opacity: 1;" /></g><g class="point"><path d="M75.38,216.69V105.6H109.28V216.69Z" style="vector-effect: none; opacity: 0.28; stroke-width: 0.5px; fill: rgb(239, 85, 59); fill-opacity: 1; stroke: rgb(255, 255, 255); stroke-opacity: 1;" /></g><g class="point"><path d="M122.3,216.69V102.9H156.2V216.69Z" style="vector-effect: none; opacity: 0.28; stroke-width: 0.5px; fill: rgb(239, 85, 59); fill-opacity: 1; stroke: rgb(255, 255, 255); stroke-opacity: 1;" /></g><g class="point"><path d="M167.71,216.69V99.12H201.61V216.69Z" style="vector-effect: none; opacity: 0.28; stroke-width: 0.5px; fill: rgb(239, 85, 59); fill-opacity: 1; stroke: rgb(255, 255, 255); stroke-opacity: 1;" /></g><g class="point"><path d="M214.63,216.69V94.9H248.53V216.69Z" style="vector-effect: none; opacity: 0.28; stroke-width: 0.5px; fill: rgb(239, 85, 59); fill-opacity: 1; stroke: rgb(255, 255, 255); stroke-opacity: 1;" /></g><g class="point"><path d="M261.55,216.69V90.58H295.45V216.69Z" style="vector-effect: none; opacity: 0.28; stroke-width: 0.5px; fill: rgb(239, 85, 59); fill-opacity: 1; stroke: rgb(255, 255, 255); stroke-opacity: 1;" /></g><g class="point"><path d="M306.96,216.69V84.64H340.86V216.69Z" style="vector-effect: none; opacity: 0.28; stroke-width: 0.5px; fill: rgb(239, 85, 59); fill-opacity: 1; stroke: rgb(255, 255, 255); stroke-opacity: 1;" /></g><g class="point"><path d="M353.88,216.69V79.02H387.78V216.69Z" style="vector-effect: none; opacity: 0.28; stroke-width: 0.5px; fill: rgb(239, 85, 59); fill-opacity: 1; stroke: rgb(255, 255, 255); stroke-opacity: 1;" /></g><g class="point"><path d="M399.28,216.69V69.51H433.19V216.69Z" style="vector-effect: none; opacity: 0.28; stroke-width: 0.5px; fill: rgb(239, 85, 59); fill-opacity: 1; stroke: rgb(255, 255, 255); stroke-opacity: 1;" /></g><g class="point"><path d="M446.21,216.69V65.83H480.11V216.69Z" style="vector-effect: none; opacity: 0.28; stroke-width: 0.5px; fill: rgb(239, 85, 59); fill-opacity: 1; stroke: rgb(255, 255, 255); stroke-opacity: 1;" /></g><g class="point"><path d="M493.13,216.69V57.84H527.03V216.69Z" style="vector-effect: none; opacity: 0.28; stroke-width: 0.5px; fill: rgb(239, 85, 59); fill-opacity: 1; stroke: rgb(255, 255, 255); stroke-opacity: 1;" /></g><g class="point"><path d="M535.51,216.69V50.6H569.41V216.69Z" style="vector-effect: none; opacity: 0.28; stroke-width: 0.5px; fill: rgb(239, 85, 59); fill-opacity: 1; stroke: rgb(255, 255, 255); stroke-opacity: 1;" /></g><g class="point"><path d="M582.43,216.69V43.46H616.33V216.69Z" style="vector-effect: none; opacity: 0.28; stroke-width: 0.5px; fill: rgb(239, 85, 59); fill-opacity: 1; stroke: rgb(255, 255, 255); stroke-opacity: 1;" /></g><g class="point"><path d="M627.84,216.69V39.47H661.74V216.69Z" style="vector-effect: none; opacity: 0.28; stroke-width: 0.5px; fill: rgb(239, 85, 59); fill-opacity: 1; stroke: rgb(255, 255, 255); stroke-opacity: 1;" /></g><g class="point"><path d="M674.76,216.69V34.71H708.66V216.69Z" style="vector-effect: none; opacity: 0.28; stroke-width: 0.5px; fill: rgb(239, 85, 59); fill-opacity: 1; stroke: rgb(255, 255, 255); stroke-opacity: 1;" /></g><g class="point"><path d="M720.17,216.69V31.69H754.07V216.69Z" style="vector-effect: none; opacity: 0.28; stroke-width: 0.5px; fill: rgb(239, 85, 59); fill-opacity: 1; stroke: rgb(255, 255, 255); stroke-opacity: 1;" /></g><g class="point"><path d="M767.09,216.69V28.34H800.99V216.69Z" style="vector-effect: none; opacity: 0.28; stroke-width: 0.5px; fill: rgb(239, 85, 59); fill-opacity: 1; stroke: rgb(255, 255, 255); stroke-opacity: 1;" /></g></g></g></g></g><g class="x2y4" transform="translate(80,273.31)" clip-path="url(#clip3929a7x2y4plot)"><g class="scatterlayer mlayer"><g class="trace scatter tracee69764" style="stroke-miterlimit: 2; opacity: 1;"><g class="fills" /><g class="errorbars" /><g class="lines"><path class="js-line" d="M46.92,215.7L92.33,201.23L139.25,189.24L184.66,213.37L231.58,209.64L278.5,206.58L323.91,208.82L370.83,203.47L416.24,195.31L463.16,130.11L510.08,189.34L552.46,216.21L599.38,199.26L644.79,213.03L691.71,211.97L737.12,214.16L784.04,213.51" style="vector-effect: none; fill: none; stroke: rgb(239, 85, 59); stroke-opacity: 1; stroke-width: 2.4px; opacity: 1;" /></g><g class="points"><path class="point" transform="translate(46.92,215.7)" d="M3.5,0A3.5,3.5 0 1,1 0,-3.5A3.5,3.5 0 0,1 3.5,0Z" style="opacity: 1; stroke-width: 1px; fill: rgb(239, 85, 59); fill-opacity: 1; stroke: rgb(255, 255, 255); stroke-opacity: 1;" /><path class="point" transform="translate(92.33,201.23)" d="M3.5,0A3.5,3.5 0 1,1 0,-3.5A3.5,3.5 0 0,1 3.5,0Z" style="opacity: 1; stroke-width: 1px; fill: rgb(239, 85, 59); fill-opacity: 1; stroke: rgb(255, 255, 255); stroke-opacity: 1;" /><path class="point" transform="translate(139.25,189.24)" d="M3.5,0A3.5,3.5 0 1,1 0,-3.5A3.5,3.5 0 0,1 3.5,0Z" style="opacity: 1; stroke-width: 1px; fill: rgb(239, 85, 59); fill-opacity: 1; stroke: rgb(255, 255, 255); stroke-opacity: 1;" /><path class="point" transform="translate(184.66,213.37)" d="M3.5,0A3.5,3.5 0 1,1 0,-3.5A3.5,3.5 0 0,1 3.5,0Z" style="opacity: 1; stroke-width: 1px; fill: rgb(239, 85, 59); fill-opacity: 1; stroke: rgb(255, 255, 255); stroke-opacity: 1;" /><path class="point" transform="translate(231.58,209.64)" d="M3.5,0A3.5,3.5 0 1,1 0,-3.5A3.5,3.5 0 0,1 3.5,0Z" style="opacity: 1; stroke-width: 1px; fill: rgb(239, 85, 59); fill-opacity: 1; stroke: rgb(255, 255, 255); stroke-opacity: 1;" /><path class="point" transform="translate(278.5,206.58)" d="M3.5,0A3.5,3.5 0 1,1 0,-3.5A3.5,3.5 0 0,1 3.5,0Z" style="opacity: 1; stroke-width: 1px; fill: rgb(239, 85, 59); fill-opacity: 1; stroke: rgb(255, 255, 255); stroke-opacity: 1;" /><path class="point" transform="translate(323.91,208.82)" d="M3.5,0A3.5,3.5 0 1,1 0,-3.5A3.5,3.5 0 0,1 3.5,0Z" style="opacity: 1; stroke-width: 1px; fill: rgb(239, 85, 59); fill-opacity: 1; stroke: rgb(255, 255, 255); stroke-opacity: 1;" /><path class="point" transform="translate(370.83,203.47)" d="M3.5,0A3.5,3.5 0 1,1 0,-3.5A3.5,3.5 0 0,1 3.5,0Z" style="opacity: 1; stroke-width: 1px; fill: rgb(239, 85, 59); fill-opacity: 1; stroke: rgb(255, 255, 255); stroke-opacity: 1;" /><path class="point" transform="translate(416.24,195.31)" d="M3.5,0A3.5,3.5 0 1,1 0,-3.5A3.5,3.5 0 0,1 3.5,0Z" style="opacity: 1; stroke-width: 1px; fill: rgb(239, 85, 59); fill-opacity: 1; stroke: rgb(255, 255, 255); stroke-opacity: 1;" /><path class="point" transform="translate(463.16,130.11)" d="M3.5,0A3.5,3.5 0 1,1 0,-3.5A3.5,3.5 0 0,1 3.5,0Z" style="opacity: 1; stroke-width: 1px; fill: rgb(239, 85, 59); fill-opacity: 1; stroke: rgb(255, 255, 255); stroke-opacity: 1;" /><path class="point" transform="translate(510.08,189.34)" d="M3.5,0A3.5,3.5 0 1,1 0,-3.5A3.5,3.5 0 0,1 3.5,0Z" style="opacity: 1; stroke-width: 1px; fill: rgb(239, 85, 59); fill-opacity: 1; stroke: rgb(255, 255, 255); stroke-opacity: 1;" /><path class="point" transform="translate(552.46,216.21)" d="M3.5,0A3.5,3.5 0 1,1 0,-3.5A3.5,3.5 0 0,1 3.5,0Z" style="opacity: 1; stroke-width: 1px; fill: rgb(239, 85, 59); fill-opacity: 1; stroke: rgb(255, 255, 255); stroke-opacity: 1;" /><path class="point" transform="translate(599.38,199.26)" d="M3.5,0A3.5,3.5 0 1,1 0,-3.5A3.5,3.5 0 0,1 3.5,0Z" style="opacity: 1; stroke-width: 1px; fill: rgb(239, 85, 59); fill-opacity: 1; stroke: rgb(255, 255, 255); stroke-opacity: 1;" /><path class="point" transform="translate(644.79,213.03)" d="M3.5,0A3.5,3.5 0 1,1 0,-3.5A3.5,3.5 0 0,1 3.5,0Z" style="opacity: 1; stroke-width: 1px; fill: rgb(239, 85, 59); fill-opacity: 1; stroke: rgb(255, 255, 255); stroke-opacity: 1;" /><path class="point" transform="translate(691.71,211.97)" d="M3.5,0A3.5,3.5 0 1,1 0,-3.5A3.5,3.5 0 0,1 3.5,0Z" style="opacity: 1; stroke-width: 1px; fill: rgb(239, 85, 59); fill-opacity: 1; stroke: rgb(255, 255, 255); stroke-opacity: 1;" /><path class="point" transform="translate(737.12,214.16)" d="M3.5,0A3.5,3.5 0 1,1 0,-3.5A3.5,3.5 0 0,1 3.5,0Z" style="opacity: 1; stroke-width: 1px; fill: rgb(239, 85, 59); fill-opacity: 1; stroke: rgb(255, 255, 255); stroke-opacity: 1;" /><path class="point" transform="translate(784.04,213.51)" d="M3.5,0A3.5,3.5 0 1,1 0,-3.5A3.5,3.5 0 0,1 3.5,0Z" style="opacity: 1; stroke-width: 1px; fill: rgb(239, 85, 59); fill-opacity: 1; stroke: rgb(255, 255, 255); stroke-opacity: 1;" /></g><g class="text" /></g></g></g></g><g class="zerolinelayer-above" /><path class="xlines-above crisp" d="M0,0" style="fill: none;" /><path class="ylines-above crisp" d="M0,0" style="fill: none;" /><g class="overlines-above"><path class="x2y4-x crisp" d="M0,0" style="fill: none;" /><path class="x2y4-y crisp" d="M0,0" style="fill: none;" /></g><g class="xaxislayer-above"><g class="x2tick"><text text-anchor="middle" x="0" y="506" transform="translate(80,0)" style="font-family: Arial; font-size: 15px; fill: rgb(51, 65, 85); fill-opacity: 1; white-space: pre;">Mar 2024</text></g><g class="x2tick"><text text-anchor="middle" x="0" y="506" style="font-family: Arial; font-size: 15px; fill: rgb(51, 65, 85); fill-opacity: 1; white-space: pre;" transform="translate(172.32999999999998,0)">May 2024</text></g><g class="x2tick"><text text-anchor="middle" x="0" y="506" style="font-family: Arial; font-size: 15px; fill: rgb(51, 65, 85); fill-opacity: 1; white-space: pre;" transform="translate(264.65999999999997,0)">Jul 2024</text></g><g class="x2tick"><text text-anchor="middle" x="0" y="506" style="font-family: Arial; font-size: 15px; fill: rgb(51, 65, 85); fill-opacity: 1; white-space: pre;" transform="translate(358.5,0)">Sep 2024</text></g><g class="x2tick"><text text-anchor="middle" x="0" y="506" style="font-family: Arial; font-size: 15px; fill: rgb(51, 65, 85); fill-opacity: 1; white-space: pre;" transform="translate(450.83,0)">Nov 2024</text></g><g class="x2tick"><text text-anchor="middle" x="0" y="506" style="font-family: Arial; font-size: 15px; fill: rgb(51, 65, 85); fill-opacity: 1; white-space: pre;" transform="translate(543.1600000000001,0)">Jan 2025</text></g><g class="x2tick"><text text-anchor="middle" x="0" y="506" style="font-family: Arial; font-size: 15px; fill: rgb(51, 65, 85); fill-opacity: 1; white-space: pre;" transform="translate(632.46,0)">Mar 2025</text></g><g class="x2tick"><text text-anchor="middle" x="0" y="506" style="font-family: Arial; font-size: 15px; fill: rgb(51, 65, 85); fill-opacity: 1; white-space: pre;" transform="translate(724.79,0)">May 2025</text></g><g class="x2tick"><text text-anchor="middle" x="0" y="506" style="font-family: Arial; font-size: 15px; fill: rgb(51, 65, 85); fill-opacity: 1; white-space: pre;" transform="translate(817.12,0)">Jul 2025</text></g><g class="x2tick"><text text-anchor="middle" x="0" y="506" style="font-family: Arial; font-size: 15px; fill: rgb(51, 65, 85); fill-opacity: 1; white-space: pre;" transform="translate(910.96,0)">Sep 2025</text></g></g><g class="yaxislayer-above"><g class="y3tick"><text text-anchor="end" x="79" y="5.25" transform="translate(0,490)" style="font-family: Arial; font-size: 15px; fill: rgb(51, 65, 85); fill-opacity: 1; white-space: pre;">0</text></g><g class="y3tick"><text text-anchor="end" x="79" y="5.25" style="font-family: Arial; font-size: 15px; fill: rgb(51, 65, 85); fill-opacity: 1; white-space: pre;" transform="translate(0,435.97)">500</text></g><g class="y3tick"><text text-anchor="end" x="79" y="5.25" style="font-family: Arial; font-size: 15px; fill: rgb(51, 65, 85); fill-opacity: 1; white-space: pre;" transform="translate(0,381.94)">1,000</text></g><g class="y3tick"><text text-anchor="end" x="79" y="5.25" style="font-family: Arial; font-size: 15px; fill: rgb(51, 65, 85); fill-opacity: 1; white-space: pre;" transform="translate(0,327.9)">1,500</text></g><g class="y3tick"><text text-anchor="end" x="79" y="5.25" style="font-family: Arial; font-size: 15px; fill: rgb(51, 65, 85); fill-opacity: 1; white-space: pre;" transform="translate(0,273.87)">2,000</text></g></g><g class="overaxes-above"><g class="x2y4-x" /><g class="x2y4-y"><g class="y4tick"><text text-anchor="start" x="911.9599999999999" y="5.25" transform="translate(0,490)" style="font-family: Arial; font-size: 15px; fill: rgb(51, 65, 85); fill-opacity: 1; white-space: pre;">0%</text></g><g class="y4tick"><text text-anchor="start" x="911.9599999999999" y="5.25" style="font-family: Arial; font-size: 15px; fill: rgb(51, 65, 85); fill-opacity: 1; white-space: pre;" transform="translate(0,441.85)">20%</text></g><g class="y4tick"><text text-anchor="start" x="911.9599999999999" y="5.25" style="font-family: Arial; font-size: 15px; fill: rgb(51, 65, 85); fill-opacity: 1; white-space: pre;" transform="translate(0,393.69)">40%</text></g><g class="y4tick"><text text-anchor="start" x="911.9599999999999" y="5.25" style="font-family: Arial; font-size: 15px; fill: rgb(51, 65, 85); fill-opacity: 1; white-space: pre;" transform="translate(0,345.54)">60%</text></g><g class="y4tick"><text text-anchor="start" x="911.9599999999999" y="5.25" style="font-family: Arial; font-size: 15px; fill: rgb(51, 65, 85); fill-opacity: 1; white-space: pre;" transform="translate(0,297.39)">80%</text></g></g></g></g><g class="subplot xy2" /><g class="subplot x2y4" /></g><g class="polarlayer" /><g class="smithlayer" /><g class="ternarylayer" /><g class="geolayer" /><g class="funnelarealayer" /><g class="pielayer" /><g class="iciclelayer" /><g class="treemaplayer" /><g class="sunburstlayer" /><g class="glimages" /><defs id="topdefs-3929a7"><g class="clips" /><clipPath id="legend3929a7"><rect width="156" height="55" x="0" y="0" /></clipPath></defs><g class="layer-above"><g class="imagelayer" /><g class="shapelayer"><g class="shape-group" data-index="0" clip-path="url(#clip3929a7x2)"><path data-index="0" fill-rule="evenodd" d="M80,490H496.24V273.31H80Z" style="opacity: 1; stroke: rgb(0, 0, 0); stroke-opacity: 0; fill: rgb(245, 158, 11); fill-opacity: 0.14; stroke-width: 0px;" /></g><g class="shape-group" data-index="1" clip-path="url(#clip3929a7x2)"><path data-index="1" fill-rule="evenodd" d="M496.24,490H910.96V273.31H496.24Z" style="opacity: 1; stroke: rgb(0, 0, 0); stroke-opacity: 0; fill: rgb(16, 185, 129); fill-opacity: 0.12; stroke-width: 0px;" /></g><g class="shape-group" data-index="2" clip-path="url(#clip3929a7x2)"><path data-index="2" fill-rule="evenodd" d="M496.24,490L496.24,273.31" style="opacity: 1; stroke: rgb(109, 40, 217); stroke-opacity: 1; fill: rgb(0, 0, 0); fill-opacity: 0; stroke-dasharray: 3px, 3px; stroke-width: 2px;" /></g></g></g><g class="infolayer"><g class="legend" pointer-events="all" transform="translate(981.6800000000001,24)"><rect class="bg" shape-rendering="crispEdges" style="stroke: rgb(68, 68, 68); stroke-opacity: 1; fill: rgb(255, 255, 255); fill-opacity: 1; stroke-width: 0px;" width="156" height="55" x="0" y="0" /><g class="scrollbox" transform="" clip-path="url(#legend3929a7)"><g class="groups"><g class="traces" transform="translate(0,16.25)" style="opacity: 1;"><text class="legendtext" text-anchor="start" x="40" y="5.85" style="font-family: Arial; font-size: 15px; fill: rgb(51, 65, 85); fill-opacity: 1; white-space: pre;">Training rows</text><g class="layers" style="opacity: 1;"><g class="legendfill" /><g class="legendlines" /><g class="legendsymbols"><g class="legendpoints"><path class="legendundefined" d="M6,6H-6V-6H6Z" transform="translate(20,0)" style="stroke-width: 0.5px; fill: rgb(99, 110, 250); fill-opacity: 1; stroke: rgb(255, 255, 255); stroke-opacity: 1;" /></g></g></g><rect class="legendtoggle" x="0" y="-11.25" width="150.046875" height="22.5" style="fill: rgb(0, 0, 0); fill-opacity: 0;" /></g><g class="traces" transform="translate(0,38.75)" style="opacity: 1;"><text class="legendtext" text-anchor="start" x="40" y="5.85" style="font-family: Arial; font-size: 15px; fill: rgb(51, 65, 85); fill-opacity: 1; white-space: pre;">Positive rate (%)</text><g class="layers" style="opacity: 1;"><g class="legendfill" /><g class="legendlines"><path class="js-line" d="M5,0h30" style="fill: none; stroke: rgb(99, 110, 250); stroke-opacity: 1; stroke-width: 2.4px;" /></g><g class="legendsymbols"><g class="legendpoints"><path class="scatterpts" transform="translate(20,0)" d="M3.5,0A3.5,3.5 0 1,1 0,-3.5A3.5,3.5 0 0,1 3.5,0Z" style="opacity: 1; stroke-width: 1px; fill: rgb(99, 110, 250); fill-opacity: 1; stroke: rgb(255, 255, 255); stroke-opacity: 1;" /></g></g></g><rect class="legendtoggle" x="0" y="-11.25" width="150.046875" height="22.5" style="fill: rgb(0, 0, 0); fill-opacity: 0;" /></g></g></g><rect class="scrollbar" rx="20" ry="3" width="0" height="0" style="fill: rgb(128, 139, 164); fill-opacity: 1;" x="0" y="0" /></g><g class="g-gtitle" /><g class="g-xtitle" /><g class="g-x2title"><text class="x2title" x="495.47999999999996" y="536.25625" text-anchor="middle" style="opacity: 1; font-family: Arial; font-size: 18px; fill: rgb(51, 65, 85); fill-opacity: 1; white-space: pre;">Reference Date</text></g><g class="g-ytitle"><text class="ytitle" transform="rotate(-90,33.16875,132.34500000000006)" x="33.16875" y="132.34500000000006" text-anchor="middle" style="opacity: 1; font-family: Arial; font-size: 18px; fill: rgb(51, 65, 85); fill-opacity: 1; white-space: pre;">Rows</text></g><g class="g-y2title"><text class="y2title" transform="rotate(-90,969.0912109375,132.34500000000006)" x="969.0912109375" y="132.34500000000006" text-anchor="middle" style="opacity: 1; font-family: Arial; font-size: 18px; fill: rgb(51, 65, 85); fill-opacity: 1; white-space: pre;">Rate (%)</text></g><g class="g-y3title"><text class="y3title" transform="rotate(-90,20.653125000000003,381.655)" x="20.653125000000003" y="381.655" text-anchor="middle" style="opacity: 1; font-family: Arial; font-size: 18px; fill: rgb(51, 65, 85); fill-opacity: 1; white-space: pre;">Rows</text></g><g class="g-y4title"><text class="y4title" transform="rotate(-90,969.0912109375,381.655)" x="969.0912109375" y="381.655" text-anchor="middle" style="opacity: 1; font-family: Arial; font-size: 18px; fill: rgb(51, 65, 85); fill-opacity: 1; white-space: pre;">Rate (%)</text></g><g class="annotation" data-index="0" style="opacity: 1;"><g class="annotation-text-g" transform="rotate(0,495.47999999999996,13.500000000000048)"><g class="cursor-pointer" transform="translate(410,3)"><rect class="bg" x="0.5" y="0.5" width="170" height="20" style="stroke-width: 1px; stroke: rgb(0, 0, 0); stroke-opacity: 0; fill: rgb(0, 0, 0); fill-opacity: 0;" /><text class="annotation-text" text-anchor="middle" x="85.6015625" y="16" style="font-family: Arial; font-size: 16px; fill: rgb(51, 65, 85); fill-opacity: 1; white-space: pre;">Churn (30-60d inactive)</text></g></g></g><g class="annotation" data-index="1" style="opacity: 1;"><g class="annotation-text-g" transform="rotate(0,495.47999999999996,262.81)"><g class="cursor-pointer" transform="translate(425,252)"><rect class="bg" x="0.5" y="0.5" width="140" height="20" style="stroke-width: 1px; stroke: rgb(0, 0, 0); stroke-opacity: 0; fill: rgb(0, 0, 0); fill-opacity: 0;" /><text class="annotation-text" text-anchor="middle" x="70.484375" y="16" style="font-family: Arial; font-size: 16px; fill: rgb(51, 65, 85); fill-opacity: 1; white-space: pre;">Redeem within 30d</text></g></g></g><g class="annotation" data-index="2" style="opacity: 1;"><g class="annotation-text-g" transform="rotate(0,311.58000000000004,282.81)"><g class="cursor-pointer" transform="translate(232,273)"><rect class="bg" x="0.5" y="0.5" width="158" height="18" style="stroke-width: 1px; stroke: rgb(245, 158, 11); stroke-opacity: 0.55; fill: rgb(255, 247, 237); fill-opacity: 0.96;" /><text class="annotation-text" text-anchor="middle" x="79.3203125" y="14" style="font-family: Arial; font-size: 13px; fill: rgb(146, 64, 14); fill-opacity: 1; white-space: pre;">Reward threshold: 5.5k pts</text></g></g></g><g class="annotation" data-index="3" style="opacity: 1;"><g class="annotation-text-g" transform="rotate(0,679.38,282.81)"><g class="cursor-pointer" transform="translate(600,273)"><rect class="bg" x="0.5" y="0.5" width="158" height="18" style="stroke-width: 1px; stroke: rgb(16, 185, 129); stroke-opacity: 0.45; fill: rgb(236, 253, 245); fill-opacity: 0.96;" /><text class="annotation-text" text-anchor="middle" x="79.3203125" y="14" style="font-family: Arial; font-size: 13px; fill: rgb(6, 95, 70); fill-opacity: 1; white-space: pre;">Reward threshold: 5.0k pts</text></g></g></g><g class="annotation" data-index="4" style="opacity: 1;"><g class="annotation-text-g" transform="rotate(0,578.1600000000001,355.42)"><g class="cursor-pointer" transform="translate(509,346)"><rect class="bg" x="0.5" y="0.5" width="138" height="17" style="stroke-width: 1px; stroke: rgb(0, 0, 0); stroke-opacity: 0; fill: rgb(255, 237, 213); fill-opacity: 0.9;" /><text class="annotation-text" text-anchor="middle" x="69.3828125" y="13" style="font-family: Arial; font-size: 12px; fill: rgb(124, 45, 18); fill-opacity: 1; white-space: pre;">Redemption peak: 36.0%</text></g></g><g class="annotation-arrow-g" style="opacity: 1;"><path d="M571.9620833333335,363.92L543.1600000000001,403.42" style="stroke-width: 1px; stroke: rgb(42, 63, 95); stroke-opacity: 1; stroke-dasharray: 0px, 0px, 47.5857px, 48.8857px;" /><path d="M-3.7,-2.5V2.5L1.3,0Z" transform="translate(543.9259033203125,402.3695983886719)rotate(126.08651009578625)" style="fill: rgb(42, 63, 95); stroke-width: 0;" /></g></g></g></g></svg>