<svg xmlns="http://www.w3.org/2000/svg" class="main-svg" width="1150" height="480" style="" viewBox="0 0 1150 480"><defs id="defs-4de7bd"><g class="clips"><clipPath id="clip4de7bdxyplot" class="plotclip"><rect width="457.6" height="338" /></clipPath><clipPath id="clip4de7bdx2y2plot" class="plotclip"><rect width="457.59999999999997" height="338" /></clipPath><clipPath class="axesclip" id="clip4de7bdx"><rect x="80" y="0" width="457.6" height="480" /></clipPath><clipPath class="axesclip" id="clip4de7bdy"><rect x="0" y="72" width="1150" height="338" /></clipPath><clipPath class="axesclip" id="clip4de7bdxy"><rect x="80" y="72" width="457.6" height="338" /></clipPath><clipPath class="axesclip" id="clip4de7bdy2"><rect x="0" y="72" width="1150" height="338" /></clipPath><clipPath class="axesclip" id="clip4de7bdxy2"><rect x="80" y="72" width="457.6" height="338" /></clipPath><clipPath class="axesclip" id="clip4de7bdx2"><rect x="662.4000000000001" y="0" width="457.59999999999997" height="480" /></clipPath><clipPath class="axesclip" id="clip4de7bdx2y"><rect x="662.4000000000001" y="72" width="457.59999999999997" height="338" /></clipPath><clipPath class="axesclip" id="clip4de7bdx2y2"><rect x="662.4000000000001" y="72" width="457.59999999999997" height="338" /></clipPath></g><g class="gradients" /><g class="patterns" /><clipPath id="rounded-canvas-clip"><rect x="0" y="0" width="1150" height="480" rx="24" ry="24" /></clipPath></defs><g clip-path="url(#rounded-canvas-clip)"><rect x="0" y="0" width="1150" height="480" style="fill: rgb(255, 255, 255); fill-opacity: 1;" fill="rgb(255, 255, 255)" fill-opacity="1" rx="24" ry="24" /><g class="bglayer" /><g class="layer-below"><g class="imagelayer" /><g class="shapelayer" /></g><g class="cartesianlayer"><g class="subplot xy"><g class="layer-subplot"><g class="shapelayer" /><g class="imagelayer" /></g><g class="minor-gridlayer"><g class="x" /><g class="y" /></g><g class="gridlayer"><g class="x"><path class="xgrid crisp" transform="translate(107.88,0)" d="M0,72v338" style="stroke: rgb(226, 232, 240); stroke-opacity: 1; stroke-width: 1px;" /><path class="xgrid crisp" transform="translate(152.53,0)" d="M0,72v338" style="stroke: rgb(226, 232, 240); stroke-opacity: 1; stroke-width: 1px;" /><path class="xgrid crisp" transform="translate(197.18,0)" d="M0,72v338" style="stroke: rgb(226, 232, 240); stroke-opacity: 1; stroke-width: 1px;" /><path class="xgrid crisp" transform="translate(241.83,0)" d="M0,72v338" style="stroke: rgb(226, 232, 240); stroke-opacity: 1; stroke-width: 1px;" /><path class="xgrid crisp" transform="translate(286.48,0)" d="M0,72v338" style="stroke: rgb(226, 232, 240); stroke-opacity: 1; stroke-width: 1px;" /><path class="xgrid crisp" transform="translate(331.12,0)" d="M0,72v338" style="stroke: rgb(226, 232, 240); stroke-opacity: 1; stroke-width: 1px;" /><path class="xgrid crisp" transform="translate(375.77,0)" d="M0,72v338" style="stroke: rgb(226, 232, 240); stroke-opacity: 1; stroke-width: 1px;" /><path class="xgrid crisp" transform="translate(420.42,0)" d="M0,72v338" style="stroke: rgb(226, 232, 240); stroke-opacity: 1; stroke-width: 1px;" /><path class="xgrid crisp" transform="translate(465.07,0)" d="M0,72v338" style="stroke: rgb(226, 232, 240); stroke-opacity: 1; stroke-width: 1px;" /><path class="xgrid crisp" transform="translate(509.72,0)" d="M0,72v338" style="stroke: rgb(226, 232, 240); stroke-opacity: 1; stroke-width: 1px;" /></g><g class="y"><path class="ygrid crisp" transform="translate(0,342.4)" d="M80,0h457.6" style="stroke: rgb(226, 232, 240); stroke-opacity: 1; stroke-width: 1px;" /><path class="ygrid crisp" transform="translate(0,274.8)" d="M80,0h457.6" style="stroke: rgb(226, 232, 240); stroke-opacity: 1; stroke-width: 1px;" /><path class="ygrid crisp" transform="translate(0,207.2)" d="M80,0h457.6" style="stroke: rgb(226, 232, 240); stroke-opacity: 1; stroke-width: 1px;" /><path class="ygrid crisp" transform="translate(0,139.6)" d="M80,0h457.6" style="stroke: rgb(226, 232, 240); stroke-opacity: 1; stroke-width: 1px;" /></g></g><g class="zerolinelayer"><path class="yzl zl crisp" transform="translate(0,410)" d="M80,0h457.6" style="stroke: rgb(235, 240, 248); stroke-opacity: 1; stroke-width: 2px;" /></g><g class="layer-between"><g class="shapelayer" /><g class="imagelayer" /></g><path class="xlines-below" /><path class="ylines-below" /><g class="overlines-below" /><g class="xaxislayer-below" /><g class="yaxislayer-below" /><g class="overaxes-below" /><g class="overplot"><g class="xy" transform="translate(80,72)" clip-path="url(#clip4de7bdxyplot)"><g class="scatterlayer mlayer"><g class="trace scatter trace924a67" style="stroke-miterlimit: 2; opacity: 1;"><g class="fills" /><g class="errorbars" /><g class="lines"><path class="js-line" d="M27.88,267.17L72.53,234.41L117.18,212.49L161.83,191.16L206.48,168.81L251.12,145.17L295.77,116.52L340.42,78.69L385.07,54.15L429.72,30.83" style="vector-effect: none; fill: none; stroke: rgb(5, 150, 105); stroke-opacity: 1; stroke-dasharray: 9px, 9px; stroke-width: 2.6px; opacity: 1;" /></g><g class="points"><path class="point" transform="translate(27.88,267.17)" d="M4,0A4,4 0 1,1 0,-4A4,4 0 0,1 4,0Z" style="opacity: 1; stroke-width: 0px; fill: rgb(5, 150, 105); fill-opacity: 1;" /><path class="point" transform="translate(72.53,234.41)" d="M4,0A4,4 0 1,1 0,-4A4,4 0 0,1 4,0Z" style="opacity: 1; stroke-width: 0px; fill: rgb(5, 150, 105); fill-opacity: 1;" /><path class="point" transform="translate(117.18,212.49)" d="M4,0A4,4 0 1,1 0,-4A4,4 0 0,1 4,0Z" style="opacity: 1; stroke-width: 0px; fill: rgb(5, 150, 105); fill-opacity: 1;" /><path class="point" transform="translate(161.83,191.16)" d="M4,0A4,4 0 1,1 0,-4A4,4 0 0,1 4,0Z" style="opacity: 1; stroke-width: 0px; fill: rgb(5, 150, 105); fill-opacity: 1;" /><path class="point" transform="translate(206.48,168.81)" d="M4,0A4,4 0 1,1 0,-4A4,4 0 0,1 4,0Z" style="opacity: 1; stroke-width: 0px; fill: rgb(5, 150, 105); fill-opacity: 1;" /><path class="point" transform="translate(251.12,145.17)" d="M4,0A4,4 0 1,1 0,-4A4,4 0 0,1 4,0Z" style="opacity: 1; stroke-width: 0px; fill: rgb(5, 150, 105); fill-opacity: 1;" /><path class="point" transform="translate(295.77,116.52)" d="M4,0A4,4 0 1,1 0,-4A4,4 0 0,1 4,0Z" style="opacity: 1; stroke-width: 0px; fill: rgb(5, 150, 105); fill-opacity: 1;" /><path class="point" transform="translate(340.42,78.69)" d="M4,0A4,4 0 1,1 0,-4A4,4 0 0,1 4,0Z" style="opacity: 1; stroke-width: 0px; fill: rgb(5, 150, 105); fill-opacity: 1;" /><path class="point" transform="translate(385.07,54.15)" d="M4,0A4,4 0 1,1 0,-4A4,4 0 0,1 4,0Z" style="opacity: 1; stroke-width: 0px; fill: rgb(5, 150, 105); fill-opacity: 1;" /><path class="point" transform="translate(429.72,30.83)" d="M4,0A4,4 0 1,1 0,-4A4,4 0 0,1 4,0Z" style="opacity: 1; stroke-width: 0px; fill: rgb(5, 150, 105); fill-opacity: 1;" /></g><g class="text" /></g><g class="trace scatter trace0b46d3" style="stroke-miterlimit: 2; opacity: 1;"><g class="fills" /><g class="errorbars" /><g class="lines"><path class="js-line" d="M27.88,241.43L72.53,229.84L117.18,197.39L161.83,151.42L206.48,110.86L251.12,89.23L295.77,62.19L340.42,16.22L385.07,43.26L429.72,18.93" style="vector-effect: none; fill: none; stroke: rgb(234, 88, 12); stroke-opacity: 1; stroke-width: 3px; opacity: 1;" /></g><g class="points"><path class="point" transform="translate(27.88,241.43)" d="M4,0A4,4 0 1,1 0,-4A4,4 0 0,1 4,0Z" style="opacity: 1; stroke-width: 1.2px; fill: rgb(234, 88, 12); fill-opacity: 1; stroke: rgb(255, 255, 255); stroke-opacity: 1;" /><path class="point" transform="translate(72.53,229.84)" d="M4,0A4,4 0 1,1 0,-4A4,4 0 0,1 4,0Z" style="opacity: 1; stroke-width: 1.2px; fill: rgb(234, 88, 12); fill-opacity: 1; stroke: rgb(255, 255, 255); stroke-opacity: 1;" /><path class="point" transform="translate(117.18,197.39)" d="M4,0A4,4 0 1,1 0,-4A4,4 0 0,1 4,0Z" style="opacity: 1; stroke-width: 1.2px; fill: rgb(234, 88, 12); fill-opacity: 1; stroke: rgb(255, 255, 255); stroke-opacity: 1;" /><path class="point" transform="translate(161.83,151.42)" d="M4,0A4,4 0 1,1 0,-4A4,4 0 0,1 4,0Z" style="opacity: 1; stroke-width: 1.2px; fill: rgb(234, 88, 12); fill-opacity: 1; stroke: rgb(255, 255, 255); stroke-opacity: 1;" /><path class="point" transform="translate(206.48,110.86)" d="M4,0A4,4 0 1,1 0,-4A4,4 0 0,1 4,0Z" style="opacity: 1; stroke-width: 1.2px; fill: rgb(234, 88, 12); fill-opacity: 1; stroke: rgb(255, 255, 255); stroke-opacity: 1;" /><path class="point" transform="translate(251.12,89.23)" d="M4,0A4,4 0 1,1 0,-4A4,4 0 0,1 4,0Z" style="opacity: 1; stroke-width: 1.2px; fill: rgb(234, 88, 12); fill-opacity: 1; stroke: rgb(255, 255, 255); stroke-opacity: 1;" /><path class="point" transform="translate(295.77,62.19)" d="M4,0A4,4 0 1,1 0,-4A4,4 0 0,1 4,0Z" style="opacity: 1; stroke-width: 1.2px; fill: rgb(234, 88, 12); fill-opacity: 1; stroke: rgb(255, 255, 255); stroke-opacity: 1;" /><path class="point" transform="translate(340.42,16.22)" d="M4,0A4,4 0 1,1 0,-4A4,4 0 0,1 4,0Z" style="opacity: 1; stroke-width: 1.2px; fill: rgb(234, 88, 12); fill-opacity: 1; stroke: rgb(255, 255, 255); stroke-opacity: 1;" /><path class="point" transform="translate(385.07,43.26)" d="M4,0A4,4 0 1,1 0,-4A4,4 0 0,1 4,0Z" style="opacity: 1; stroke-width: 1.2px; fill: rgb(234, 88, 12); fill-opacity: 1; stroke: rgb(255, 255, 255); stroke-opacity: 1;" /><path class="point" transform="translate(429.72,18.93)" d="M4,0A4,4 0 1,1 0,-4A4,4 0 0,1 4,0Z" style="opacity: 1; stroke-width: 1.2px; fill: rgb(234, 88, 12); fill-opacity: 1; stroke: rgb(255, 255, 255); stroke-opacity: 1;" /></g><g class="text" /></g></g></g></g><g class="zerolinelayer-above" /><path class="xlines-above crisp" d="M0,0" style="fill: none;" /><path class="ylines-above crisp" d="M0,0" style="fill: none;" /><g class="overlines-above" /><g class="xaxislayer-above"><g class="xtick"><text text-anchor="middle" x="0" y="426" transform="translate(107.88,0)" style="font-family: Arial; font-size: 15px; fill: rgb(51, 65, 85); fill-opacity: 1; white-space: pre;">1</text></g><g class="xtick"><text text-anchor="middle" x="0" y="426" transform="translate(152.53,0)" style="font-family: Arial; font-size: 15px; fill: rgb(51, 65, 85); fill-opacity: 1; white-space: pre;">2</text></g><g class="xtick"><text text-anchor="middle" x="0" y="426" transform="translate(197.18,0)" style="font-family: Arial; font-size: 15px; fill: rgb(51, 65, 85); fill-opacity: 1; white-space: pre;">3</text></g><g class="xtick"><text text-anchor="middle" x="0" y="426" transform="translate(241.83,0)" style="font-family: Arial; font-size: 15px; fill: rgb(51, 65, 85); fill-opacity: 1; white-space: pre;">4</text></g><g class="xtick"><text text-anchor="middle" x="0" y="426" transform="translate(286.48,0)" style="font-family: Arial; font-size: 15px; fill: rgb(51, 65, 85); fill-opacity: 1; white-space: pre;">5</text></g><g class="xtick"><text text-anchor="middle" x="0" y="426" transform="translate(331.12,0)" style="font-family: Arial; font-size: 15px; fill: rgb(51, 65, 85); fill-opacity: 1; white-space: pre;">6</text></g><g class="xtick"><text text-anchor="middle" x="0" y="426" transform="translate(375.77,0)" style="font-family: Arial; font-size: 15px; fill: rgb(51, 65, 85); fill-opacity: 1; white-space: pre;">7</text></g><g class="xtick"><text text-anchor="middle" x="0" y="426" transform="translate(420.42,0)" style="font-family: Arial; font-size: 15px; fill: rgb(51, 65, 85); fill-opacity: 1; white-space: pre;">8</text></g><g class="xtick"><text text-anchor="middle" x="0" y="426" transform="translate(465.07,0)" style="font-family: Arial; font-size: 15px; fill: rgb(51, 65, 85); fill-opacity: 1; white-space: pre;">9</text></g><g class="xtick"><text text-anchor="middle" x="0" y="426" transform="translate(509.72,0)" style="font-family: Arial; font-size: 15px; fill: rgb(51, 65, 85); fill-opacity: 1; white-space: pre;">10</text></g></g><g class="yaxislayer-above"><g class="ytick"><text text-anchor="end" x="79" y="5.25" transform="translate(0,410)" style="font-family: Arial; font-size: 15px; fill: rgb(51, 65, 85); fill-opacity: 1; white-space: pre;">0%</text></g><g class="ytick"><text text-anchor="end" x="79" y="5.25" style="font-family: Arial; font-size: 15px; fill: rgb(51, 65, 85); fill-opacity: 1; white-space: pre;" transform="translate(0,342.4)">20%</text></g><g class="ytick"><text text-anchor="end" x="79" y="5.25" style="font-family: Arial; font-size: 15px; fill: rgb(51, 65, 85); fill-opacity: 1; white-space: pre;" transform="translate(0,274.8)">40%</text></g><g class="ytick"><text text-anchor="end" x="79" y="5.25" style="font-family: Arial; font-size: 15px; fill: rgb(51, 65, 85); fill-opacity: 1; white-space: pre;" transform="translate(0,207.2)">60%</text></g><g class="ytick"><text text-anchor="end" x="79" y="5.25" style="font-family: Arial; font-size: 15px; fill: rgb(51, 65, 85); fill-opacity: 1; white-space: pre;" transform="translate(0,139.6)">80%</text></g><g class="ytick"><text text-anchor="end" x="79" y="5.25" style="font-family: Arial; font-size: 15px; fill: rgb(51, 65, 85); fill-opacity: 1; white-space: pre;" transform="translate(0,72)">100%</text></g></g><g class="overaxes-above" /></g><g class="subplot x2y2"><g class="layer-subplot"><g class="shapelayer" /><g class="imagelayer" /></g><g class="minor-gridlayer"><g class="x2" /><g class="y2" /></g><g class="gridlayer"><g class="x2"><path class="x2grid crisp" transform="translate(690.2800000000001,0)" d="M0,72v338" style="stroke: rgb(226, 232, 240); stroke-opacity: 1; stroke-width: 1px;" /><path class="x2grid crisp" transform="translate(734.9300000000001,0)" d="M0,72v338" style="stroke: rgb(226, 232, 240); stroke-opacity: 1; stroke-width: 1px;" /><path class="x2grid crisp" transform="translate(779.5800000000002,0)" d="M0,72v338" style="stroke: rgb(226, 232, 240); stroke-opacity: 1; stroke-width: 1px;" /><path class="x2grid crisp" transform="translate(824.2300000000001,0)" d="M0,72v338" style="stroke: rgb(226, 232, 240); stroke-opacity: 1; stroke-width: 1px;" /><path class="x2grid crisp" transform="translate(868.8800000000001,0)" d="M0,72v338" style="stroke: rgb(226, 232, 240); stroke-opacity: 1; stroke-width: 1px;" /><path class="x2grid crisp" transform="translate(913.5200000000001,0)" d="M0,72v338" style="stroke: rgb(226, 232, 240); stroke-opacity: 1; stroke-width: 1px;" /><path class="x2grid crisp" transform="translate(958.1700000000001,0)" d="M0,72v338" style="stroke: rgb(226, 232, 240); stroke-opacity: 1; stroke-width: 1px;" /><path class="x2grid crisp" transform="translate(1002.8200000000002,0)" d="M0,72v338" style="stroke: rgb(226, 232, 240); stroke-opacity: 1; stroke-width: 1px;" /><path class="x2grid crisp" transform="translate(1047.47,0)" d="M0,72v338" style="stroke: rgb(226, 232, 240); stroke-opacity: 1; stroke-width: 1px;" /><path class="x2grid crisp" transform="translate(1092.1200000000001,0)" d="M0,72v338" style="stroke: rgb(226, 232, 240); stroke-opacity: 1; stroke-width: 1px;" /></g><g class="y2"><path class="y2grid crisp" transform="translate(0,342.4)" d="M662.4000000000001,0h457.59999999999997" style="stroke: rgb(226, 232, 240); stroke-opacity: 1; stroke-width: 1px;" /><path class="y2grid crisp" transform="translate(0,274.8)" d="M662.4000000000001,0h457.59999999999997" style="stroke: rgb(226, 232, 240); stroke-opacity: 1; stroke-width: 1px;" /><path class="y2grid crisp" transform="translate(0,207.2)" d="M662.4000000000001,0h457.59999999999997" style="stroke: rgb(226, 232, 240); stroke-opacity: 1; stroke-width: 1px;" /><path class="y2grid crisp" transform="translate(0,139.6)" d="M662.4000000000001,0h457.59999999999997" style="stroke: rgb(226, 232, 240); stroke-opacity: 1; stroke-width: 1px;" /></g></g><g class="zerolinelayer"><path class="y2zl zl crisp" transform="translate(0,410)" d="M662.4000000000001,0h457.59999999999997" style="stroke: rgb(235, 240, 248); stroke-opacity: 1; stroke-width: 2px;" /></g><g class="layer-between"><g class="shapelayer" /><g class="imagelayer" /></g><path class="xlines-below" /><path class="ylines-below" /><g class="overlines-below" /><g class="xaxislayer-below" /><g class="yaxislayer-below" /><g class="overaxes-below" /><g class="overplot"><g class="x2y2" transform="translate(662.4000000000001,72)" clip-path="url(#clip4de7bdx2y2plot)"><g class="scatterlayer mlayer"><g class="trace scatter tracece5d4b" style="stroke-miterlimit: 2; opacity: 1;"><g class="fills" /><g class="errorbars" /><g class="lines"><path class="js-line" d="M27.88,337.96L72.53,337.78L117.18,336.53L161.83,330.8L206.48,302.33L251.12,195.83L295.77,95.32L340.42,49.92L385.07,25.14L429.72,8.9" style="vector-effect: none; fill: none; stroke: rgb(5, 150, 105); stroke-opacity: 1; stroke-dasharray: 9px, 9px; stroke-width: 2.6px; opacity: 1;" /></g><g class="points"><path class="point" transform="translate(27.88,337.96)" d="M4,0A4,4 0 1,1 0,-4A4,4 0 0,1 4,0Z" style="opacity: 1; stroke-width: 0px; fill: rgb(5, 150, 105); fill-opacity: 1;" /><path class="point" transform="translate(72.53,337.78)" d="M4,0A4,4 0 1,1 0,-4A4,4 0 0,1 4,0Z" style="opacity: 1; stroke-width: 0px; fill: rgb(5, 150, 105); fill-opacity: 1;" /><path class="point" transform="translate(117.18,336.53)" d="M4,0A4,4 0 1,1 0,-4A4,4 0 0,1 4,0Z" style="opacity: 1; stroke-width: 0px; fill: rgb(5, 150, 105); fill-opacity: 1;" /><path class="point" transform="translate(161.83,330.8)" d="M4,0A4,4 0 1,1 0,-4A4,4 0 0,1 4,0Z" style="opacity: 1; stroke-width: 0px; fill: rgb(5, 150, 105); fill-opacity: 1;" /><path class="point" transform="translate(206.48,302.33)" d="M4,0A4,4 0 1,1 0,-4A4,4 0 0,1 4,0Z" style="opacity: 1; stroke-width: 0px; fill: rgb(5, 150, 105); fill-opacity: 1;" /><path class="point" transform="translate(251.12,195.83)" d="M4,0A4,4 0 1,1 0,-4A4,4 0 0,1 4,0Z" style="opacity: 1; stroke-width: 0px; fill: rgb(5, 150, 105); fill-opacity: 1;" /><path class="point" transform="translate(295.77,95.32)" d="M4,0A4,4 0 1,1 0,-4A4,4 0 0,1 4,0Z" style="opacity: 1; stroke-width: 0px; fill: rgb(5, 150, 105); fill-opacity: 1;" /><path class="point" transform="translate(340.42,49.92)" d="M4,0A4,4 0 1,1 0,-4A4,4 0 0,1 4,0Z" style="opacity: 1; stroke-width: 0px; fill: rgb(5, 150, 105); fill-opacity: 1;" /><path class="point" transform="translate(385.07,25.14)" d="M4,0A4,4 0 1,1 0,-4A4,4 0 0,1 4,0Z" style="opacity: 1; stroke-width: 0px; fill: rgb(5, 150, 105); fill-opacity: 1;" /><path class="point" transform="translate(429.72,8.9)" d="M4,0A4,4 0 1,1 0,-4A4,4 0 0,1 4,0Z" style="opacity: 1; stroke-width: 0px; fill: rgb(5, 150, 105); fill-opacity: 1;" /></g><g class="text" /></g><g class="trace scatter traceb9b163" style="stroke-miterlimit: 2; opacity: 1;"><g class="fills" /><g class="errorbars" /><g class="lines"><path class="js-line" d="M27.88,338L72.53,336.76L117.18,336.76L161.83,334.29L206.48,319.79L251.12,238.42L295.77,103.82L340.42,46.49L385.07,22.64L429.72,14.14" style="vector-effect: none; fill: none; stroke: rgb(234, 88, 12); stroke-opacity: 1; stroke-width: 3px; opacity: 1;" /></g><g class="points"><path class="point" transform="translate(27.88,338)" d="M4,0A4,4 0 1,1 0,-4A4,4 0 0,1 4,0Z" style="opacity: 1; stroke-width: 1.2px; fill: rgb(234, 88, 12); fill-opacity: 1; stroke: rgb(255, 255, 255); stroke-opacity: 1;" /><path class="point" transform="translate(72.53,336.76)" d="M4,0A4,4 0 1,1 0,-4A4,4 0 0,1 4,0Z" style="opacity: 1; stroke-width: 1.2px; fill: rgb(234, 88, 12); fill-opacity: 1; stroke: rgb(255, 255, 255); stroke-opacity: 1;" /><path class="point" transform="translate(117.18,336.76)" d="M4,0A4,4 0 1,1 0,-4A4,4 0 0,1 4,0Z" style="opacity: 1; stroke-width: 1.2px; fill: rgb(234, 88, 12); fill-opacity: 1; stroke: rgb(255, 255, 255); stroke-opacity: 1;" /><path class="point" transform="translate(161.83,334.29)" d="M4,0A4,4 0 1,1 0,-4A4,4 0 0,1 4,0Z" style="opacity: 1; stroke-width: 1.2px; fill: rgb(234, 88, 12); fill-opacity: 1; stroke: rgb(255, 255, 255); stroke-opacity: 1;" /><path class="point" transform="translate(206.48,319.79)" d="M4,0A4,4 0 1,1 0,-4A4,4 0 0,1 4,0Z" style="opacity: 1; stroke-width: 1.2px; fill: rgb(234, 88, 12); fill-opacity: 1; stroke: rgb(255, 255, 255); stroke-opacity: 1;" /><path class="point" transform="translate(251.12,238.42)" d="M4,0A4,4 0 1,1 0,-4A4,4 0 0,1 4,0Z" style="opacity: 1; stroke-width: 1.2px; fill: rgb(234, 88, 12); fill-opacity: 1; stroke: rgb(255, 255, 255); stroke-opacity: 1;" /><path class="point" transform="translate(295.77,103.82)" d="M4,0A4,4 0 1,1 0,-4A4,4 0 0,1 4,0Z" style="opacity: 1; stroke-width: 1.2px; fill: rgb(234, 88, 12); fill-opacity: 1; stroke: rgb(255, 255, 255); stroke-opacity: 1;" /><path class="point" transform="translate(340.42,46.49)" d="M4,0A4,4 0 1,1 0,-4A4,4 0 0,1 4,0Z" style="opacity: 1; stroke-width: 1.2px; fill: rgb(234, 88, 12); fill-opacity: 1; stroke: rgb(255, 255, 255); stroke-opacity: 1;" /><path class="point" transform="translate(385.07,22.64)" d="M4,0A4,4 0 1,1 0,-4A4,4 0 0,1 4,0Z" style="opacity: 1; stroke-width: 1.2px; fill: rgb(234, 88, 12); fill-opacity: 1; stroke: rgb(255, 255, 255); stroke-opacity: 1;" /><path class="point" transform="translate(429.72,14.14)" d="M4,0A4,4 0 1,1 0,-4A4,4 0 0,1 4,0Z" style="opacity: 1; stroke-width: 1.2px; fill: rgb(234, 88, 12); fill-opacity: 1; stroke: rgb(255, 255, 255); stroke-opacity: 1;" /></g><g class="text" /></g></g></g></g><g class="zerolinelayer-above" /><path class="xlines-above crisp" d="M0,0" style="fill: none;" /><path class="ylines-above crisp" d="M0,0" style="fill: none;" /><g class="overlines-above" /><g class="xaxislayer-above"><g class="x2tick"><text text-anchor="middle" x="0" y="426" transform="translate(690.2800000000001,0)" style="font-family: Arial; font-size: 15px; fill: rgb(51, 65, 85); fill-opacity: 1; white-space: pre;">1</text></g><g class="x2tick"><text text-anchor="middle" x="0" y="426" transform="translate(734.9300000000001,0)" style="font-family: Arial; font-size: 15px; fill: rgb(51, 65, 85); fill-opacity: 1; white-space: pre;">2</text></g><g class="x2tick"><text text-anchor="middle" x="0" y="426" transform="translate(779.5800000000002,0)" style="font-family: Arial; font-size: 15px; fill: rgb(51, 65, 85); fill-opacity: 1; white-space: pre;">3</text></g><g class="x2tick"><text text-anchor="middle" x="0" y="426" transform="translate(824.2300000000001,0)" style="font-family: Arial; font-size: 15px; fill: rgb(51, 65, 85); fill-opacity: 1; white-space: pre;">4</text></g><g class="x2tick"><text text-anchor="middle" x="0" y="426" transform="translate(868.8800000000001,0)" style="font-family: Arial; font-size: 15px; fill: rgb(51, 65, 85); fill-opacity: 1; white-space: pre;">5</text></g><g class="x2tick"><text text-anchor="middle" x="0" y="426" transform="translate(913.5200000000001,0)" style="font-family: Arial; font-size: 15px; fill: rgb(51, 65, 85); fill-opacity: 1; white-space: pre;">6</text></g><g class="x2tick"><text text-anchor="middle" x="0" y="426" transform="translate(958.1700000000001,0)" style="font-family: Arial; font-size: 15px; fill: rgb(51, 65, 85); fill-opacity: 1; white-space: pre;">7</text></g><g class="x2tick"><text text-anchor="middle" x="0" y="426" transform="translate(1002.8200000000002,0)" style="font-family: Arial; font-size: 15px; fill: rgb(51, 65, 85); fill-opacity: 1; white-space: pre;">8</text></g><g class="x2tick"><text text-anchor="middle" x="0" y="426" transform="translate(1047.47,0)" style="font-family: Arial; font-size: 15px; fill: rgb(51, 65, 85); fill-opacity: 1; white-space: pre;">9</text></g><g class="x2tick"><text text-anchor="middle" x="0" y="426" transform="translate(1092.1200000000001,0)" style="font-family: Arial; font-size: 15px; fill: rgb(51, 65, 85); fill-opacity: 1; white-space: pre;">10</text></g></g><g class="yaxislayer-above"><g class="y2tick"><text text-anchor="end" x="661.4000000000001" y="5.25" transform="translate(0,410)" style="font-family: Arial; font-size: 15px; fill: rgb(51, 65, 85); fill-opacity: 1; white-space: pre;">0%</text></g><g class="y2tick"><text text-anchor="end" x="661.4000000000001" y="5.25" style="font-family: Arial; font-size: 15px; fill: rgb(51, 65, 85); fill-opacity: 1; white-space: pre;" transform="translate(0,342.4)">20%</text></g><g class="y2tick"><text text-anchor="end" x="661.4000000000001" y="5.25" style="font-family: Arial; font-size: 15px; fill: rgb(51, 65, 85); fill-opacity: 1; white-space: pre;" transform="translate(0,274.8)">40%</text></g><g class="y2tick"><text text-anchor="end" x="661.4000000000001" y="5.25" style="font-family: Arial; font-size: 15px; fill: rgb(51, 65, 85); fill-opacity: 1; white-space: pre;" transform="translate(0,207.2)">60%</text></g><g class="y2tick"><text text-anchor="end" x="661.4000000000001" y="5.25" style="font-family: Arial; font-size: 15px; fill: rgb(51, 65, 85); fill-opacity: 1; white-space: pre;" transform="translate(0,139.6)">80%</text></g><g class="y2tick"><text text-anchor="end" x="661.4000000000001" y="5.25" style="font-family: Arial; font-size: 15px; fill: rgb(51, 65, 85); fill-opacity: 1; white-space: pre;" transform="translate(0,72)">100%</text></g></g><g class="overaxes-above" /></g></g><g class="polarlayer" /><g class="smithlayer" /><g class="ternarylayer" /><g class="geolayer" /><g class="funnelarealayer" /><g class="pielayer" /><g class="iciclelayer" /><g class="treemaplayer" /><g class="sunburstlayer" /><g class="glimages" /><defs id="topdefs-4de7bd"><g class="clips" /><clipPath id="legend4de7bd"><rect width="287" height="33" x="0" y="0" /></clipPath></defs><g class="layer-above"><g class="imagelayer" /><g class="shapelayer" /></g><g class="infolayer"><g class="legend" pointer-events="all" transform="translate(80,11.95999999999998)"><rect class="bg" shape-rendering="crispEdges" style="stroke: rgb(68, 68, 68); stroke-opacity: 1; fill: rgb(255, 255, 255); fill-opacity: 1; stroke-width: 0px;" width="287" height="33" x="0" y="0" /><g class="scrollbox" transform="" clip-path="url(#legend4de7bd)"><g class="groups"><g class="traces" transform="translate(0,16.25)" style="opacity: 1;"><text class="legendtext" text-anchor="start" x="40" y="5.85" style="font-family: Arial; font-size: 15px; fill: rgb(51, 65, 85); fill-opacity: 1; white-space: pre;">Average prediction</text><g class="layers" style="opacity: 1;"><g class="legendfill" /><g class="legendlines"><path class="js-line" d="M5,0h30" style="fill: none; stroke: rgb(5, 150, 105); stroke-opacity: 1; stroke-dasharray: 9px, 9px; stroke-width: 2.6px;" /></g><g class="legendsymbols"><g class="legendpoints"><path class="scatterpts" transform="translate(20,0)" d="M4,0A4,4 0 1,1 0,-4A4,4 0 0,1 4,0Z" style="opacity: 1; stroke-width: 0px; fill: rgb(5, 150, 105); fill-opacity: 1;" /></g></g></g><rect class="legendtoggle" x="0" y="-11.25" width="167.333984375" height="22.5" style="fill: rgb(0, 0, 0); fill-opacity: 0;" /></g><g class="traces" transform="translate(169.833984375,16.25)" style="opacity: 1;"><text class="legendtext" text-anchor="start" x="40" y="5.85" style="font-family: Arial; font-size: 15px; fill: rgb(51, 65, 85); fill-opacity: 1; white-space: pre;">Actual rate</text><g class="layers" style="opacity: 1;"><g class="legendfill" /><g class="legendlines"><path class="js-line" d="M5,0h30" style="fill: none; stroke: rgb(234, 88, 12); stroke-opacity: 1; stroke-width: 3px;" /></g><g class="legendsymbols"><g class="legendpoints"><path class="scatterpts" transform="translate(20,0)" d="M4,0A4,4 0 1,1 0,-4A4,4 0 0,1 4,0Z" style="opacity: 1; stroke-width: 1.2px; fill: rgb(234, 88, 12); fill-opacity: 1; stroke: rgb(255, 255, 255); stroke-opacity: 1;" /></g></g></g><rect class="legendtoggle" x="0" y="-11.25" width="114.240234375" height="22.5" style="fill: rgb(0, 0, 0); fill-opacity: 0;" /></g></g></g><rect class="scrollbar" rx="20" ry="3" width="0" height="0" style="fill: rgb(128, 139, 164); fill-opacity: 1;" x="0" y="0" /></g><g class="g-gtitle" /><g class="g-xtitle"><text class="xtitle" x="308.8" y="456.1" text-anchor="middle" style="opacity: 1; font-family: Arial; font-size: 18px; fill: rgb(51, 65, 85); fill-opacity: 1; white-space: pre;">Score decile</text></g><g class="g-x2title"><text class="x2title" x="891.2" y="456.1" text-anchor="middle" style="opacity: 1; font-family: Arial; font-size: 18px; fill: rgb(51, 65, 85); fill-opacity: 1; white-space: pre;">Score decile</text></g><g class="g-ytitle"><text class="ytitle" transform="rotate(-90,19.825000000000003,241)" x="19.825000000000003" y="241" text-anchor="middle" style="opacity: 1; font-family: Arial; font-size: 18px; fill: rgb(51, 65, 85); fill-opacity: 1; white-space: pre;">Probability</text></g><g class="g-y2title"><text class="y2title" transform="rotate(-90,602.225390625,241)" x="602.225390625" y="241" text-anchor="middle" style="opacity: 1; font-family: Arial; font-size: 18px; fill: rgb(51, 65, 85); fill-opacity: 1; white-space: pre;">Probability</text></g><g class="annotation" data-index="0" style="opacity: 1;"><g class="annotation-text-g" transform="rotate(0,308.8,61.5)"><g class="cursor-pointer" transform="translate(285,51)"><rect class="bg" x="0.5" y="0.5" width="47" height="20" style="stroke-width: 1px; stroke: rgb(0, 0, 0); stroke-opacity: 0; fill: rgb(0, 0, 0); fill-opacity: 0;" /><text class="annotation-text" text-anchor="middle" x="23.7890625" y="16" style="font-family: Arial; font-size: 16px; fill: rgb(51, 65, 85); fill-opacity: 1; white-space: pre;">Churn</text></g></g></g><g class="annotation" data-index="1" style="opacity: 1;"><g class="annotation-text-g" transform="rotate(0,891.2,61.5)"><g class="cursor-pointer" transform="translate(832,51)"><rect class="bg" x="0.5" y="0.5" width="118" height="20" style="stroke-width: 1px; stroke: rgb(0, 0, 0); stroke-opacity: 0; fill: rgb(0, 0, 0); fill-opacity: 0;" /><text class="annotation-text" text-anchor="middle" x="59.375" y="16" style="font-family: Arial; font-size: 16px; fill: rgb(51, 65, 85); fill-opacity: 1; white-space: pre;">Re-engagement</text></g></g></g></g></g></svg>